<mxfile host="app.diagrams.net" modified="2022-11-18T08:42:07.730Z" agent="5.0 (Macintosh; Intel Mac OS X 10_15_7) AppleWebKit/537.36 (KHTML, like Gecko) Chrome/107.0.0.0 Safari/537.36" etag="UakJNmgqtXoPRNAY0jCd" version="20.5.3" type="github">
  <diagram id="BPZO7ON-bsgYJl_NcTF8" name="第 1 页">
    <mxGraphModel dx="1426" dy="737" grid="1" gridSize="10" guides="1" tooltips="1" connect="1" arrows="1" fold="1" page="1" pageScale="1" pageWidth="827" pageHeight="1169" math="0" shadow="0">
      <root>
        <mxCell id="0" />
        <mxCell id="1" parent="0" />
        <mxCell id="x_rm1d4TItcjszFF2hOW-1" value="" style="rounded=0;whiteSpace=wrap;html=1;" vertex="1" parent="1">
          <mxGeometry x="200" y="320" width="462.77" height="40" as="geometry" />
        </mxCell>
        <mxCell id="x_rm1d4TItcjszFF2hOW-2" value="Msg" style="whiteSpace=wrap;html=1;aspect=fixed;" vertex="1" parent="1">
          <mxGeometry x="212.77" y="325" width="30" height="30" as="geometry" />
        </mxCell>
        <mxCell id="x_rm1d4TItcjszFF2hOW-3" value="" style="endArrow=none;html=1;rounded=0;" edge="1" parent="1">
          <mxGeometry width="50" height="50" relative="1" as="geometry">
            <mxPoint x="242.76999999999998" y="339.72" as="sourcePoint" />
            <mxPoint x="302.77" y="339.72" as="targetPoint" />
          </mxGeometry>
        </mxCell>
        <mxCell id="x_rm1d4TItcjszFF2hOW-4" value="" style="endArrow=none;dashed=1;html=1;dashPattern=1 3;strokeWidth=2;rounded=0;" edge="1" parent="1">
          <mxGeometry width="50" height="50" relative="1" as="geometry">
            <mxPoint x="302.77" y="339.72" as="sourcePoint" />
            <mxPoint x="522.7700000000004" y="339.72" as="targetPoint" />
          </mxGeometry>
        </mxCell>
        <mxCell id="x_rm1d4TItcjszFF2hOW-5" value="" style="endArrow=classic;html=1;rounded=0;" edge="1" parent="1">
          <mxGeometry width="50" height="50" relative="1" as="geometry">
            <mxPoint x="522.7700000000004" y="339.72" as="sourcePoint" />
            <mxPoint x="612.7700000000004" y="339.72" as="targetPoint" />
            <Array as="points">
              <mxPoint x="572.77" y="340" />
            </Array>
          </mxGeometry>
        </mxCell>
        <mxCell id="x_rm1d4TItcjszFF2hOW-6" value="Msg" style="whiteSpace=wrap;html=1;aspect=fixed;" vertex="1" parent="1">
          <mxGeometry x="615.5" y="325" width="30" height="30" as="geometry" />
        </mxCell>
        <mxCell id="x_rm1d4TItcjszFF2hOW-7" value="" style="shape=image;verticalLabelPosition=bottom;labelBackgroundColor=default;verticalAlign=top;aspect=fixed;imageAspect=0;image=data:image/png,iVBORw0KGgoAAAANSUhEUgAACCgAAAH4CAYAAACCdE6zAAABYWlDQ1BrQ0dDb2xvclNwYWNlRGlzcGxheVAzAAAokWNgYFJJLCjIYWFgYMjNKykKcndSiIiMUmB/yMAOhLwMYgwKicnFBY4BAT5AJQwwGhV8u8bACKIv64LMOiU1tUm1XsDXYqbw1YuvRJsw1aMArpTU4mQg/QeIU5MLikoYGBhTgGzl8pICELsDyBYpAjoKyJ4DYqdD2BtA7CQI+whYTUiQM5B9A8hWSM5IBJrB+API1klCEk9HYkPtBQFul8zigpzESoUAYwKuJQOUpFaUgGjn/ILKosz0jBIFR2AopSp45iXr6SgYGRiaMzCAwhyi+nMgOCwZxc4gxJrvMzDY7v////9uhJjXfgaGjUCdXDsRYhoWDAyC3AwMJ3YWJBYlgoWYgZgpLY2B4dNyBgbeSAYG4QtAPdHFacZGYHlGHicGBtZ7//9/VmNgYJ/MwPB3wv//vxf9//93MVDzHQaGA3kAFSFl7jXH0fsAAABsZVhJZk1NACoAAAAIAAQBGgAFAAAAAQAAAD4BGwAFAAAAAQAAAEYBKAADAAAAAQACAACHaQAEAAAAAQAAAE4AAAAAAAAAkAAAAAEAAACQAAAAAQACoAIABAAAAAEAAAgooAMABAAAAAEAAAH4AAAAAEU0jVoAAAAJcEhZcwAAFiUAABYlAUlSJPAAAEAASURBVHgB7N0HvB1F2Tjg9/YAaUBCCp0QQpfeQbGAKEqxo6Kion6i/w+7iL2Cn6KiKAqooCgKEkIghA6hQwgQQg2dhJBCQvrt/92LKBASbm5O2d3zrL/jabsz7zwz53Bz9t2Zuu5kCxsBAgQIECBAgAABAgQIECBAgAABAgQIECBAgAABAgQIECBAoIwC9WUsW9EECBAgQIAAAQIECBAgQIAAAQIECBAgQIAAAQIECBAgQIAAgR4BCQoGAgECBAgQIECAAAECBAgQIECAAAECBAgQIECAAAECBAgQIFB2AQkKZSdWAQECBAgQIECAAAECBAgQIECAAAECBAgQIECAAAECBAgQICBBwRggQIAAAQIECBAgQIAAAQIECBAgQIAAAQIECBAgQIAAAQIEyi4gQaHsxCogQIAAAQIECBAgQIAAAQIECBAgQIAAAQIECBAgQIAAAQIEJCgYAwQIECBAgAABAgQIECBAgAABAgQIECBAgAABAgQIECBAgEDZBSQolJ1YBQQIECBAgAABAgQIECBAgAABAgQIECBAgAABAgQIECBAgIAEBWOAAAECBAgQIECAAAECBAgQIECAAAECBAgQIECAAAECBAgQKLuABIWyE6uAAAECBAgQIECAAAECBAgQIECAAAECBAgQIECAAAECBAgQkKBgDBAgQIAAAQIECBAgQIAAAQIECBAgQIAAAQIECBAgQIAAAQJlF5CgUHZiFRAgQIAAAQIECBAgQIAAAQIECBAgQIAAAQIECBAgQIAAAQISFIwBAgQIECBAgAABAgQIECBAgAABAgQIECBAgAABAgQIECBAoOwCEhTKTqwCAgQIECBAgAABAgQIECBAgAABAgQIECBAgAABAgQIECBAQIKCMUCAAAECBAgQIECAAAECBAgQIECAAAECBAgQIECAAAECBAiUXUCCQtmJVUCAAAECBAgQIECAAAECBAgQIECAAAECBAgQIECAAAECBAhIUDAGCBAgQIAAAQIECBAgQIAAAQIECBAgQIAAAQIECBAgQIAAgbILSFAoO7EKCBAgQIAAAQIECBAgQIAAAQIECBAgQIAAAQIECBAgQIAAAQkKxgABAgQIECBAgAABAgQIECBAgAABAgQIECBAgAABAgQIECBQdgEJCmUnVgEBAgQIECBAgAABAgQIECBAgAABAgQIECBAgAABAgQIECAgQcEYIECAAAECBAgQIECAAAECBAgQIECAAAECBAgQIECAAAECBMouIEGh7MQqIECAAAECBAgQIECAAAECBAgQIECAAAECBAgQIECAAAECBCQoGAMECBAgQIAAAQIECBAgQIAAAQIECBAgQIAAAQIECBAgQIBA2QUkKJSdWAUECBAgQIAAAQIECBAgQIAAAQIECBAgQIAAAQIECBAgQICABAVjgAABAgQIECBAgAABAgQIECBAgAABAgQIECBAgAABAgQIECi7gASFshOrgAABAgQIECBAgAABAgQIECBAgAABAgQIECBAgAABAgQIEJCgYAwQIECAAAECBAgQIECAAAECBAgQIECAAAECBAgQIECAAAECZReQoFB2YhUQIECAAAECBAgQIECAAAECBAgQIECAAAECBAgQIECAAAECEhSMAQIECBAgQIAAAQIECBAgQIAAAQIECBAgQIAAAQIECBAgQKDsAhIUyk6sAgIECBAgQIAAAQIECBAgQIAAAQIECBAgQIAAAQIECBAgQECCgjFAgAABAgQIECBAgAABAgQIECBAgAABAgQIECBAgAABAgQIlF1AgkLZiVVAgAABAgQIECBAgAABAgQIECBAgAABAgQIECBAgAABAgQISFAwBggQIECAAAECBAgQIECAAAECBAgQIECAAAECBAgQIECAAIGyC0hQKDuxCggQIECAAAECBAgQIECAAAECBAgQIECAAAECBAgQIECAAAEJCsYAAQIECBAgQIAAAQIECBAgQIAAAQIECBAgQIAAAQIECBAgUHYBCQplJ1YBAQIECBAgQIAAAQIECBAgQIAAAQIECBAgQIAAAQIECBAgIEHBGCBAgAABAgQIECBAgAABAgQIECBAgAABAgQIECBAgAABAgTKLiBBoezEKiBAgAABAgQIECBAgAABAgQIECBAgAABAgQIECBAgAABAgQkKBgDBAgQIECAAAECBAgQIECAAAECBAgQIECAAAECBAgQIECAQNkFJCiUnVgFBAgQIECAAAECBAgQIECAAAECBAgQIECAAAECBAgQIECAgAQFY4AAAQIECBAgQIAAAQIECBAgQIAAAQIECBAgQIAAAQIECBAou4AEhbITq4AAAQIECBAgQIAAAQIECBAgQIAAAQIECBAgQIAAAQIECBCQoGAMECBAgAABAgQIECBAgAABAgQIECBAgAABAgQIECBAgAABAmUXkKBQdmIVECBAgAABAgQIECBAgAABAgQIECBAgAABAgQIECBAgAABAhIUjAECBDIl0NEV0dqRqZAEQ4AAAQIECBAgQIAAAQIECBAgQIAAAQIECBAgQIBACQQaS1CGIggQILCCwPL2iCfmdcWMBV2xuDViaWt3LG2LWJLclrZ1x5L0teS+57WXPH4xOaGpIaJ/S8SAfnU99/1fvG+pS1574b0h/etiyw3qY8N166O+boUQvECAAAECBAgQIECAAAECBAgQIECAAAECBAgQIECAQIYE6rqTLUPxCIUAgZwJdHRGPDW/Kx6f2xWPzetO7pNbcj/r+e7oqtC3y1rNEVsOrYvRw+pj9AYv3G+8Xn00SFrI2WgSLgECBAgQIECAAAECBAgQIECAAAECBAgQIECAQJEFJCgUuXe1jUCJBRYnsyDc/VSSiJAkI6RJCGkywtPzuyNdliFrW0syP8yofyct7Lppfey2aUM0mzMma90kHgIECBAgQIAAAQIECBAgQIAAAQIECBAgQIAAgRoSkKBQQ52tqQT6IvBkMjvCrY90xi2PdsW9M7ujM4PJCL1p19rJLAt7bVEfB2zVEHtsJlmhN2b2IUCAAAECBAgQIECAAAECBAgQIECAAAECBAgQIFBKAQkKpdRUFoECCLQnSzbc83Rn3JokJNzyWFfMXFChdRoqaLdW00uSFTZviHS2BRsBAgQIECBAgAABAgQIECBAgAABAgQIECBAgAABAuUVkKBQXl+lE8iFwHNLuuO2x16YJeHOJ7tiaVsuwi5JkP2SZIU9N6+PN2/TkMyw0BB1dSUpViEECBAgQIAAAQIECBAgQIAAAQIECBAgQIAAAQIECLxCQILCK0A8JVArAt3JxAi3Pd4ZY6d0xh1PdEX6vNa3Tdari/ft3hBv2roxGhtqXUP7CRAgQIAAAQIECBAgQIAAAQIECBAgQIAAAQIECJRWQIJCaT2VRiDzAktau2PitM646K7OmFHA5RtK0QFD+9fFu3ZtiLfv0BBrNZtSoRSmyiBAgAABAgQIECBAgAABAgQIECBAgAABAgQIECAgQcEYIFAjAk/O7+qZLeGKJDlhWXuNNHoNmzmgX8Q7X9cQR+zcGIPXlqiwhpwOJ0CAAAECBAgQIECAAAECBAgQIECAAAECBAgQqHEBCQo1PgA0v9gCXcmyDbc+9sIyDnemyzgUu7lla11LY8Rbt2+I9+zWGMMHSlQoG7SCCRAgQIAAAQIECBAgQIAAAQIECBAgQIAAAQIECi0gQaHQ3atxtSrQ0Rkx/p6OuODOznjmeWkJpRoHzQ0R7929IT6wR1OkSQs2AgQIECBAgAABAgQIECBAgAABAgQIECBAgAABAgR6LyBBofdW9iSQC4Ebp3fG76/viBkLJCaUq8OGD6qLz76hMfYelWQs2AgQIECAAAECBAgQIECAAAECBAgQIECAAAECBAgQ6JWABIVeMdmJQPYFps/uit9d1x53PSUxoVK9tdcW9fHZA5tiRJKwYCNAgAABAgQIECBAgAABAgQIECBAgAABAgQIECBAYNUCEhRW7eNdApkXmLekO/54Q3tcfl9XdMlNqHh/pUs9vD9Z9uF9uzdFs2UfKu6vQgIECBAgQIAAAQIECBAgQIAAAQIECBAgQIAAgfwISFDIT1+JlMDLBFo7Iv55R3ucd3tnLGt/2VueVEFg5OBk2YcDG2PPzS37UAV+VRIgQIAAAQIECBAgQIAAAQIECBAgQIAAAQIECORAQIJCDjpJiAReKpBOknD1/R1x5g2dMXuRKRNeapOFx28YUx/Hv7kp1mmx7EMW+kMMBAgQIECAAAECBAgQIECAAAECBAgQIECAAAEC2RGQoJCdvhAJgdcUeHZhd5x0WVvc87TEhNfEquIOIwbVxYlvb4oxw+urGIWqCRAgQIAAAQIECBAgQIAAAQIECBAgQIAAAQIECGRLQIJCtvpDNARWKnD1Ax3xq6s6YnHrSnfxRoYEGpPchE/s3xjv2rUxzKWQoY4RCgECBAgQIECAAAECBAgQIECAAAECBAgQIECAQNUEJChUjV7FBHonsKS1O351dXtcdX9X7w6wV6YE9tqiPr58cFMMWkuaQqY6RjAECBAgQIAAAQIECBAgQIAAAQIECBAgQIAAAQIVF5CgUHFyFRLovcC9M7riJxPaY1aytIMtvwJD+tfFCW9rjB03ashvI0ROgAABAgQIECBAgAABAgQIECBAgAABAgQIECBAYA0FJCisIaDDCZRDoDOZLOHsm9vjb7d1RpfchHIQV7zMhmQChQ/v3RBH7dkU9SZTqLi/CgkQIECAAAECBAgQIECAAAECBAgQIECAAAECBKovIEGh+n0gAgIvE5gxvyt+nMya8MAsmQkvgynIk503rosTD2225ENB+lMzCBAgQIAAAQIECBAgQIAAAQIECBAgQIAAAQIEei8gQaH3VvYkUHaBidM64tdXd8Sy9rJXpYIqCmw4uC5+dGRTbDi4vopRqJoAAQIECBAgQIAAAQIECBAgQIAAAQIECBAgQIBAZQUkKFTWW20EXlWgO5ks4Q+T2uMfd3S+6vteLJ7AoLUivn94c2w7QpJC8XpXiwgQIECAAAECBAgQIECAAAECBAgQIECAAAECBF5NQILCq6l4jUAFBVo7In58aVvcML2rgrWqKgsCLY0RXz+kKfYb3ZCFcMRAgAABAgQIECBAgAABAgQIECBAgAABAgQIECBAoKwCEhTKyqtwAqsWeG5Jd3zzorZ4cFYyhYKtJgXq6yI+/frGOHKXJFvBRoAAAQIECBAgQIAAAQIECBAgQIAAAQIECBAgQKDAAhIUCty5mpZtgcfmdsWJY9vj2YWSE7LdU5WJ7shdGpJEhaZIExZsBAgQIECAAAECBAgQIECAAAECBAgQIECAAAECBIooIEGhiL2qTZkXuOPxzvj++PZY0pb5UAVYQYH9R9fH1w5pjnTpBxsBAgQIECBAgAABAgQIECBAgAABAgQIECBAgACBoglIUChaj2pP5gXG39MRp17dEZ1dmQ9VgFUQ2HZEXXz/8OYYtJapFKrAr0oCBAgQIECAAAECBAgQIECAAAECBAgQIECAAIEyCkhQKCOuogm8VKArWcnhD5Pa4593dL70ZY8JrCCw+ZC6+Ol7mmOwJIUVbLxAgAABAgQIECBAgAABAgQIECBAgAABAgQIECCQXwEJCvntO5HnSCBNTjjpsra46n7TJuSo26oaapqk8H9JkoKZFKraDSonQIAAAQIECBAgQIAAAQIECBAgQIAAAQIECBAooUB9CctSFAECryKQJiecLDnhVWS8tCqBx+Z2x5fPb4uFy5IBZCNAgAABAgQIECBAgAABAgQIECBAgAABAgQIECBQAAEJCgXoRE3IrkCanPDTiW1xpZkTsttJGY7s0Tnd8ZU0SWG5JIUMd5PQCBAgQIAAAQIECBAgQIAAAQIECBAgQIAAAQIEeikgQaGXUHYjsLoC3ck55Z9d3hZX3GdZh9W1s/9/BaYnSQpfTZIUFklS+C+KRwQIECBAgAABAgQIECBAgAABAgQIECBAgAABArkUkKCQy24TdNYFepITrmiLidMkJ2S9r/IQ38OzkySFC9pisSSFPHSXGAkQIECAAAECBAgQIECAAAECBAgQIECAAAECBFYiIEFhJTBeJtBXgTQ54edJcsJl90pO6Kuh41YUeOjZfycptFruYUUdrxAgQIAAAQIECBAgQIAAAQIECBAgQIAAAQIECORBQIJCHnpJjLkRSJMTTrmyLSZITshNn+Up0AeTJIWvJTMpLJGkkKduEysBAgQIECBAgAABAgQIECBAgAABAgQIECBAgMC/BSQoGAoESiSQXtf+y6va4tKpZk4oEaliXkXggVndccKFbdHa8SpveokAAQIECBAgQIAAAQIECBAgQIAAAQIECBAgQIBAhgUkKGS4c4SWL4HTrmmP8fdITshXr+Uz2mkzu+MH49ui03DLZweKmgABAgQIECBAgAABAgQIECBAgAABAgQIECBQowISFGq04zW7tAIXTO6IC6d0lrZQpRFYhcDNj3bFL5LlRGwECBAgQIAAAQIECBAgQIAAAQIECBAgQIAAAQIE8iIgQSEvPSXOzArcOL0zTr/efPuZ7aACBzbh3q74443tBW6hphEgQIAAAQIECBAgQIAAAQIECBAgQIAAAQIECBRJQIJCkXpTWyou8OCsrvjxpe3R1V3xqlVIoEfgr7d2xri7JMgYDgQIECBAgAABAgQIECBAgAABAgQIECBAgAABAtkXkKCQ/T4SYUYFZi3sjhPHtsVy54Yz2kO1E9ZvrumIWx+zxEjt9LiWEiBAgAABAgQIECBAgAABAgQIECBAgAABAgTyKSBBIZ/9JuoqCyxu7Y5vXNgW85dWORDVE0gEOpMZPH54SXs8OqeLBwECBAgQIECAAAECBAgQIECAAAECBAgQIECAAIHMCkhQyGzXCCyrAh3JOeDvjmuLJ+ZZ1yGrfVSLcS1ti2RGj/aYt8S4rMX+12YCBAgQIECAAAECBAgQIECAAAECBAgQIECAQB4EJCjkoZfEmCmBU65oiylPOQmcqU4RTI/A7EXd8c102ZF2IAQIECBAgAABAgQIECBAgAABAgQIECBAgAABAgSyJyBBIXt9IqIMC/zllvaYOM00+uXoorq6iHWaIzYYUBdD+9dFffLctvoCDz3bHSdf1hZSaFbfzhEECBAgQIAAAQIECBAgQIAAAQIECBAgQIAAAQLlFajrTrbyVqF0AsUQuO6hzvjB+HYnfvvYnWniwaihdbFFz60+1l+nLtZpSZISWpL7JDFh7ea6SJMUXtzaOyNmLeqKZxZ0x6zk9szz/72ly2ukS23YVi7wsX0a4oN7Na18B+8QIECAAAECBAgQIECAAAECBAgQIECAAAECBAgQqLCABIUKg6sunwJPPdcVnz23LZa25TP+Ske9dpJwsPtm9bH9hvUvJCUMqY/+/V6SfbCGAc1f2h1X3tcRlyWzWaTJCrYVBdJkj+8d1hR7b9Gw4pteIUCAAAECBAgQIECAAAECBAgQIECAAAECBAgQIFAFAQkKVUBXZb4ElrdHHHduazzuRPgqO27w2hH7jKqPfUc1xC6bNkRThc6L3/9MV5Ko0BHXPtAVSySQvKyP0pkpTv1gc2yyrtV8XgbjCQECBAgQIECAAAECBAgQIECAAAECBAgQIECAQFUEJChUhV2leRL4yYS2uPJ+6wm8Wp8N6Bdx0LYNsd/ohthuZH3Ul26ShFerbpWvtXZEXP9QMqvCvZ1x99NmVXgRa6N16+LXRzVH/2QpDRsBAgQIECBAgAABAgQIECBAgAABAgQIECBAgACBagpIUKimvrozLzD+no74xZXJmW/bywSGDayLd+3SEIfs0BhrNb3srUw8mfxEZ/zqqo6YsUCiQtohe21RH98/rDnSZR9sBAgQIECAAAECBAgQIECAAAECBAgQIECAAAECBKolIEGhWvLqzbzAw892xf/7e1u0dWY+1IoFOHqDunjvbg1xwFaN0ZDxVQPSfjvvtvb4222d+jAZIcfs2xBH7ZnBbJKKjV4VESBAgAABAgQIECBAgAABAgQIECBAgAABAgQIVFtAgkK1e0D9mRRYtLw7/uevbfHM867ATzto2xF18bF9G2PnTRoy2V+rCmrGgq449eqOuOPx2l6mI11+46R3NeWyD1fVv94jQIAAAQIECBAgQIAAAQIECBAgQIAAAQIECBDIj4AEhfz0lUgrJJCmJHxrbFvc/Ghtn9BOuQetFfGJ/Rvjrds15n55gOse6ozfXtsRcxfXbtLJumtH/PZDLTGkv7UeKvR1ohoCBAgQIECAAAECBAgQIECAAAECBAgQIECAAIGXCEhQeAmGhwRSgb8nywKccUNtr+uQXm3/th3q4+P7NcWAfsU5mb20rTv+dFNHXHhnZ9RqmsL2I+vi/97bEo0ZX6LDtxEBAgQIECBAgAABAgQIECBAgAABAgQIECBAgEDxBCQoFK9PtWgNBO5+qjO+cn57dNbq2evEbsywuvj8m5pizPDinsG+/uHOOPmy9ljevgaDJceHvne3hjj2gKYct0DoBAgQIECAAAECBAgQIECAAAECBAgQIECAAAECeRSQoJDHXhNzWQQWLe+OT57dVrNLADQk+QjH7NsQ79mtKdIZFIq+PTK7K755UXvMXlR72Shp9/7oyKbYfbOGonez9hEgQIAAAQIECBAgQIAAAQIECBAgQIAAAQIECGRIoLiXSGcIWSj5EPjV1e01m5wwpH9d/Ow9zfG+3WsjOSEdkaM2qI/TPtgc6ZIHtbalKRknJTNIzFtSe8kZtdbX2kuAAAECBAgQIECAAAECBAgQIECAAAECBAgQyJKABIUs9YZYqiZwzYMdcc0DXVWrv5oV77ZZfZz+4eRE/Ya193UweO26+Ol7WuKt29de2xcsjfjJpW3RJUehmh8/dRMgQIAAAQIECBAgQIAAAQIECBAgQIAAAQIEakrAEg811d0a+2oCcxenSzu0xqLlr/ZucV9Ll3H4yN4NcdSeTVFXe5MIrNCx/7qzI06/riM6a+yE/cf2aYgP7tW0gocXCBAgQIAAAQIECBAgQIAAAQIECBAgQIAAAQIECJRaoPYuGy61oPJyLZCei/7pxPaaS04YtFbEye9u6jkxLTnhhSF85C6N8cMjm6J/S66H9GoHf/bNnTFtZm3OHrLaWA4gQIAAAQIECBAgQIAAAQIECBAgQIAAAQIECBBYIwEJCmvE5+C8C1x0V0dMfqK2Ts4OG1gXv/hAc+y0cUPeu6/k8e+2aUP86qjmWH+d2plSIp0x4icT2mNpW41NHVHy0aNAAgQIECBAgAABAgQIECBAgAABAgQIECBAgACB1xKQoPBaQt4vrMBTz3XFH67vKGz7Xq1hmw+pi1++vzk2Huyj/2o+6WubrFsfP31vU6y79sr2KN7rzzzfHb+5pr14DdMiAgQIECBAgAABAgQIECBAgAABAgQIECBAgACBTAk4S5mp7hBMpQQ6k0kTfnJZe7TWUH7C9hvWxSnva44h/WtndoC+jqeeJIX3NMfgGkpSmDitK65/qLOvZI4jQIAAAQIECBAgQIAAAQIECBAgQIAAAQIECBAg8JoCEhRek8gORRT4y63t8eCs2pnSfu9R9XHSu1qif4vkhN6O583WT2ZSeHdzDFqrt0fkf79fXNkecxfXzuci/z2mBQQIECBAgAABAgQIECBAgAABAgQIECBAgACBfAlIUMhXf4m2BAIPzOqKc2+tnSvFD96uPr7zjuZoaSwBXo0VsfmQ+jg5SVIY2K82Gr5wecTJl7WFFIXa6G+tJECAAAECBAgQIECAAAECBAgQIECAAAECBAhUWkCCQqXF1VdVgfYkL+GnE9sjXeKhFra3bFsfXzqoORp80vvc3aOGJrNPJEkKA1r6XESuDrzzye4Yd1cNrX2Sq94RLAECBAgQIECAAAECBAgQIECAAAECBAgQIEAg3wJOW+a7/0S/mgJ/v609nphXG9eH77flC8kJdVZ1WM1RsuLuozeoj5+8qzlZImPF94r4yh8mdcSMBTWSxVPEDtQmAgQIECBAgAABAgQIECBAgAABAgQIECBAgEBGBSQoZLRjhFV6gSfnJ0s73FYbSzvsuml9fOPtZk4o5SgaM7w+fnxkc6zTXMpSs1nW8vYXZhrpqo1cnmx2gqgIECBAgAABAgQIECBAgAABAgQIECBAgAABAgUUkKBQwE7VpBUFupMTrT+/vD3SJR6Kvm03si6++87maGooeksr375tRtTHD46oDdt7Z3THBZOTTAUbAQIECBAgQIAAAQIECBAgQIAAAQIECBAgQIAAgRIJSFAoEaRisi1wydSOSE+4Fn3bcmhd/DA5gd6vqegtrV77dtiwPr7wlsbqBVDBmv94U2ekM4/YCBAgQIAAAQIECBAgQIAAAQIECBAgQIAAAQIECJRCQIJCKRSVkWmBeYu74w+TOjIdYymC23jduvjJu5qjf0tdKYpTxioE3rJtYxy1R/GnqGhLPjYnT2gPSz2sYjB4iwABAgQIECBAgAABAgQIECBAgAABAgQIECBAoNcCEhR6TWXHvAqcenV7LGnNa/S9i3tAv4gfHN4Ug9eWnNA7sTXf62P7NsX+o4v/FfrALEs9rPloUQIBAgQIECBAgAABAgQIECBAgAABAgQIECBAgEAqUPyza/q5pgVumN4ZN0wv9hT1Dcmn+JuHNsWG6/o4V3Kw1yW5IF99a3OM3qD4SSF/SpZ6mLGg2J+jSo4ddREgQIAAAQIECBAgQIAAAQIECBAgQIAAAQIEalXAGc1a7fkaaPeS1u749dXFX9rhf97QGLtsUvzlBrI4ZPs1RXz/8OZYv3+xkxRak4/Rzy9vj+7uLPaCmAgQIECAAAECBAgQIECAAAECBAgQIECAAAECBPIiIEEhLz0lztUWOGNSe8xdXOwzqofuWB+H7dS42jYOKJ3AkCQ54fuHNUVLwbvh7qe7Y/w9xU/4Kd3IUBIBAgQIECBAgAABAgQIECBAgAABAgQIECBAgMArBSQovFLE80IITJvZFeOnFntK+p02rovj3thciP7KeyO2GlafLPfQFMWeRyHiD5M6YvaiYif95H0sip8AAQIECBAgQIAAAQIECBAgQIAAAQIECBAgkGUBCQpZ7h2x9UmgKzl/eupVxZ6OfuSguvjWoc3R6BPcpzFSjoMO2KohPrpvsZfaWNoW8avks2UjQIAAAQIECBAgQIAAAQIECBAgQIAAAQIECBAg0BcBpzf7ouaYTAtcfHdHTJ9T3Ku8+zVFfO/wphi4VtGv18/0MHvV4D64Z1O8aetif63e8mhXXPdQ56u234sECBAgQIAAAQIECBAgQIAAAQIECBAgQIAAAQIEViVQ7DNpq2q59wop8Pyy7vjTTR2FbNuLjfrcGxtjs/V9dF/0yNr98W9pjk3XK3byyGnXdMSS1uImAWVtTImHAAECBAgQIECAAAECBAgQIECAAAECBAgQIFAUAWc5i9KT2tEjcMak9li0vLgYb96mPg7errG4DSxAy9IZLk48tClaCtxN85Z0R/pZsxEgQIAAAQIECBAgQIAAAQIECBAgQIAAAQIECBBYHQEJCqujZd9MCzwwqysum9aV6RjXJLiN162L//fm5jUpwrEVEth8SH189sACZygkjuOndsW0mcX9vFVoqKiGAAECBAgQIECAAAECBAgQIECAAAECBAgQIFBTAhIUaqq7i9vYrmS2+VOvao/ugs4639zwwlX5ayVX59vyIfC2HRrjwDHF/YpNP2unXNEeHXIU8jEgRUmAAAECBAgQIECAAAECBAgQIECAAAECBAgQyIBAcc+eZQBXCJUTuOzejnjw2YJmJySMn3lDY4wa6uNauRFVmpqOf0tTbDi4rjSFZbCUx+d1x/l3WOohg10jJAIECBAgQIAAAQIECBAgQIAAAQIECBAgQIBAJgWc8cxktwhqdQQWLe+OM2/oWJ1DcrXvAVvVxzteV+zlAnLVIasR7NrNdXHi25uiKZkBo6jbX27tjGcXFjc5qKj9pl0ECBAgQIAAAQIECBAgQIAAAQIECBAgQIAAgWoISFCohro6Syrwxxs74vllJS0yM4WNGFQXX0yuwrflV2D0sPo49oDiJpgsTyZQ+M01ZlHI7wgVOQECBAgQIECAAAECBAgQIECAAAECBAgQIECgcgISFCpnraYyCEyf3RXj7+ksQ8nVL7I+WRngywc3xjotxV0ioPrKlYngiJ0bY98ti/t1e9MjXXHLo8X8HFZmhKiFAAECBAgQIECAAAECBAgQIECAAAECBAgQIFAbAsU9Y1Yb/VfTrUwnlf/11e3RVdDZ5Y/cuSF23KjAawPU2Oj90kFNMWxgcZNNfn1NR7QWd6WVGhutmkuAAAECBAgQIECAAAECBAgQIECAAAECBAgQKI+ABIXyuCq1AgLXPdgZ984sZnbCJuvVxTH7WdqhAsOoYlUM6FcX33hbUzQW9Ft31vPdce6tlnqo2IBSEQECBAgQIECAAAECBAgQIECAAAECBAgQIEAghwIFPVWWw54Q8moJtCWzyZ8xqZiXazckF9l/5a1N0dy4WiR2zoHAtiPr4+i9izsrxj/u6IwZ87ty0BNCJECAAAECBAgQIECAAAECBAgQIECAAAECBAgQqIaABIVqqKtzjQX+Nbk9Zi0s5uwJ79u9IbYe7qO5xoMkowW8b/empH+LudRDe5I4dNq1xUwcyuhwEhYBAgQIECBAgAABAgQIECBAgAABAgQIECBAIFcCzoLmqrsEmwrMX5pMJX9bcia0gNsWQ+viw3tb2qGAXfufJjUk37pfTmfIKOhECrc+1hU3P1rMz+d/OtEDAgQIECBAgAABAgQIECBAgAABAgQIECBAgACBPglIUOgTm4OqKfCnG9tjaVs1IyhP3Y3Jp/GryYnrpoKeuC6PWj5L3XS9+vjoPsXt6N9e0xHpMiw2AgQIECBAgAABAgQIECBAgAABAgQIECBAgAABAi8VkKDwUg2PMy/w6NyumHBvMde4/9BeDTFqqI9k5gdhiQJ8925Nse2IYi71MPP57vjn7e0lklIMAQIECBAgQIAAAQIECBAgQIAAAQIECBAgQIBAUQScDS1KT9ZIO353bXt0dRevsZsPqYv372Fph+L17MpbVJ/kJnz5kKZoaVz5Pnl+52/JMiyzFxXww5rnThE7AQIECBAgQIAAAQIECBAgQIAAAQIECBAgQKDKAhIUqtwBqu+9wC3JuvZ3Plm8E57pierj39IU6RIPttoS2HhwfXxs32JmKCzviDj9OrMo1NaI1loCBAgQIECAAAECBAgQIECAAAECBAgQIECAwKoFnBJdtY93MyLQkazqcPr1yRnPAm6H7tiQTPXvo1jAru1Vk47cpTG2H1nMpR6ue6grps4o5pIsvepcOxEgQIAAAQIECBAgQIAAAQIECBAgQIAAAQIECLxMwFnRl3F4klWBi+/uiKeeK97sCUP618XH9y/mFfRZHUtZi6tnqYeDi7vUw2nXFHNZlqyNI/EQIECAAAECBAgQIECAAAECBAgQIECAAAECBPIgIEEhD71U4zEubu2Oc24u5uwJnz2wMdZpLubV8zU+bFer+RuuWx8f36+YiSoPz+6OidOK+fldrU62MwECBAgQIECAAAECBAgQIECAAAECBAgQIECAQEhQMAgyL/C3Wzti4fLMh7naAe4zqj72H92w2sc5oJgCR+zcGDtuVMxklbNu6IilbcWbAaWYI1GrCBAgQIAAAQIECBAgQIAAAQIECBAgQIAAAQLlE5CgUD5bJZdAYPbC7rhwSmcJSspWEWs3R3zujU3ZCko0VRWoS3ITvnRQU/Qr4LCYvzTiL7eYRaGqA0zlBAgQIECAAAECBAgQIECAAAECBAgQIECAAIEMCEhQyEAnCGHlAn+8qT3aipefEB/btzGGDijm1fIr703vvJbAyMH1cUwyNoq4pYlGMxd0FbFp2kSAAAECBAgQIECAAAECBAgQIECAAAECBAgQINBLAQkKvYSyW+UFHpnTFVfdX7wTmlsNq4vDdirmSejKj5Li1Xh4stTDmGSMFG1rTxKN/jDJLApF61ftIUCAAAECBAgQIECAAAECBAgQIECAAAECBAisjoAEhdXRsm9FBf5wfUd0FWzZ+nQa/3Rph/rinX+u6NgocmXp2Dj+LU3RUMBv50kPd8XUGcVLOiryeNQ2AgQIECBAgAABAgQIECBAgAABAgQIECBAgEApBQp4CqyUPMqqlsDkJzrjjieKdyLz4O3qY5sRPnbVGld5qXfLDerjyJ0b8hLuasX5u+vao7tgiUerBWBnAgQIECBAgAABAgQIECBAgAABAgQIECBAgEANCzhTWsOdn9Wmpycv09kTirb1b4n4xH5NRWuW9pRJ4CP7NMXwgcWbauPBWd1x9QPF+3yXaRgolgABAgQIECBAgAABAgQIECBAgAABAgQIECBQKAEJCoXqzmI05sr7O2L6nOJdYv3RfRpj8NrFO+FcjFGXvVb0S3JZPv+mxuwFVoKIzryhM1rlKJRAUhEECBAgQIAAAQIECBAgQIAAAQIECBAgQIAAgXwJSFDIV38VPtq2zog/3Zj8X8G2UUPr4h2vK+bJ5oJ1Vaaas8fmDfH6rYr3NT17UXecP7k9U9aCIUCAAAECBAgQIECAAAECBAgQIECAAAECBAgQKL9A8c58ld9MDWUUGDulPZ5NTl4WaUvnTDjujU3R4NNWpG6tWFs+84amWLu5YtVVrKLzbu+MBUuL9VmvGJ6KCBAgQIAAAQIECBAgQIAAAQIECBAgQIAAAQI5FXDKNKcdV8SwFy3vjr/dWrzZE960TX3ssKGPWhHHbCXaNKR/XRy9d/Fm31jaFnHOLdZ5qMQYUgcBAgQIECBAgAABAgQIECBAgAABAgQIECBAICsCzppmpSfEEX+7rSMWtRYLIr3y/dgDmorVKK2puMAROzfG5kPSuTiKtV1yT2c8Pb+rWI3SGgIECBAgQIAAAQIECBAgQIAAAQIECBAgQIAAgZUKSFBYKY03KikwJ1nWYexdxZs94cN7NcR66xTvxHIlx4a6omd5kP/3pqYo2kjqSHITzrzBLArGOAECBAgQIECAAAECBAgQIECAAAECBAgQIECgVgQkKNRKT2e8nX++uT3aCnaecqN16+KInc2ekPGhl5vwtk+WCTlou+J9ZU96uCumzTSLQm4GokAJECBAgAABAgQIECBAgAABAgQIECBAgAABAmsgULyzXWuA4dDqCDzxXFdcPq14JyiPPaAxGhuqY6rWYgp8cv+mGNBSvLb9/vr24jVKiwgQIECAAAECBAgQIECAAAECBAgQIECAAAECBFYQkKCwAokXKi1w5qSO6OqudK3lrW/nTepin1GyE8qrXHulD167Lj6yb2PhGj5tZnfcML14S7wUrqM0iAABAgQIECBAgAABAgQIECBAgAABAgQIECCwhgISFNYQ0OFrJpBO7X7TI8WaPaG+LuIzr7e0w5qNDEevTOAdOzbGFkOSQVaw7awbOqKzWF8FBeshzSFAgAABAgQIECBAgAABAgQIECBAgAABAgQIrLmABIU1N1TCGgicMal4U7sfskN9bDHUR2sNhoVDVyHQkAytzx5YvFkUnnyuOyZO61hFy71FgAABAgQIECBAgAABAgQIECBAgAABAgQIECCQdwFnUfPegzmO/+ZHO2PqjGKt7bBOc8TH9jF7Qo6HZS5Cf93GDfGGMcX7+j775s5olaOQizEoSAIECBAgQIAAAQIECBAgQIAAAQIECBAgQIBAXwSKd4arLwqOqbhAV5KXcOak4p2JPGrPhhi8dvGm36/4AFHhawoce0BT9CtYLszcxd1x4ZTizarymp1pBwIECBAgQIAAAQIECBAgQIAAAQIECBAgQIBAjQhIUKiRjs5aM6+8ryMen1es2RNGDqqLI3cp2BnjrA0c8fxHYIMBdfGB3Rv+87woD867rTMWLS/Wd0NR+kY7CBAgQIAAAQIECBAgQIAAAQIECBAgQIAAAQJrKiBBYU0FHb/aAm2dEX+6Kfm/gm2fPKAxmop3vrhgvVSs5rxnt6YYkSTGFGlb1Brx99uKN7tKkfpIWwgQIECAAAECBAgQIECAAAECBAgQIECAAAECfRWQoNBXOcf1WWDcXR0xe1GxrpDecaO62H+07IQ+DwoH9kmguTHik/sn/1ewbexdnZEu92AjQIAAAQIECBAgQIAAAQIECBAgQIAAAQIECBAoloAEhWL1Z+Zbs6S1O869tVhXR6fXr3/qAEs7ZH7wFTTAA7ZqiDRBpkhba/IV8Zdb2ovUJG0hQIAAAQIECBAgQIAAAQIECBAgQIAAAQIECBBIBCQoGAYVFTjvjo5YuLyiVZa9sgO3ro8xw32Uyg6tgpUKfOb1TVFfrByFuOzerpixoGulbfYGAQIECBAgQIAAAQIECBAgQIAAAQIECBAgQIBA/gSKNzd4/vqgZiJ+bkl3/OvOzkK1tylZ1eGYfc2eUKhOzWFjRg+rj4O2rY/LphXnhH5H0pQ/39QRJ7ytOYc9ImQCBAgQIECAAAECBAgQIFCbAosWLY7Zc+fGnDlzY3ZymzN3XixZsiRaW9uSW2u0tv37/sXn6X1ba7S1tUdHR0d0dXVFV3d3NDU2Rr9+/ZJbywv3LS2x1kufv/T1tdaKoUPWj+HDN4gRw4bFoEEDaxNfqwkQIECAAAECORGQoJCTjipCmOfc0hHLCzZr++E7NcTwQQW7dL0Ig60G23DMfk1x3UOtsaxAn7FrHuyK9+/eFVsMNUNJDQ5pTSZAgAABAgQIECBAgACBjAosXbospj/6WDw8/dGYMWNmT0JCTzJCkpCwbHlppk5NkxX6WtbaScLC8GEbJAkLw5KEhRfvh/UkMAzbYGg0NbnYKKNDS1g5ELh76rRIE5GqtW204YjYbNNNqlW9egkQIECgRAJ1R5+5vLtEZSmGwCoFZj3fHZ0FGm0D+kWcfUxLDOgnQWGVHe/Nigmce2t7nHVjsWYp2WuL+vjB4WZRqNggUhEBAgQIECBAgAABAgQIEHiJwNJly+KRR5JkhEce7UlISO9nznymZ5aDl+yWm4f1dfU9yQtbjxkd22y9Vc9t8+RkZ0NDMk2qjQCBVQrMnfdcfOzY46I9SSCq1rbpxhvF7079WdTV+U2+Wn2gXgIECJRCoHHGggKdMS6FiDII9FLgg3s2Sk7opZXdKiPw7l2b4pKpXfHswuJ8r9/yaFdMnNYRGwzwj47KjKL817LV8PpYp9l46UtPTrrxlnjw4el9OdQxJRRobGyIlubmaE5uL973PG55+WstyfN1Bw+OgQMHlLB2RWVVIJ0K+Zxz/5G58PbYbZfYcfttMxeXgLIrkJ7Uum7STZkL8N1HvDMGF3w68AvHXRLznpufKfu999gtttt260zFJBgCBCLa2zvi3mn3xe2Tp8TkKXfHU0/PTJIRirOkZNqWmbNm9dyuvm5ST5enS0dsNXqL2GbMmJ6EhTR5YdBAy0T4PBB4pcBF4ydUNTkhjeeJp56OOybfFbvvtvMrw/OcQMkEnn9+Yfz+rLNLVp6CKivQ2dURrcl07m3tbcnyUZ09y0fVJ5M09+u3VrJc1AtLR72wbFS6lFS/F5aQWitdSmqt2GDokBgxYlgMHOD3tnL3miUeyi2s/EIKjEiWdThsJx+fQnZujhvVnAzJY/ZtiB9PqF4Wczn4fjqxWO0ph5Ey/ytw6geaY5sREhT+K9L7R5On3BWXXXF17w+wZyYE0iSG9ddbL4YMSW7rr5/c/n3/kufrrjvY1SWZ6K2+B9GerMl8/oXj+l5AmY4cPGiQBIUy2Ra12CeTH5SzOJYPfvOBhU9QuPLq6+KRxx7P1NBK14uXoJCpLhFMDQvMnTuvJyEhTUqYcvfUPi+tkFfCdCmJu6fe13NL21CX/G/kyOFJwsJWsd02Y5ITobv0/J2d1/aJm0ApBJYls6lMmHhlKYpa4zIuGHuxBIU1VlTAqgTS/y5cde31q9rFewUX6L/OOjEiWSpqZJKsMGL48OR+eM/zEcn9+uut63e2EvS/M6wlQFRE7Qkcs19DNJn5rfY6PgctfuPWjXHBnZ3x0LPFmUUhB+xCJECAQNUE0ivrX7wCbGVBpGvwbr7ZpjFqi81i1OabxRbJbdNNN45ma++ujMzrBAiUSUAKYZlgFUuAAIE+CDw9Y2Zcdc31cevtk+Oxx5+M7uR/thcEUosZyTIW6e3Ka67rOQkxZvSWsc9euye3PWKjDUeiIlBzAukFDYuXLMlEu++eem9MT5ae2XLU5pmIRxAECBRPIP2+61neKpkF8JVbOsvStkkCY5rEuN02W8eWW24RTY1Ot7/S6bWeE3stIe8TeIXA1sPr4g1jfHReweJpRgTS5dc+9frG+OI/2jMSkTAIECBAoNoC6brB0+5/oOf2YiyNyRq7G2+0YU+ywouJC+lUti0tLS/u4p4AAQJlEJCiUAZURRIgQKDXAstbW+OGZGm39ETjtPsekJTQS7nu7u544KGHe25nnX1ubLrxRj2JCvvsvUeMHrVFL0uxG4H8CnR2dsbYcZdmpgFpOlU6i8JXv/j5zMQkEAIEakfg+YUL4+Zbb++5pa1Ol2bdastRLyQsJEvYbbP1VjGgf//aAeljS51l7SOcw2pX4NgDGpOJ3mwEsivwuo0aYp9RnXHTI8VZIzK72iIjQIBAPgU6kh+YHnviyZ7bi9MWpjMqpFNt77LT62LXnV8Xm2+2iSnr8tm9oiZAgAABAgQIvEzgwYenx8QkKeG6STfFkqVLX/aeJ6sv8ESyZFF6+9s//xXDhg6NvZOZFfZNZlZI/5auTxe5thEomMCkJLHp2TlzMtWqSTfeHB87+qie9eIzFZhgCBCoOYG2ZHbTe++7v+cWF0TUJ1eRbpkkMO6/716x3z579SwNUXMovWiwBIVeINmFwIsCe4+qjx2Tk782AlkX+OT+jXHbY23RIUch610lPgIECGRGoK29vWfN4XTd4TP//JdYb93BPckKu+y8Y3K/Y7I++6DMxCoQAgTyKZDO9mUjQIAAgcoIdHR0xBVXXxfjxk/oSUqtTK21V0t60nbsxZf23NK/l9/yxtfH2w85KIYP26D2MLS4sALpbAVZ29Kk+4uSz94njzk6a6GJhwCBGhfoSmZeemj6Iz23s/78155khTRRIU1YGDlieI3r/Lf5EhT+a+ERgVUK1Cc/pn18Px+ZVSJ5MzMCG69XH2/fsSEuuqszMzEJhAABAgTyJfDc/AU9a+6m6+6m2d9bbL5Z7JtMY/umA1/vKpV8daVoCWRIQIZChjpDKAQIFFSgPUlMuPzKa+If54/N3BXPBSX/T7MWPP98/PPCccnU8+Njt113ine87eDYbZedzEr2HyEP8ihwz73TetZhz2LsEy6/Ko56/7tjnbXXzmJ4YiJAgECynFb0fIc+/Mij8adzzu35be3FmRU22nBkTQs521rT3a/xqyNw0Hb1sdn6pmlbHTP7Vlfgw3s1xhX3dcbSturGoXYCBAgQyL9Amv09/dHHem7nnPuP2HGHbZOrww5MEhb2jH79WvLfQC0gQIAAAQIECORcoD2ZDWviFdfEeReMjTlz5+a8NfkOv6u7K267486e24jhw+Ltbz0oDnrzgTFwgPWo892ztRn9BRdmb/aEF3ti6bJlMWHilfHuI9754kvuCRAgkFmBNFnhkcce77n9+S9/j223HhOHveNtPRcDNTTU3sztEhQyO1QFliWBluST8pG9m7IUklgIvKbA4LXr4r27NcSfbjKLwmti2YEAAQIEei2QJivcdc+0nttvTj+zZz29dCrb7bfbxtVhvVa0I4HaFLDEQ232u1YTIFBegXSZrsuSq4j/ccFFMXfevPJWpvTVFnhm1rNxxp/OiXPOPS9ev/8+ceghB8dWo0etdjkOIFANgSefmhG3TZ5Sjap7XedFF0+Iw9/x9mhsrL2Te71GsiMBApkTSJMVpj3wYM9tgyFD4tBk1qVDDnpTDKihZEYJCpkblgLKosDhOzXE0AGmI81i34hp1QLv3rUpxt3dFc8tSf+TZyNAgAABAqUVSK9Yufyqa3puI4YNizcniQqHvu2gGDRwYGkrUhoBAgUR8G+qgnSkZhAgkBGByVPujt/87syYOWtWRiISxsoEWtvakr+Zr+25jRm9ZRx26CHxhgP2jfp6s7WuzMzr1Rf410XjoztJUM/yNidJzLr+hhvjjW84IMthio0AAQIrFZidzHx11tl/jXPPO7/nu+ywdxwSm2680Ur3L8ob/gIqSk9qR9kEBvSLeP8ecnnKBqzgsgr0Syb+OHpvGcRlRVY4AQIECPQIPPPss3HO3/4RH/nEcfH7s86O556bT4YAAQIECBAgQKAMAs/Nnx8//ukpceJ3fig5oQy+5S7ywYenx8mnnBqf/twX44abbsn8CeByeyg/mwLzFyyIq6+9PpvBvSKqC8aOf8UrnhIgQCB/AstbW+PSiVfEp4/7Ypzw7R/EHZPvyl8jViNiZ11XA8uutSnwgT0aYkA/V/rUZu8Xo9WHbN8YF0zujKfmZzvjuRjaWkGAAAECy1uXR3qlzfhLJ8bBb35jvOfId8YGGwwFQ4AAgQj/rDIKCBAgsEYCXV1dccmEK+JPf/lbLFm6dI3KcnD1BZ58ekb84KSfx+hRW8RHPvT+2G2XnaoflAgI/Fvg4ksmRrqETB62dE33KXdPjZ1ft0MewhUjAQIEVinQHd1x51339Nx2SJZT/cRHPxxjttpylcfk8U0zKOSx18RcMYF0WYfDd0ouQbcRyLFAQ/JN//H95KPluAuFToAAgVwKpD9mXTxhYhzz6f8Xp5z625gx85lctkPQBAiUTqBOhkLpMJVEgEDNCUx/5LE4/isnxm9+f6bkhIL1/sOPPBonfvdH8eUTvh3T7nugYK3TnDwKtCZX8Y6fcHmuQr/gwotzFa9gCRAg0BuBqdPuj//98jfiRyefEjOfKdaSXhIUejMC7FOzAh/dpyGandet2f4vUsP3G90Q245wyVqR+lRbCBAgkBeBjs6OmHjlNfHJzx4fJ//81Jgzd15eQhcnAQIECBAgQKDqAun67/+84KL4/JdOiHRpAFtxBdKTEF/6+rfim9/7cUx/9LHiNlTLMi9w+VXXxsJFizIf50sDnDzl7nj8iSdf+pLHBAgQKIRAOqPC9TfeHJ867gvxuz/8MZ5fmK/v55V1ggSFlcl4veYFNlu/Lt6yreyEmh8IBQL45AFmAylQd2oKAQIEcieQTkl89XWT4tgkUeGCsRdHZ2dn7togYAIE1kygTr7smgE6mgCBmhNYvHhJfPeHJ8eZZ/81urr87VQLAyBdnPP2yVPic1/4Ws/Vkk89PbMWmq2NGRJI/9124bhLMhRR70JJT+BdMHZ873a2FwECBHIo0N7REWPHT4hjPvW5OO/8sdHa1pbDVvw3ZAkK/7XwiMDLBD6+f2PU+wHtZSae5Ftghw3rY8/Nfe3nuxdFT4AAgfwLLFu+PP7wx3PiuOO/GtPuN4Vt/ntUCwisjoB/YK2Oln0JEKhtgYenPxLHfeGrccvtk2sbokZbn86c0XO15Oe+GGf86S+RTrlvI1AJgZtvvT2304hfe/0NMe+5+ZVgUgcBAgSqJrBk6dL44znnxieSJVVvzfHfic5UVW0IqTjLAjtsWBd7b9GQ5RDFRqBPAsfs1xiuXOsTnYMIECBAoMQCjyXTb37p69+OU079bSwsyPR0JSZSHAECBAgQIFCjAuna71/82rdi1rOza1RAs18USGfOOP/CcfHpz38pptw99cWX3RMom0A6211et/Tq4nHJ1cU2AgQI1ILAnHnz4js/OCl+9svTYsmSpblrsgSF3HWZgCsh8Mn9TYVfCWd1VF5g1NCfHFxSAABAAElEQVT6OHCMr/7Ky6uRAAECBF5NIL0ybOKV18Qn/ud/47Irro70uY0AgeIKSJQtbt9qGQECpRFoa2+Pk372q/j1786I9LGNwIsCz8x6Nk741g/i5786LRYtWvziy+4JlFTgvgcejPseeKikZVa6sEsvuyLSWftsBAgQqAWB9Fe0K66+Nj6dzLh0x5135arJzlLlqrsEWwmBfbesj21H+mhUwlod1RH46D6N0WiIVwdfrQQIECDwqgILFy2KX/z6d/Gt7/8k0sc2AgSKKmCJh6L2rHYRILDmAsuWLY9vfe9HcU0yRbmNwKsJdEd3XH7VtXHscV+I62+46dV28RqBNRK44ML8zp7wYsMXLVkSE5PkdxsBAgRqSSCdTeGb3/1x/PLXp8fSpcty0XSnqHLRTYKslEBD8nvZx/dvrFR16iFQFYGRg+vjbTtYwqQq+ColQIAAgVUK3D55Shx3/NfiwYemr3I/bxIgQIAAAQIEiiSQXhH/9W99P+66Z1qRmqUtZRKYv2BB/Oinv+iZ1nnO3HllqkWxtSYw85lZcfNtdxSi2WPHXRqdXV2FaItGECBAoLcCaSLjhCuuis/kZFkoCQq97Vn71YTAwdvXxybr+ljURGfXeCM/tFdj9JOLU+OjQPMJECCQTYHZc+bEl77+rRh3yWXZDFBUBAj0WcASD32mcyABAgUWeG7+/PjKN74TDzz0cIFbqWnlELjl9snxqWQ2hYsvnWiptHIA11iZF150SXQV5KT+rNmz48abbqmxHtRcAgQIvCDwbPK7Wros1G9OPyva2zsyy+JMbGa7RmCVFmhJTtYevXdTpatVH4GqCKy3Tl0csYtZFKqCr1ICBAgQeE2B9o6OOO33Z8WPf3pKLFuWj6npXrNRdiBAIBGwxINhQIAAgZcKzHp2dnzpa9+Ox5548qUve0yg1wJLk7+Vf3P6mfHlE74dZlPoNZsdXyGwcOGinjXMX/Fyrp9eMHZ8ruMXPAECBNZEIJ1N4eJLL4uvnvjdmD9/wZoUVbZjJSiUjVbBeRM4YueGGNLfD2Z56zfx9l3gvbs1Rv+Wvh/vSAIECBAgUG6B6264OT7/xa/H4088Ve6qlE+AAAECBAgQqKjA0zNm9swaNXPWrIrWq7JiCtx73wPJUmlfjTvvuqeYDdSqsgqMn3B5LG9tLWsdlS78wYenx9Rp91e6WvURIEAgUwL3PfBgz+9qD09/JFNxpcFIUMhclwioGgID+0W8fw/z3VfDXp3VExjQry7es5tZFKrXA2omQIAAgd4IPJX8eH/8V74RU/zY2hsu+xDItIAlHjLdPYIjQKCCAvMXPB8nfudHMXfecxWsVVVFF3h+4cI48bs/inPPu8CSD0Xv7BK2r629vecq2xIWmZmiLhh7cWZiEQgBAgSqJTBn3rwkKfbbcc11N1QrhFetV4LCq7J4sdYEjtozvZLc7Am11u/aG3Hkzo0xeC0SBAgQIEAg2wLLli+Pb//gpLj51juyHajoCBB4DQH/5noNIG8TIFADAq3JVcrfSf6uSddItxEotUBXV1ecfe558e3vnxSLFi8udfHKK6DA1ddcH2nSVBG3226fHE89PbOITdMmAgQIrJZAa1tbnPzzU+PMP/010r8VsrBJUMhCL4ihqgLDBtbFYTuZPaGqnaDyqgms1Vxn9pCq6auYAAECBFZHIL2y54cn/Syuvf7G1TnMvgQIECBAgACBzAikPwiflPw4nE49biNQToHbJt8Znzv+a/HwI4+Wsxpl51ygu7s7/nXR+Jy3YuXhdyXtu7DA7Vt5y71DgACBFQW6ozv+eeFFPRcALVmydMUdKvyKBIUKg6suewIf3achmsxyn72OEVHFBN75usYY0t/VbBUDVxEBAgQI9Fmgo7MzTj7l1Ljs8qv6XIYDCRConoAlHqpnr2YCBLIhcMYfz4mbbrktG8GIovAC6SwdX/zqN2OCv50L39d9beBtd9wZTz49o6+H5+K4q669PhY8X8wZInLRAYIkQCBzArdPnhL/++UTYs7cuVWNTYJCVflVXm2BLYbWxZu3MXtCtftB/dUVaE4+Ah/aS5ZOdXtB7QQIECDQW4H0ysNf/ub3ceG4S3p7iP0IECBAgAABAlUXGHfJZfEvf79UvR9qLYB0FrJf/ub0+PmvTou2ZHpnG4GXClww9uKXPi3k43Ra84svmVjItmkUAQIE+irw1IyZ8c3v/iSqOZOCBIW+9p7jCiHwyf0bw1U8hehKjVhDgbdu3xgjBplFYQ0ZHU6AAAECFRJIp6X7/Zl/jr/9418VqlE1BAiURsDfm6VxVAoBAnkTuHvqtPjdGX/KW9jiLZDA5VddG8d/5cSYNevZArVKU9ZE4KHpj8TUe+9bkyJyc+z4CZdHa6sEndx0mEAJEKiIwONPPhk/+MnPoqOjoyL1vbISCQqvFPG8ZgR23qQudt/MVeM10+EaukqBxuS/Bkfv7fOwSiRvEiBAgECmBLqTaP7817/HpROvzFRcgiFAYOUCksNXbuMdAgSKK5BemfazX/4m0lmgbASqKfDIY4/H5790Qtx199RqhqHujAiksyek/6aqhe35hQvjiquvrYWmaiMBAgRWS2DKPVPjF78+fbWOKdXOEhRKJamcXAmkP4wde0BTrmIWLIFyC7wpWe5k4/Vc1VZuZ+UTIECAQGkFTjv9TD+ylpZUaQQIECBAgEAJBU77/Vkxe0511/gtYXMUlXOBhYsWxQnf+VGMHXdpzlsi/DUReHb2nJh0461rUkTujk2XCOzqrpWUjNx1j4AJEKiiwJXXXBdnn/uPikeQrDxuI1B7Am/cuj5GbyA/p/Z6XotXJVCf5CYcvVdD/PDS6kzps6rYvEeAAAECBFYm0NHZGT88+edxysk/jI02HLmy3bxOgEAGBOpCMmwGukEIBAhUUOCGm26Jq669voI1Zq+q5qam6N+/f/RfZ53k/t+3lz3uH/XJDxLLly+PZcuWv3C/vDWWJc+XJ8977pPH6UwUc+bOjfRvP9uaCXR1dcbvzvxTDBs2NPbec/c1K8zRuRQYe/GlyawutfVZmjHzmbjl1ttjn732yGWfCZoAAQLlFPjbeefHsA2GxsFvPrCc1bysbAkKL+PwpBYEmpNZ7D+2r9kTaqGvtXH1BV4/pjHOva0zHpsro3j19RxBgAABAtUSWLR4SXz7+yfFL376wxgwoH+1wlAvAQKvJSA/4bWEvE+AQIEEnpu/IE497Q8FatGqm9Lc1Byjttg0thq9ZYxJbluNHhUbDB0Szc3Nqz5wNd7tTJIT0tkonpn1bMx8ZlbPffr4mZ7Hs2N56/LVKK22d91j111irz12q22EGm394iVLYuIVV9dk6y8YO16CQk32vEYTIPBaAunZoF//9g8xavNNY8tRW7zW7iV5X4JCSRgVkieBw3ZqiOED/TKWpz4Ta+UEemZR2Lsxvntxe+UqVRMBAgQIECiBwIxnnonv/+Rn8aPvfiMaG/0zpwSkiiBAgAABAgTWQOAXp/42nk+m0y/iVl9fH5tstOELyQhbvZCMsPmmm5T9b7CGhoYYMXxYz22XnXZcgXbec/PjoYcfifvufzDue+DBeHj6I9HW7veNV0KlV0h++fjjoi5dA9dWcwKXXnZlLF22rObanTZ42v0PxAMPPhxbjxldk+3XaAIECKxKoL2jI0762a/i1FNOin4tLavatSTvNW4wwB8iJZFcSSHtnd2xPPk7eHkyY7oljlaCVMGXB/SLOGpPP1hXkFxVORTYb3RDbLlBR0yfbRaFNem+9L+uLcnXzVrJxSJrNdX9+z59njxOJnFJX2+00syaEL/qseuu7e+aV4XxIoEaEbjn3mlx6m/PiOM/9+kaabFmEsiXgBMh+eov0RIg0HeBq5K1fG+bPKXvBWT0yDQJ4aBk6t83vn7/GDRoYOaiXH+9dZMlC3bruaXBtSfJCQ9Pf7QnYWFakrBwf5K4sGDhwszFXcmAmhqb4htf+YJZxyqJnqG6OpKTT+PGT8hQRJUP5fyxF8eJX/1C5StWIwECBHIg8NSMmfH7M/4cn//ssWWPtvHcT5Y/C6LsrchBBelpvtaeRIV/Jyy0v/I+Yv7S7pi5oDtmJLf0ftbz3dHRlYPG5SjENDlhQD8nr3LUZUKtgkD6CfnIPo3xzbGuMugNf5r4tPG6dbHxenWxUXq/bn1slDzecHB9NCVLytgI5EVg1513igHJ2rC26gikPxS1tXf0/Iia/pCaXunV3pbckvtFixfH/AXPx/PPP2/N3V50z8Qrr45tkiti3nrQm3qxt10IECBAgAABAqUVaEv+hvvzX84rbaFVLC39N8IbDtgvDnrTG2L0lpWZ8rdUzW1qaopttxnTc3v3vwt9Ovnh/bY77owbbro1uZL6oeiqsSvKPvXxo3uW3yiVsXLyJXDt9TfG3Oeey1fQJY72pltu61keJp2NxUYgbwLvPvwdZr9ZRaelv6UtXbosuS2NJf++f+njtra2cEnmKgD//daEy6+M3XbdqexL4riU/LX7oiR7pCf8+iVXzPZLrqKNtdIi01dWvXUmyQmzF6UJC109CQsz53fHQ7O74v5nuqO9c9XHendFgRGD6uLwnQz5FWW8QmBFgb23aIith3fEA7P8J/uVOunMQ7tsUhc7b1IfO23SEOuv89rf568sw3MCWRTYf9+9Ir3ZsivQnfx4ujCZJnj+/OeThIUFyf2CmDHzmXjy6Rnx1FNP9zxOp2OzRfz+rHNil51f17PuMQ8CBAgQIECAQCUFxl0yIWbPnVvJKkteV7qEwy6v2yHe8qYDY++9do/m5ER/UbaNNhwZ6e3Iww6NufOei5tuvrUnWeHeZOr3rq5iXyl2YJJocujbDi5KV2pHHwQuuGh8H44q1iHp5/zCcZfE/xx7TLEapjU1IfCxo4+KdLkjW98E0ouDXpnAkF4Q9Ohjj8cjye3RRx+PefPn963wAh2VnhH6xa9PjzFbjY50dqpybc7Wlku2BOU2JFN/pyfVRwxKvnA2/W+BrcnvztNmdMZdT3XFlOT20LPdkSYz2FYt8PH9Gl3NvGoi7xJ4mcDRezfGCReaRaE+yT/YddP62GdU8gNNkpSwYTJDgo0AAQLVEEinRh80cGDPbbNNN14hhM7Ozp4rQZ5MkhWmP/JY3Dvt/njgoenJbAxtK+xb9BeWLlsav0z+MfXD736j6E3VPgK5EqjrRaJ+rhokWAIECLxCYPHiJXHe+WNf8Wq+nu61+27xqU98JGrh6uIh668X7zz0kJ5bmgB80y23J8kKt8TdU+9LkhWKdXXYJhtvFP+vAtM152u011a0k6fcHY89/kRtNXolrb38ymviwx94r6VOVuLjZQJFFWhsbIyBAwf03F7axgP22/s/T3sSFh59rCdh4ZGe+ydi5sxZyYxLtXUSNr1A6v9+8ev40XdPLNusHRIU/jPs8vMgXdN8l00bem5p1EvbumPq011x/cOdcd2DXbHchXMrdOY2I+ri9WNklq0A4wUCqxDYY/OG2GZER8+sLavYrbBvpQliB29Xn9waY2gya4KNAAECWRdIs+hfvCJsn7326Ak3XSLioYcfialJssK99yW35H55a2vWm1KS+CbfdXdMuPyqOMRSDyXxVAiBkgj4k6okjAohQCC7Auedf2HP8lzZjXDlkY0cPjw+/cmPxh677bLynQr8zrqDB8fb3/qWntvzzy+My664OsZPuDzm5Hw2jLTL1urXL0786heiX3Jvq12BC8ZeXLuNf0XL038Tp5/vD7z3yFe84ykBArUusO7gQbHrLjv13F60WLZ8eU+CVzrDQprsdcedd0UtzGA65e6pcc11N8Qb37D/ixQlvZegUFLO6hS2dnNd7JlMx57e/ucN3XHVA51x6dTOmD7b1Oxpj6S/gX369U2u1anO8FRrzgU+ksyi8LV/1dYsCjtuWBcf2qsxWcKhIckOzHkHCp8AgZoXSNfd3W7brXtuEUfE8uWtPWvuTkquDLs9WXu36MkKfzjr7NjVUg81/zkAQIAAAQIEKiEwZ+68GHfJZZWoqqR1tDS3xPvefXi8+8h3FmophzVBGjRo4AsmR7yjZ1aFceMn9CT75vGX1vRnjc8nMyekMyjYalfg0WTmhCl3Ta1dgFdp+cXJ9/W7k894+m9mGwECBFYlkCb6bbv1mJ5bulTSwoWL4robboqrr50UDzz4cHQn/yvqdtbZf430Iqh+/VpK3kQJCiUnrW6B67TUxTtf19hze+jZrvjHHR09syoU9+Px2t77j66P7Uaakv21pexBYEWB3TZrSD4/HTFtZvG/RbYZXhcf3bcxWc7BbCsrjgSvECBQFIH0HxTp1HXprTW5auS2O6bEdZNujFtuuyM6kiUiirYtXbYsWTfvd/HD73yjbFPSFc1MewiUU8ASD+XUVTYBAtUW+Mvf/hGtbflaWmufPXdPlnP4aAzbYGi1+TJZfzpD2f777tVzeyS5anLcJRPimutvjLYc9fOhhxwcBx6wXyZ9BVU5gX8lsycU+QRaXySfS5Z1SU8uHvyWN/blcMcQIFDDAukyEe9IEhXSW7r8w1XXXR/XJN8nM2c9WziVufOei3/+66L48FHvLXnbnLUtOWl2CtxqWH2c+Pbm+OX7m5Np2mvzMuCm5DzjJ/aXh5OdUSmSPAocncyiUORtQJL89+WDG+PUo1okJxS5o7WNAIEVBFpaWnp+bD3xa1+MP/7+1/HeIw+LAf37r7Bf3l+486574rJkqQcbAQIZEKjNf5ZmAF4IBAiUWyBdEuDqa28odzUlK7+luTmZ8v+L8a0Tviw5oZeqo7bYLI7/3GfinDNPi499+AOx/nrr9fLI6u02ZvSoOPbjR1cvADVnQiA9uXTdpJsyEUvWgvjXReOju7v4F2VlzV08BIokMHLk8PjwB94bZ51+avz8pO/HoW89KAYW7Le18y8cF7PnzC15t0lQKDlp9grcNpk94FcfaImvv60xBtTYUmOH79wQIwcb5tkblSLKk0A6o8D2ybIHRdx236w+zvhoSxy8XbGTMIrYd9pEgEBpBYYOWT+O+cgH45yzfhuf+8wnY+ONNixtBVUu7ayzz40lS5dWOQrVEyBAgAABAkUVuPyqa5K1iPOxPGL/ddaJH333xNhvnz2L2h1lbdeggenyD0fEWb/7VZKocFSknlnc0pMjJ3zlC6avz2LnVDimi5IlSmphrfS+sD7x1NNx++QpfTnUMQQIEFhBIF0G4rjPfCL++uffx3Gf/kRhLgJKZwg7689/WaG9a/qCM7drKpiT49NTi2/aujFO+2BLjN6gmCcaX9kVg9aK+NCeTjq+0sVzAn0R+EgBZ1F4z64N8cMjmmP9dWrjO7Ev/e4YAgRqT6BfMqvC29/6ljj91J/F/x736Vhv3XULgbBo8eJIr46xESBQXQFLPFTXX+0ECJRHIL36dsLEfMzWNCS56v//fvzd2G7brcuDUUOltrQ0J4kKh8cfkysm33XYodGcoXXs6+vq4kvHH2d2jBoajytr6rJkybsJE69c2dteTwQuGOvfiQYCAQKlFWhqbIxDDzkozjjtF3Hwm98Y6X+X875dN+nmmHb/gyVthgSFknJmv7ARg+qSJR9aYp9Rxe/6j+7TGOu05P+Dn/1RJcJaENh5k4bYoWCzKOyWzJ5Q7yuiFoavNhIg0AeB+vr6eGuyFueZv/1lHPXed0VLc7IeTs63Cy+6NBYuWpTzVgifQM4F/O2V8w4UPgECryYw5e6pyZrDs17trUy9ttGGI+NnydTDm226SabiynswAwb0j08ec3Sckfzd/OYDX5/8zlD931zTGR722G2XvNOKvwQCl11xdSxesqQEJRW3iHum3hvTH3m0uA3UMgIEqiYwaNDAZHmoT/f8/bXlFptXLY5SVNwd3XH2X/5eiqL+U0b1/2L6TygeVEqgOZlU4JuHNsfOmxT316HN1q+Lt+1g9oRKjSn11IbAhws2i8JfbumojY7TSgIECKyBwFpr9YujP/i+5AfXX8R+e+d7GuCly5bG+f8atwYaDiVAgAABAgQIrChwyWVXrPhixl4ZM3rL+NlPvueK+jL2ywZDh8SX/vez8ZtfnBx77LpLVOtX15123C4+fNR7y9hSRedFoLOzM8aOuzQv4VYtzu6kZrMoVI1fxQRqQmCbMVvFr3724/jspz6e2aWhetMR99w7LR4uYUKXBIXeqBdwn6aGiA0GVOtP5fKDfvr1jdFgdJcfWg01JbBLMovC9gWaRWHqjO64+6nOmupDjSVAgEBfBYYOWT9O/NoX4/hk2Ye1+vXrazFVP27cJZfF/AULqh6HAAjUqoAlHmq157WbQHEF5j03P2697Y5MN3CrLUfFT37wrRg0cGCm4yxKcJtvtkl871tfix9975sxYtgGFW3W+skSHl/74v9GOhuajcCkG2+JZ+fMAdELgUk33hyz58ztxZ52IUCAQN8E0v82v+NtB/dcAHTQm94QdTlc9iFN6PpXCZfF8ddK38ZS7o+64/HOmDitK/fteLUG7Ll5fey2WZKBYSNAoOQCR+9VrJlJzKJQ8iGiQAIECi5wcLLsw69POSnSH7rzuC1vbY3zzh+bx9DFTKAYAsXNkS9G/2gFAQKrLXDl1ddGR3KVcla3fi0t8ZUvfC7XCaZZtX2tuHZ+3Q7x21/9X7zz7W+tyNrTjQ0N8fUv/28MHjzotULzfo0IXDD24sy1tF9Lv1h38ODMxZV+j4+92GwTmesYAREooMDgQYPiC5//n/jBt0/I5d9naULXnBIldElQKOAAf60mLW3rjlOuKObU5o3JiE5nT7ARIFAegV02bYjtRhbnl+UpT3XHtJnFTNYqzwhQKgECBCI2HDkifn7SD+LIww7NJcelyTTMc+bOy2XsgiZAgAABAgSyJXDrbZOzFdArovnExz4cG2048hWvelopgX7JzGP/c+wxcdIPvx0jRwwva7Uf/fBRsf22W5e1DoXnR+CeqaWdhrtULU+vGk6TdrK4XXb5VbFkydIshiYmAgQKKLDrzq/rSVJYZ+21c9W6NKHrovETShKzBIWSMOarkDMmdcSzi9LJOIq3HbFzQ2y8nmFdvJ7VoiwJHL13sZKAzKKQpdElFgIE8iLQ2NgQxx5zdHz6Ex+tyBVhpXRpa2+P8y8cV8oilUWAQC8F8jiNZS+bZjcCBGpQYNHixfHA/2fvLODjqtI2/mQkVk2bpm2auru7uyvuCyy++AeUBRbZRRbYhXVnYWGRhWrapk5Lhbq7e2rRxpOZ+c6ZUmhLmsxM7syce+5z+F0yc+fI8/7P7cg973nf/QeUtbxH1y4YN3qEsvqsJKx92zb4y+/eweQJY8V3Z+PvW/bp2QPXTTKn87CVroNQ2qpi9AQZ3nzShDEYO2o4oiKjQonDp7Hy8vORsnCxT3VZiQRIgASMINBWOBa+8dqLqFK5shHdhayPFOHQlZeXX+HxjP9GVGFJ7CCYBLadcCF5q7qh5ypie5xwNLpds/DzFeHBtiQQLAJdRRSFNhpFUVh/xI29pxlFIVjXC/slARLQm8Ck8WPw7NOPwekwl/Pa0mUrIB0VWEiABEiABEiABEggUAKbt2yH263mb8lqVaviyUcfDNQ0tgsCgSiRbuOBe+/CO2++iqRE46JaJNapg6cff9iUuayDgJldCgLHjp/Auo2blWPRu0c3bySRqlWrYNiQgcrpk4JmJaegpETPyNNKAqcoEiABtGzeDG/96heQ393MUnLz8rBwydcVlksHhQojNE8HheKz9TcLS6Bn7ATgnn4OVIrSJ/S8ea4sKrUigTs1cwb6ZC1/fFjxOqbNJEACxhAY1L8vXvvF84iNiTGmwxD0Inc8frtmXQhG4hAkQAKXE+Cvtctp8DEJkIDZCWzcvEVJE+R77eOP3I+4OPXyvCsJLMSi2rZuiT//7m2MHzMKFf1cjIqMxAvPPYVKlcwVHjrEyC033PRZc+HxqLcCcHmKwMkikoItoqL/Aoyf2nNpaVi+crXxHbNHEiABEiiDQNPGjfD266+gRlxcGbXUeunr5SsrLIgOChVGaJ4OPlxVjJOZ6n05MYJgi9oRGNXWXDv3jLCbfZBAuAh0a2RH6zrq/ZAIlMeag24cPKfmzpdAbWI7EiABEgglgc4d2+PFqU/DYTfP97GFi5eFEhHHIgESkAQUvBHNiSEBEiCBQAls3LQ10KZBbdevTy/06dUjqGOw84oRiBSOBY88cA+eeuxhRDojA+7sofvvQdMmjQJuz4b6EcjIzMTSZd8oZ1irFs0hQ5lfKkn1EtG9W5dLT5X6O33mHKX0UAwJkIA1CDRskIR33ngFteJrmsLgffsP4vSZsxXSSgeFCuEzT+PdqW5M26Rnage5RPrIYCfvdZnncqRSTQjc3ts8i1DlIZeuW/9dwygK5XHi6yRAAiRQFoEunTrgsUfuEzvBzOHAtnnrdpw9d74sk/gaCZAACZAACZAACZRK4MjRYzifnl7qa+E+OW7MyHBL4Pg+Ehg+dBDeFSkfAlmMGD5kEEYNH+LjSKxmFQLJcxcomcru8ugJl+aitHOXXgvn34OHj2Dzlm3hlMCxSYAELEqgXmJd4aTwKmrWUD+SgkfE6l+x6tsKzRQdFCqEzxyNZWqHtxcUw61n8AQMa21D20Reyua4GqlSJwI9G9sho5foUlYccONIGqMo6DKftIMESCA8BEYMHYxbb7ouPIP7Oarb48bipcv9bMXqJEACFSGgzzfHilBgWxIgAR0IbNysZvSEunVqo0O7NjogtowNLZo3xR9+8xbat/V93po0aoifPfhTyzCiob4RKCwsxJyUhb5VDmGt2gm10LdPzx+N2LF9WzRr0vhH51U4MY1RFFSYBmogAUsSqFM7AQ+LCElmKN+spIOCGeYprBo/WFmM4+l6eidUElHQ7hvgDCtfDk4CViZwey+NoiiIt8lP1zKKgpWvZ9pOAiRgDIE7br0Rgwf2M6azIPeyaMkyJfOzBtlsdk8C4SNAD4XwsefIJEAChhLYf/Cgof0Z1Zl0Fo1gOh2jcIasn+rVq+HNX76ECWNHlRuLrFJsLF547ilERQWeGiJkhnGgkBJYKH7bZF+4ENIxfRls0vgxsNtK31w4eeJYX7oIeR3phCYj5bCQAAmQQDgI9O3dE726dw3H0H6NeeDgIZxKPe1Xm8srl/7JcHkNPjY1gW0nXJi+Wc/UDnJi7urjQI1KvMtl6ouU4k1NoHdTO5rV0uff4LK9bpzIYBQFU1+UFE8CJKAEgUcfvA+1a9VSQktZIlLPnMG2HbvKqsLXSIAEDCWgz/dGQ7GwMxIgAdMROHb8lHKabWIBcPiQgcrpoiDfCDjsdu+OyaceexiRztKdD2QqtScffRAyBDQLCVxOwO12Y8asuZefUuKxdKgZWUYqkoH9+iC+Rg0ltF4uQoYuZxSFy4nwMQmQQKgJPPzAvYiJjg71sH6NJ7fFVyTNAx0U/MJtrsr5RR68s6BE7Aozl25f1TaOj8DETvrs3vbVbtYjAZUIyFvMt2kURUGmwmEUBZWuMGohARIwK4HY2Bg8+dhDptjBt+yblWbFTN0kQAIkQAIkQAJhICAXAk+cUM9BoWunjoiPrxkGIhzSSALDhw7Cu2++ilqlzOWkCWPQr08vI4djX5oQWL1mPU6dDnwXa7AwjB45DLExMdfs3uFwYLyIHKJikb8T09IzVJRGTSRAAhYgkFArHrffcqPylsrPn0ALHRQCJWeCdn/7phipWXp6J8hF0ceGOER4KBNMBCWSgOYE+jWzQzoM6VKW7HFr+96pyxzRDhIgAXMQ6NShHcaPGam82M1btiuvkQJJQBcC+nxj1GVGaAcJkEAgBE6fOYui4qJAmga1zcjhg4PaPzsPHYEWzZviD795C+3btvl+0DatWuLen9z+/XM+IIHLCUyfmXz5UyUey6ggE8eNLlfLmFHDEB2l3i7h4pISzJ6TUq5+ViABEiCBYBGYNH40mjZuFKzuDen34KHDKCgsDKgvLu8GhE39RuuPuDB3m75hyoe2tqF9kl39iaBCErAAAZne8rae+kQzcYm3zs/WFVtg5mgiCZAACQSfwD133YbEOnWCP1AFRjh99ixST5+pQA9sSgIk4DMB5kX3GRUrkgAJqEvg2PETyomziffXHt3Uz1WsHDiFBVWvXg1v/vIlTBC7y6tXq4qfP/sE5IIvCwlcTWDX7r3YtXff1afD/rx/396lRgK5WliVypUhI4eoWObOX4T8/AIVpVETCZCABQjYxef+Yw/fD5nGS9VS4nJh774DAclT16qAzGEjSSCn0IPfLBSpHTTFUUmkYbt/gFNT62gWCZiTwIAWdjSooc+euEU73Th7Qdd3UXNeY1RNAiRgTgLRUVG487ablBe/ZdsO5TVSIAnoQECfb4s6zAZtIAESCJSAig4KcXFxiIzkvbJA51TVdtIh4eH778Fffvcu4msyfYeq8xRuXdMUjJ4gv/NNmTTOZzSTx4+BLUK9paqc3FwsWLzUZztYkQRIgASMJtCyRTOMGz3C6G4N7U86ygVS1HvXD8QKtrmCwO+WFON8jr4La/f0c6BGJd7aumLS+YQEwkzAJv5J3tpTH0/+YhFF4Yv1JWGmyuFJgARIQA8CA/v3QeOGDZQ2ZsvWbUrrozgS0IYAf8ZpM5U0hASsTEBFBwWZp5hFXwJxcdX1NY6WVYjAqdTT+Hbthgr1EYzG7du1QfOmTXzuOjGxDnr2UDMKzMzZ8+ByixuFLCRAAiQQJgJ33X6zSIUTFabRyx921+495VcqpQYdFEqBYuZTi3aV4GuRP13X0rJOBMZ31CeUvK7zRLusSWBwSwcSq+tz1zlluwtpGjt7WfMqpdUkQALhIBAhQg7fceuN4Rja5zG3btsJj0dfB1+fQbAiCQSdgD7fFYOOigOQAAkoSyA1Vb3UULUT6KCg7AVDYSQQRALTZ82F26PeWsCUieP9tnrKRN8jLvjdeQUayJSAq1avqUAPbEoCJEACFSNQKTYW3bp0qlgnQWy9e+/+gO6p0UEhiJMS6q5Tszz4w1J9d/zaxb2sJ4Y5RbinUJPleCRAAr4QsItPlFt76BNFocgF/G+Dvu+pvswp65AACZCAUQR69+zu1w4ao8b1tZ/M7GwcPnLU1+qsRwIkECAB/pQLEBybkQAJKEUgNy9PKT1STEKtWsppoiASIIHgEsjOvoDFS5cFd5AAek+ql4ie3bv43bJ929Zo0ayp3+1C0WDazDmhGIZjkAAJkMA1CfTr0+uar4X7BZkO5+ix437LoIOC38jUbOASjpJvzitCXpGa+oxQNbGzHc0TeMkawZJ9kECwCAxr40Dtqvrcep67zYWMPO6oDdb1wn5JgASsQ0BGUbjxuolKG7xl2w6l9VEcCWhBQJ+viVpMB40gARIIjEBefn5gDYPYKiGBDgpBxMuuSUBJAnNSFqKgsFA5bZMnjIX8/RdIkW1VLHv3H8D2nbtUlEZNJEACFiHQQzh+RTqdylq7b/9Bv7VxtddvZGo2+HhNMXal6ruIFl85Aj/pw9QOal59VEUCPxBwiE+Vm7vrE0WhQARQ+Gojoyj8MMN8RAIkQAKBE+jVoxuqVK4ceAdBbinTPLCQAAkEm0BgN6uDrYr9kwAJkIA/BPLyFHRQqMUUD/7MIeuSgNkJFBUVI3nufOXMqFa1KoYNHhiwrgH9eqNWfM2A2wez4bQZjKIQTL7smwRIoGwCsTEx6NK5Y9mVwvhq6mn/U6DRQSGME2bU0DtOuvHpWhGLXOPyyGAHYiN5M0vjKaZpGhEY1c4B6VSkS5m9xYXsfH0dwHSZJ9pBAiSgPgGn8PQeNKCfskKPHD2mrDYKIwFdCOjzDVGXGaEdJEACgRDIyy8IpFlQ28QruqAXVKPZOQlYmMCSZd8gIytLOQJjRw9HVFRkwLrsdjsmjB0dcPtgNly3YSOOnzgZzCHYNwmQAAmUSaBfn55lvh7OF0+fPev38HRQ8BuZWg1yCz14M6UYbo3Xzvo0taF/c312ZKt1BVENCRhPwCn+ud7YTZ9/s/nFwLRNjKJg/JXCHkmABKxIYNiQAcqafe78eRQqGCJVWWAURgKBEKCHQiDU2IYESEAhAjKcutut3iahkmLxw5WFBEjAEgQ8Hg+mz1JvN78MPT5+zKgKz8HokUMREx1d4X6M7sDt5T7X6G7ZHwmQAAn4TKBX925wOtSMNH/mzDmf7bhUkQ4Kl0iY9O97i4txJltf74RKUcBjQ9XNq2LSy4aySSDoBMZ2cCAuNujDhGyAmSKKQo5wCGMhARIgARKoGIGWzZuhYf2kinUSpNbyhtPJU6lB6p3dkgAJXCRADwVeCSRAAuYmkK9gegdJNPtCjrnBUj0JkIDPBNZt2KTkTv7BA/sjrno1n+24VsXKlSph5LDB13o5rOdl5IpMBSNXhBUKBycBEggZgcqVK6FTh3YhG8+fgU6fYQQFf3iZvu7srSVYttdtejvKMuC+/nqFii/LVr5GAjoRiBKOfNd31SeKQm4hMGsLoyjodI3SFhIggfAR6N2ze/gGL2fkEydPlVODL5MACVSEAN0TKkKPbUmABFQgkJefr4KMH2m4QAeFHzHhCRLQlcC0mcnKmRaBCEyZONYwXRPHj4HNpt7e2qKiIiTPXWCYneyIBEiABPwl0K9PL3+bhKR+RkYmCsV7pD9FvXd5f9RbuO6+M278ZZnei2UdkiIgd2GzkAAJmJPAhI4OVFUvIlvAMGdscqFQ77fdgNmwIQmQAAn4Q6BD+7b+VA9p3eMn6KAQUuAczHoE6KFgvTmnxSSgGYESl3rpHSTiCzmMoKDZpUZzSKBUAvv2H8T2HbtKfS2cJ7t16YiGDeobJqFundroo6hj+5yUhSI1oH+LcIaBYUckQAKWJ9Clc0clGXjggb9pHuigoORUli1Khhn/5ZxiFKv5m6hs8T6+Gin8Ep4a7hS+lywkQAJmJRATGYHJXfSJopApNsqkbKeHglmvR+omARJQh0Cb1i2VzZnHCArqXCdUoisB/sLTdWZpFwlYhYCKedEle0ZQsMoVSDutTmDazNliCUi9MmXiOMNFTQ5Cn0aIzMrOxqKly4zoin2QAAmQgN8EatSIUzLCjDTk/PnzftlDBwW/cIW/svwC8vb8YqRmqfhVxDg+d/ayIymOl6dxRNkTCYSHwOTODlSKDM/YwRj1y40uuPTOrBMMbOyTBEiABK4gEB0VhRbNm15xTpUndFBQZSaoQ1cCdE/QdWZpFwlYh4CyDgqMoGCdi5CWWpbAmbPnsGL1OuXsb9KoITp36mC4rrbCsb1Vi+aG92tEhzNmzYXbo/f6jBGc2AcJkIDxBOwi/U31qlWN79iAHv2NLsMVYAOgh7KLrzYUY/VBvVfHmidE4IZuzlBi5VgkQAJBIlA5KgITO+kTReFMtgdL9zCKQpAuF3ZLAiRgIQId2qmZ5kE6KHh4o8lCVyJNJQESIAESIAH/CERHq5nHkBEU/JtH1iYBMxKYOVssirvVC6kcjOgJl+Zn8sSxlx4q9fdkairWrF2vlCaKIQESsA6BOBFFQcVSVFzslyw6KPiFK7yVd55y418r1fsSYiQVp1jHfHaUE3ZemUZiZV8kEFYC13V1IFojn6PP17vE4lVYkXJwEiABEjA9gZYtmilpQ35BATIzs5TURlEkoAWBCMZQ0GIeaQQJWJiA0+mAwyHykipWjh0/oZgiyiEBEjCSQE5uLuYv+trILg3pq6ZYJBs0oK8hfZXWSb/ePVG7Vq3SXgr7uWkzk8OugQJIgASsSaBGXHUlDS+mg4KS81JhUZl5HvxqTjFK9A6egDtEaofG8fROqPAFww5IQCEC1WIiMK69PlEUjqZ58O0hvZ3FFLp8KIUESEBTAvUS6yprmbz5x0ICJBAcAnRPCA5X9koCJBBaAiqmeTh46DCysrJDC4KjkQAJhIzAvPmLkV+QH7LxfB1owthRQXXastvtmDhutK9yQlpv5+692L13X0jH5GAkQAIkIAnQQYHXQcgIlIh1sFeTi3AuR+8tuy3rROCm7hptsw7ZFcKBSEB9Ajd0cyBSHx8FfLaOaR7Uv+qokARIQGUCdWonwCby5qlY8vLUu/GnIidqIoGACNBDISBsbEQCJKAWARUdFGQu9E1btqkFimpIgAQMIVBSUoLZc1IM6cvITqKjojFm1HAjuyy1r1EjhiA2JqbU18J9ctrMOeGWwPFJgAQsSKBGHFM8WHDaw2PyH74uwvaTejsnyIVLpnYIz/XFUUkgFARqVo7AyHb6eCjsTvVgy3FGUQjFtcMxSIAE9CTgdDqREB+vpHF5+XRQUHJiKEoLAhGgh4IWE0kjSMDiBKJjopUksHHzViV1URQJkEDFCCz7ZhXOp6dXrJMgtB4xdBCqVK4chJ6v7DI2Nhajhg+58qQiz1avWYfU02cUUUMZJEACViHACApWmekw2zl7SwnmbtM8r4NgfFcfOxrWUHMXXZgvAQ5PAtoQuLm7yNWp0T/zT9cyioI2FycNIQESCAuBxLp1wjJueYMygkJ5hPg6CZAACZAACVibgKo7eWUEBY+IpMBCAiSgF4FpM5OVM0hGw5s0YUzIdE0cP0ZE4FNv45Pb7caMWXNDxoEDkQAJkIAkEKdoBIXiYv/WSzRaKtLvwtwqduf+eZl/E2pGCm0SI3BDN6Z2MOPcUTMJ+EOgdtUIDG2tz8fOpmMe7D2tvwOZP3PMuiRAAiTgD4G6ijoo5DOCgj/TyLok4B8BBlDwjxdrkwAJKEmgdoKaUaDSMzJw+OgxJZlRFAmQQGAEZGQUFf9d9+7RDaF0OK+dUAv9evcIDGKQWy1c8jUuXMgJ8ijsngRIgAR+IFCjRvUfnij0yOFw+KVGn5Uiv8xWv/LpLA9em1OMEs3XvmIigamjnLDxRpX6FyUVkoABBG7p4dDq3/tn6/R3IjNg2tkFCZAACZRKoErlSqWeD/dJpngI9wxwfJ0JMMWDzrNL20jAOgSS6tVT1tgNGzcrq43CSIAE/CegYvQEacWUSeP8N6aCLaZMDP2YvkguKCzEnJSFvlRlHRIgARIwhEDVKlUN6cfoTqKjxIKvH4UOCn7AClXV/GLgF7OKkGWB9LePDHIgsTovw1BdWxyHBMJNICnOhoEt9Pk3v+qgG0fTNfckC/dFw/FJgAS0JRAdHaWkbUzxoOS0UBQJkAAJkAAJKEMgqV5dZbRcLWTG7LnIzc27+jSfkwAJmJDAocNHsXnLduWUt2rRHG1btwq5rlYtm6NNq5YhH9eXAZPnzkdxsVjUYSEBEiCBEBC4kHMhBKP4P0RUlH/3+fRZJfKflZIt3CJV3K9TinDovP454/o1s2FUO/9Cfig5aRRFAiTgF4FbezqgS9AUmd7zc0ZR8Gv+WZkESIAELhGIjo6+9FCpv4ygoNR0UIxuBHT5EqjbvNAeEiABvwjUq5foV/1QVs7IzMInn38ZyiE5FgmQQJAITJ+VDI/4T7USzkgGUyaOVQ2HV096ZiaWLluhpDaKIgES0I9AWlqGkkbRQUHJafFd1F+WFWPlAf1349asFIGnhjt9B8OaJEAC2hBoHG9D76b6+Md9vceN09nq/WDU5oKhISRAAtoSUNVBIT+/QFvmNIwEwk2A/gnhngGOTwIkYASBpMREpZ3u5U7eo8eOG2Eq+yABEggTgfNp6Vi2YnWYRr/2sHUSEtC3T89rVwjyK3169UCd2glBHiWw7qfPmgOP3MnEQgIkQAJBJpCWnh7kEQLrPoopHgIDp0KrL9YXY8ZmlwpSgqpB3pR6ZqQDVWN4eyqooNk5CShM4DYRRUGXUiJ8yv63vkQXc2gHCZAACYSMgKopHpwOe8gYcCASsB4B/ga03pzTYhLQj0BsbAzi4uKUNazE5cJf/vGhsvoojARIoHwCs5LnoaREvXtNE8ePht0Wvk1HNjH2pHFjygcYhhpHj5/A+o2bwzAyhyQBErAagbR0RlCw2pwH1d4lu0vwzxX6OydIiJM629GtEW/8BvWCYuckoDiBlnVs6NowfD9ojMYzf4cL6bn0kjaaK/sjARLQm0BUZKSSBsaIRQcWEiCBIBGgf0KQwLJbEiCBUBNIqlc31EP6Nd6WbduxcvUav9qwMgmQgBoEZMq5lIVL1BBzmYpKsbEYOXzIZWfC83Dk8MGQWlQs02bOVlEWNZEACWhGIE1E2VGxREdF+SVLn9Uhv8xWq/KmYy68u6BEwYxSxnNqlhCB+wcwtYPxZNkjCZiPwG099XFUKhL+ZV9tVM+z3XxXBRWTAAlYiUBhYZGS5sbGqHmzS0lYFEUCfhKgf4KfwFidBEhAWQINkpKU1XZJ2D8++BgFBUxddYkH/5KAWQgsWLgUObm5yskdPXIYYmPC78wdIzSMHjFUOT5S0Lbtu3Dg4CEltVEUCZCAPgTS0tOUNCYurrpfuuig4Bcu4ysfPOfGq7OLUSxChOteYsUmuRfHOuHUZ01S9ymjfSQQVAIdkuxoX0+f29TJW124UMAoCkG9aNg5CZCAVgTkziAViwzbzEICJBAsAvp89wsWIfZLAiRgDgLt27dRXuiZc+fw0mtvIT+fTgrKTxYFksB3BFwiRctMkd5BteKw2zFx3GhlZEktUpNqRd4VnDZzjmqyqIcESEAzAmlpmcpZJFPwxNes4ZcuOij4hcvYymeyPfj59GLkqrl5zFhjRW+PD3UgKY6XnOFg2SEJmJjArT0dJlZ/pfT8YmDGZkZRuJIKn5EACZDAtQnkq+qgoMCuoGtT4yskYHIC9E8w+QRSPgmQwCUCnTu0hy1C/Xtc23fuwguv/Aq5eXmXpPMvCZCAwgRWrFoD6VykWunftzdqxddURlatWvHo16enMnouF7Ji1bc4e+785af4mARIgAQMJZCWrl6KhxpxcXA4/FvrUf+btKHTpk5nMlf51GlFSLNIzvJR7WwY2tq/i1Od2aISEiCBYBHo3siOFrX1uVM9Y7ML+UWMohCs64X9kgAJ6EUgL48RFPSaUVpDAuUT0OdbX/m2sgYJkIDeBKpWrYKmTRqZwshde/bh+Zd+iQs5OabQS5EkYGUC02YmK2e+/P42ZdI45XRNmTheOU1SUImiUTCUhEVRJEACfhOQm31UjEiaIBzH/C10UPCXmAH1M/M8eOarIhzPsMYiVsOaEfjZYJHfgYUESIAESiFwm0ZRFC6IyJmztzKKQinTzFMkQAIk8CMCykZQYIqHH80VT5CAcQToomAcS/ZEAiQQbgJdOnUItwSfx9934CCmvvgasrKzfW7DiiRAAqElsHX7Tuw/eCi0g/owWvt2bdG8aRMfaoa2SovmTdGuTevQDurjaPMXLkFuLiPX+IiL1UiABPwgcD5NvegJUn5Cgv9Rduig4MfEG1E1K/+ic8LRNGs4J0SJoAkvjnUi2mkEPfZBAiSgI4E+Te1oHK/PzeqvNrpQSB8FHS9V2kQCJGAwgfSMDIN7NKa72JhYYzpiLyRAAj8moM9Xvh/bxjMkQAKWI9DZRA4KcnIOHj6C5154FRmZWZabKxpMAmYgoGL0BMltykT1oidcms8pE8deeqjUX7m7OWXBYqU0UQwJkIAeBLbv2KWkIbVrJfitiw4KfiMLvEF2gQfPisgJh89bwzlBknpimEMsPPIyC/yqYUsS0J9AhLhRfWsPuzaGZggH6ZTt9FDQZkJpCAmQQNAIHD9xKmh9V6TjWEZQqAg+tiWBMgnQP6FMPHyRBEjAZATatm6J6KgoU6k+cuw4nnn+ZezZt99UuimWBHQncOz4CazfuFk5M5PqJaJn9y7K6bokqFePbkisU+fSU6X+zpyTgpISl1KaKIYESMD8BJavXKWkEbUTavmtiyvHfiMLrEFOoQfPCeeEg+es45wwoaMdw9uIEAosJEACJFAOgYEtHUiK0+eW9RcbXCLnXDlG82USIAESsDABt9uNEycVdVCIibHwzNB0Egg2AX2+7wWbFPsnARJQn4DT6US7tmqGFy+L3olTp/DUsy/hT3/9F0OQlwWKr5FACAlMnzUHHo966wZTJoxFhNxZpGix2WyYNGGMkurOp6Vh+Qo1FxKVBEZRJEAC5RJIz8jE9p17yq0XjgpNmjTye1g6KPiNzP8GucI5Yeq0Iuw/q96XDP+t8a1F67oReGgQ8zr4Rou1SIAEbOK3zs3d9YmicO6CBwt3MYoCr2wSIAESuBaBM2fPobCo6Fovh+28LcIGRlAIG34ObAUC6t7ftgJ92kgCJBAEAkMG9g9Cr8Hv0u1xIzllAe575EmxgLY6+ANyBBIggWsSyMjMxNJlK675erheqFa1KoYOGRiu4X0ed8TQQahSuZLP9UNZcZpwPGEhARIgAaMIrFy9BnLDj2rFYXegSeNGfsuig4LfyPxrcEGkdZg6vQh7TlvHOaG6SNv7i/GRcOqz1ujfpLM2CZBAQASGiYgrtavqc9f68/UuuNT7vhDQ3LARCZAACRhNQIYwVbHUqZMAu51fYlWcG2rSg4A+3/T0mA9aQQIkUHEC/fv2QrUqVSreUZh6SM/IwJvvvo8XX30DqafPhEkFhyUBaxOYPXc+ioqLlYMwbvQIREVGKqfrakHR0dEYPWLY1aeVeH7o8BFs3rJNCS0UQQIkYH4C36xU06m0UcP6iBSRxfwtdFDwl5gf9c/nePDkF0XYnWod5wS7uOP04lgnalXmrSc/LhVWJQESEAQc4hPpJo2iKJzK9ODrvYyiwIubBEiABEojcPjI0dJOh/1cwwb1w66BAkhAbwL8naj3/NI6ErAeAZnmYfjQQaY3fMOmLXjw0afxxVczRM50/o41/YTSANMQKCgsxNyURcrplQtN48aMVE7XtQRNGDcacgevimXazGQVZVETCZCAyQicP5+GXbv3Kqm6RfOmAemig0JA2MpvdCzDjcc+K8KRNOs4J0gq9/a3o1N97jor/wphDRIggdIIjGrrQM1K+ty4/nStC25rfQyUNq08RwIkQAI/IrBJ0V0kjeig8KO54gkSMJKAwimMjTSTfZEACViMwOiRw5TO0e7rdMj0W//++DM88sRzWLl6rYgIyJCAvrJjPRIIlMCiJcuQfeFCoM2D1k6mr4mrXi1o/RvdcXzNGhjQr7fR3RrS38bN23Dk6DFD+mInJEAC1iWwYpVI7+BRc6GhRfNmAU0MHRQCwlZ2o92pbjz5eRHOihzkVirDWttwYzf/w3hYiRFtJQESKJtApHB2vqGbPk5Ox9I9WLHfVbbRfJUESIAELEYgLz9feH3vU9JqRlBQclooigRIgARIgASUJlAvsS46dWintEZ/xB09fhy/+vVvcPf9P8P/ps1ScvHUH3tYlwRUJSDziM+YNVc5eRGIwOSJY5XTVZ6gKRPHCeXqFQ88mDZzjnrCqIgESMBUBJYrmt5BQmzRrElALOmgEBC2azdaf8SFZ74qQlb+tevo+ErruhF4aoT6Oal0ZE+bSEA3AuM6OFAtRh+r/rumRPwUYSEBEiABErhEYOu2HShxqRk6mA4Kl2aJf0kgWARUvG0cLFvZLwmQgJUIjBk5XDtzz547jw/+81/ccc9DeP+Pf8Whw0e1s5EGkUA4Caxesx6nTp8Op4RSx+7WpSPM+LuoWdPGaN+ubak2hfvksm9WIi09I9wyOD4JkIBJCZw5ew579x1QUn3lSpUC/sygg4KBU7pkdwlemlmMgmIDOzVBV7WqRODVCZGI1GfTswmoUyIJ6EsgWgRimdJFnzeUQ+c9WH2AURT0vWJpGQmQgL8ENmza6m+TkNR32O1IqpcYkrE4CAlYlQBTPFh15mk3CehPoHfP7kiIj9fSUJn6Yf6ipSL1wzN45ueviPQPa+By8TeulpNNo0JKYNrM5JCO5+tgUyaN97WqcvWmKBr5obikBLPmpCjHi4JIgATMQeCr6bPFBkg1t0BKjiYJiAAAQABJREFUpza7uJ8WSKGDQiDUrmojL4tP1xbjrZQSlFgsPVu0CMf+2kQnamiUM/6q6eVTEiCBMBCY1MmBSlFhGDhIQ34ioiiwkAAJkAAJADKM6foNm5REkVi3DpxO8eWWhQRIgARIgARIgAT8JOBw2PGTO27xs5W5qsv7n9t37hLpH34r0j88KtI/zER29gVzGUG1JKAIgV2792L3XvXS3jVp1BCdO7ZXhJL/Mnp274okkXZHxTJv/iLk5xeoKI2aSIAEFCYgPyvmivcPVYt83w200EEhUHLftcsv8uC15CJ8sMqlqP9KBQ0so7kMzvnsKCeaJ/AyKgMTXyIBEgiAQKWoCEzqFJjnXQDDBb3J/rMerD3MHSZBB80BSIAElCewYdMWnD1/XkmdZgxjqiRIiiKBMgkwxUOZePgiCZCAqQkMHthP5OBtamobfBUvv8998J9Pcce9D+Gtd9/HNyIvcl6+xfLd+gqL9UigFALKRk+YOK4UteY5FSHCdU2aMFZJwTm5uViweKmS2iiKBEhATQIlJS78/k9/h9uj5s54m82Obl06BwyPK8sBowNOZrjx6GdFWLFfzYujAqb51PSuPnYMaKHPAqJPRrMSCZBAyAhM6eJAjEj3oEthFAVdZpJ2kAAJVITA3BR1vb7poFCRmWVbEvCRAP0TfATFaiRAAmYkIBfG7r/nTljprU6mf1i2YjXeeOd93HzHT/HSq28iZcFiZGRkmnEKqZkEQkLg1KnT+HbthpCM5c8gNWvEYdCAvv40UbLu8CEDUbVKFSW1zZw9T6TIseZakpITQlEkoDiBaTNn4/DRY8qqbNuqBapUqRywPjooBIhO7oR95NMiHElTM+9HgGb53Gx0Oxtu76XRyqHPlrMiCZBAqAhUi4nAuA76OEHtTvVgw1FGUQjV9cNxSIAE1CNw5uw5rN+0WT1h3ylq3KiBstoojAR0IWClRTtd5ox2kAAJ+EegXdvW6NO7p3+NNKldVFzs/a73uz//Hbfd/QCeeu5FfClyJp88maqJhTSDBIwhMH32XCV3w04YOxoOh/lT3kVFRWHMyGHGTJbBvZw+exYrv11jcK/sjgRIQEcCp1JP49MvpiltWo8KpHeQhtFBwc/p9Qh/hE/WFOOlmcXIKfSzsSbVezSy4YlhkZpYQzNIgARUJnBDNwcizf/b6HvEH39b8v1jPiABEiABqxGQu+ncbjV3i8iwdB3at7XalNBeEiABEiABEiCBIBC4967b4NRgka8iaNziBuquPfvwr48+wb0PP477f/YUPvz4M+zdfwAeeXOVhQQsSiA7+wIWL12mnPUx0dEYM0rNRf1AYE0YO0rZ9+FpM5IDMYltSIAELEbgD3/5B2SkKlWL3HzQu2e3Csmjg4If+HIKPXgluQgfrnYJL0c/GmpUtXlCBF4a54SdV45Gs0pTSEBdAjUqRWB0O32iKOw85cGmY4yioO4VR2UkQALBIpCbm+cN9xus/ivarzcsXeXAw9JVdHy2JwHLEBDhz1lIgARIQHcCiXXrYNL4Mbqb6Zd9x46fwOdfzcDj//dz3HHvQ/jTX/+FjZu3oqDQoru//KLHyjoRmJOyQMnrfvjQQaii0e+hGiJdxcD+aqar2HfgILbv2KXTZU1bSIAEDCaw+Ovl2Lx1u8G9Gttd29atkFQvsUKdarQvtUIcym28UYTlfndBCc7lWNQzQRCqUzUCr0+OREwkbyqVe8GwAgmQgGEEbhRRFOZuc6FEzU23ftspoyh0aaCP04XfANiABEjAkgTkDemsCxeUtb1H9y7KaqMwEtCJAH9J6jSbtIUESKAsAnfedpP3xvKBQ4fLqmbJ186npSNZLNLKw2F3oHmzxmjXpjVkegx5s7ty5UqW5EKj9SdQVFSM5LkLlDPUZrNp6VQ1ZeJYLBGLfCqu5kybmYz27doody1QEAmQQPgJyEg7//jg4/ALKUfBaANS6dBBoRzIBcXAP1YUY/YWl5IfZuXIN+zlqtHAG9c5IXczs5AACZBAKAnUFs5Rw9vYkLJDDw+F7Sc92HLchU716aQQyuuIY5EACYSPwJmz5zAreV74BPgwco9uXX2oxSokQAIkQAIkQAIk4BsBp9OJ5595Ao8+NRV5+fm+NbJgrRJXCXbv3e89vpwxGzYRaadRwwbfOSy08v6VO6FZSEAHAkuWfYOMrCzlTOndoxtk5BfdSpPGjdCxQ3ts2abeLuR1Gzbh+ImTqJ9UTzfstIcESKACBGRkqTfefg9Z2dkV6CX4TWXEnf59e1V4IDoolIFwV6obv04pxslMFf3syhBu8EsxTuBXkyLRII55HQxGy+5IgAR8JHBzDwcW7iyCS5O3YxlFgQ4KPk4+q5EACZiegMw3XFQsvH4VLXVqJ6BhgyRF1VEWCehFIIIpHvSaUFpDAiRQJoF6iXXx6EP34de//X2Z9fjiDwTcHg8OHTnqPWbPmw+5TaquWDht/12EBRlloW6d2j804CMSMAkBj7i2p8+ao6TaKZPGK6nLCFEyioKKDgryvW76rLl4/JH7jTCTfZAACWhAIL+gAC+/9ha27VQ/BczQQf0RGRlZYep0UCgFYYlID/6fb4vx+XoX3JoshpVipk+nIsUG31cnOtEmkc4JPgFjJRIggaAQqFfdhkGtbFiyW48oCltPeLD1hAsdkxhFISgXDDslARJQhsDuPfuwbMUqZfSUJqQnoyeUhoXnSIAESIAESIAEDCAweGA/7+LYgsVfG9Cb9bqQt2VPpZ72HguWXGRYs0YNkQ6i1fdOCw0b1Acd4Kx3bZjN4nXrL+6YV013qxbNRWqVlqrJMkxP966dvVEKZLQC1cqSr7/BXSIdUPXq1VSTRj0kQAIhJiCjbb306pvYuXtPiEf2fzjpPGpEegc5Mh0UruK/57Qb7y0qxsFzFvdMEFzswifhxXFO5kq/6hrhUxIggfAQuLWnA0v3FEE4GWtR/iOiKPzmBjooaDGZNIIESKBUAvniB9Y77/9RvG+r/cbdo3uXUvXzJAmQAAmQAAmQAAkYQeCh++/xpjA4dvyEEd1Zvo+09HQsX7Hae0gYMsywXGBt26aVOFqjebMmcDp4y9vyF4piAKbNTFZM0UU5UyaOU1KXUaKk89LkCWPx+z//3aguDeunqLgIyfMW4I5bbzSsT3ZEAiRgPgK5eXl48ZU3xHfFfaYQL6NZSedQIwq/rX1H8XyOB/9aWYzFu9xQ+xaqEdNefh824Qbz7EgH+jTl4ln5tFiDBEggFAQa1rChfzMbvtmvSRSF4yKKwnERRaE+32dDcf1wDBIggdAT+NPfPvDudgv9yL6PGBMdjQ7t2vjegDVJgAQqRIA7XCuEj41JgARMSiA6Kgq/eP7/8MzzLyuZf96kWL+XfSEnB2vWb/Qe8mSUCDnconkztPM6LLRC61YtUCk29vv6fEACoSawb/9BbFcwZHedhAT07dMz1DhCPt6wwQPw0SefK5nTfU7KAtx43UREic8JFhIgAesRyMnNxQsvv469+w+Yxvhbb7reMK2Wd1AoKgG+3CjSOaxzIV/d1LiGTbgvHckQHY8NcWBoa8tfHr7gYh0SIIEQEpBRFFbsF1EUQjhmMIf6SERR+C0dFIKJmH2TAAmEicCyb1Zi8dfLwzS678N27tQBTqfT9wasSQIkQAIkQAIkQAIBEEiql4jXX30Bz77wKuTNaJbgESgsKvIuBl9aELbZbGjcsIE3wkI7EWGhU8d2qFqlSvAEsGcSuIrAtJmzlbyPNXH8aBFBWf+0zjJP+tjRw/HpF9OumpnwP83KvoBFS5dj3OgR4RdDBSRAAiElcOFCDn7+8q+w/+ChkI5bkcHai+gJnTu2r0gXV7TV/xPoCnOvfLJ8nwt3f1iIf6+ic8LlZO4bYMe4jnROuJwJH5MACahBoFmCDT2b6PPRte2EB1tEFAUWEiABEtCJQOrpM/jDX/5pCpPkbhoWEiABEiABEiABEggFgSaNG+G1X0yFjODEEjoCbrcbBw8fwey58/HGO+/h5jvvwxPPvICPP/0fdu3eC5dLjyiNoSPKkfwhcObsOaxYvc6fJiGpWzm2EkYNHxKSsVQYZPyYkYhU1DF9xqy5kO9TLCRAAtYhkJWVjakvvWYq5wQ5O3fcepOhk6TPKo8fWPaeduPJLwrxyznFOJOtyz5cPwCUUfV+4ZxwYzfuIisDEV8iARIIM4HbRRQFncpHq0UoHxYSIAES0IRAZmaWN3eezKGneqlTOwG9enRTXSb1kYBWBJjiQavppDEkQAIBEGjTqiVeEukeVF0oC8Ak0zWRC4F79u3Hf7/4Ck9NfQk33XEvfvXr32L+wiU4e+686eyhYLUJzJwtF5/V25gyauRQxMTEqA3PQHVx1atj0IB+BvZoXFcnU1OxZt0G4zpkTyRAAkoTWLp8BR549Gmv86TSQq8S16lDW8NTpOq1ynMVsKufbjrmwhfrXdh4lB5pV7ORaR0eHOTAdV0sdUlcjYHPSYAETECgVV0buja0afNevv2kB5vF51PnBnYT0KdEEiABErg2gbz8fLz02puQN1jMUCaMHQ0Z8peFBEiABEiABEiABEJJoItIMTX1/x4Xi+LvKblwGUoWKowlU26sXL3Ge8j7o/WTktC9ayf07d0TrVu1AJ3rVJglc2qQ19b8RV8rJ95ht2PiuNHK6Qq2oCkTx2LRkmUi3YZ6G1anzUxGn149go2A/ZMACYSRgIw2+se//hMbN28No4rAhpbfj+649ebAGpfRSvvVaLf4vPlGpHL434YS7Duj3odPGXMTspfkxfXIYAcmddb+cggZUw5EAiQQXAK393IIB4Wi4A4Swt4/+raEDgoh5M2hSIAEjCdQXFyM19542zTh6WLFbqGRwwcbD4I9kgAJkAAJkAAJkIAPBORC1AvPPoF33vsjCgoLfWjBKqEgIO8cHztxwntMmzUH8TVqoG+fnujXpxfatm5J59ZQTIJGY8ybvwj5BfnKWdS/b2/Uiq+pnK5gC2rUsAGkg9jGLeotDu4U6WZ2792H1i1bBBsD+ycBEggxAZfLheniO8Unn32FwiJzfufr3bO793uQ0ei0XZEuEhGzF+wswZcbXTiVSceEa1040jnh0aEOTOio7aVwLdN5ngRIwMQE2tezoWNSBLae0OP9fYeIorDhiAvdGjGKgokvS0onAcsSkM4Jb737O2zZttM0DIYPHYRKsbGm0UuhJKALAe5C1WUmaQcJkIARBOQO/Vrx8Xjl9V8jPSPTiC7Zh8EEzqenY9acFO9RI646+vaSzgo90b5dGzorGMxat+5KSkrEdTNfObPkWsB1k8YppytUgiaLKAoqOihI+6fNSMaLU58OFQqOQwIkEAICe/cdwO/+9DccOnI0BKMFZwi5weeh++8JSufarUofT3dj8W4X5m13IUP91LdBmVRfO40Q30ieEM4JYztodxn4ioD1SIAETExARlHY+lWxiS24UvqHq0vooHAlEj4jARIwAYGcnFwROeEdbNu5ywRqL0q0RdgsGdLUNBNEoSRAAiRAAiRgIQItmjfF+++8gZd/+RYOHz1mIcvNZ6p0IklOWeA9qler5k0BMXzoQLRq0dx8xlBx0Aks+2YV0oSDi2qlfbu2aNa0iWqyQqana+eOaNigPo4eOx6yMX0daPXa9UhNPYO6dWv72oT1SIAEFCUgU6B+9MnnSJ63QKTzciuq0jdZd91+c9Ci7miRdDUt14OvNpbg4f8W4u4Pi/DftXROKO/ScoiZf340nRPK48TXSYAE1CXQuYEdbROl77ceZc9pD9YcculhDK0gARKwBIEzZ8/hqakvmco5QU5Mj26dkVi3jiXmiEaSAAmQAAmQAAmoTyChVjx+8+tfonuXzuqLpUIvgcysLMydvxBPPPMCHnz0/zBz9jxkX7hAOiTwPYFpM5O/f6zSAytHT5DzIKN5TZkwVqUp+V6LXMScMXvu98/5gARIwHwE0tIz8PmXM3D/I096oy+Z3TmhZfNmGD9mZNAmwrQOCrlFHm8Kh2e/KsQtfy/EX5eXYN8ZPUJ9B222v+s4xgn8apITQ1oxckKwWbN/EiCB4BKQURR0Kh+JKAr8JNNpRmkLCehL4MDBw3jy2Rdx7PgJ0xk5afwY02mmYBLQhQBTPOgyk7SDBEjAaAIyfO4rLz2HiWNHQR83fKMpqdnfkWPH8Nd/fYjb734Qb77zHjZv2QaPh7/s1Zyt0KjauHmrkhFR6tdLFM7aXUIDQeFRBg/qjzgRBUXFsnDJ13R2UnFiqIkEyiDgcrmwZt0GkbLrbdxx78P48JPPcD5NvQg6ZZhQ6ksOux2PP3J/UFNamWZlR36tO3LeLfKNu7HlmBvrj7hRWFIqN54sg0C1GOD1yZFoVce0villWMeXSIAErEageyM7WtYpwV4RfUCHsv+sB6v2u9CvuV0Hc2gDCZCAhgTkzdbkuQvwr48+QWFRkeksbNakMTp1bG863RRMAiRAAiRAAiSgPwG7zebN8duxQ3v8XuQrzszO1t9ojSwsKi7G8pXfeo86CQkYMWwwRo8Yiri46hpZSVN8IaBq9ITJInIAnUWBSKcT48aMwMeffenLdIa0TkFhIeamLMItN04J6bgcjARIwH8CqafPYMGipVi0dLmSKX38t+jKFtdNGo8mjRtdedLgZ8o6KFzukLD1uBvbhGNCVr7B1lusu4QqEXjreicaxNE5wWJTT3NJQGsCMorCSzOLtbHxo29L0LeZXfxo1MYkGkICJKAJAZl397e//zM2bNpiSosixH7EB356lym1UzQJkAAJkAAJkIB1CPTp1R2tWzXH+3/8G9au32gdwzWy9PTZs/jPp1+IMM/TMWzwQFw3eTzqJdbVyEKaci0Chw4fFVE0tl/r5bCdr1a1KoYOGRi28VUbeOzokfhi2iwUKeh0P3vufFwv3jOcwpGChQRIQC0CxcIZcdW36zB/0WJs3b5L24hJbVu1xB233RR0+Eo4KMhICCcz3TiZ4cGJDLc3VQMdEoyd+4Y1hXPClEjUEk4KLCRAAiRgdgJu4cUmPzsKiz1oXNOGutUikJolXdvMXw6f9+CLDcW4uTt/iJh/NmkBCehD4Nu16703ybNMvJNv0IC+aN+2jT6TQktIwIQEuGvPhJNGySRAAmEhEFe9Ol598TmkLFiMv3/wH+QXFIRFBwetGAEZVWHewsViIWMppOPJDVMmomWLZhXrlK2VJiCjJ3gUTN45bvQIREVGKs0ulOKqVxMOGyLVQ8rCJaEc1qexMjIzsXTZCowcPsSn+qxEAiQQPAL5+QXYf/AQ9u47gH37DwinhB0iDUtO8AZUoOfqIgXO888+CZniIdglqA4KcqmoUGxqzRcLSPlF8gDO5wgnhEzpiOARDglu8Rc4J84xNVfwprprQxteGudE5Sg6JwSPMnsmARK4FgHpSJAnPgPyCsUhPge8j6/6Kz8fLr1W4HU8AApKPN7PEK8jgjhXID5PCr87V+S61mh6nP/nChci7RGY0iWoH9N6wKIVJEACQSVwKvU0/vXhJ1i9Zp2Ct9l8Nz0mOho//cntvjdgTRIgARIgARIgARJQgMDokcPQsUM7vPveH7Fr7z4FFFFCIATcHjdWfrtW7Lpciw7t2uL6KRPQrUsnhtsPBKbCbWTO8eUrViunUKY0GD9mpHK6wi1IpryQzkMyjaFqZdqsOd40MXTuVW1mqEdnAi6XC4ePHMNe4YggnRGkU8KxEyfhdrt1NvsK22wi3dhzTz+G+Jo1rjgfrCeOp/9XaEjfcjerXDzKl4dYaJJOCfK5PM8SPgITOtrxyGAn7MzqEL5J4MgkoAGBXOFgcEGk2bkgnAxyCsRjsXnj8sc54rz3nHgtR3ysyMfyXJ547OLnQEBXwF+WlaBIwGMkhYDwsREJkEAFCeTk5uKzL6ZBhpcsLhFeYiYvt950HWqG6AeWyVFRPgkElQBd5oOKl52TAAloSiCxbh28+9ZrWLj4a3z0yefIyMrS1FL9zZK3R7bu2Ok9mjZuhLvvvNXrqKC/5dawcFbyPJS41PvtNERECqhevZo1JsEPKxvUT0K3zp2wftNmP1qFpuqx4yewfuNm9OjWJTQDchTTEFgioms4HHbIhWS7OOTfy48rzolFwUuvXXG+Am3M7DQjU7rk5ORC3u+69Dcr+wIOHTosnBIO4qD4W6hg2pdQXpy333wDOndsH7IhHVtPcOUoZLRDOJDYeIuHBjkwqTN334YQO4ciAVMQkO/60skgM08cwukgK9+DLO9j8Vc8l+fl34vnLr5erHnEAhUnTs6TjKRwVKR8eHJ4JCL5dq7iNFETCWhHQIahnS/CXP738y8hf6jpUJLqJULujmEhARJQgEAEXRQUmAVKIAESMCEBucAwasRQDOjXG5/+bzrkQqgOTqQmnArDJB88fAQvvvoGunTq4I301aRxI8P6ZkehJ5CXny9SsqiXLiACEeK30LjQAzHJiFMmjlXSQUHimzZzNh0UTHIdhVLmb3//51AO96OxbBE/OD187/xwmSPE9+eucoK4dN4m6pbmLHHluYjvHStsIs3Ala/9MP4V56UG8Vszv6BQOB/kXOGEkPudU4K838VybQI9unbBLTdOuXaFILzC5Y4gQA13l5WigBfHOtG9UfBzhITbVo5PAiTwAwGXiDYknQvScz1IE4f8e/HAZc/hPUeHgx+4qf5o0W43jqYX4tlRTjSqyXA4qs8X9ZGAWQlkZWVjTspCzJm3QLtdeQ/99CdihwF/9pj12qRuEiABEiABEiCBHwjExsZ6F7PHiNQP//jgP1izboOp03D9YJl1H23asg0/e3Iqhg0egDtvvzlkYZWtSzw4lksn75y83OB0XoFeZSqRhg2SKtCD3k07Cwehxg0b4vDRo8oZum37Luw/eAjNmzZRThsFWZeATFnklosQ3Myo1UXQqkVz/PzZJ0Keeop36rS6jIDE6hH45SQnGtbgIpZmU0tzLE5Afu5Lp4NzFy4eZy+4xWN8//xczkXnBKbV0fNC2XfGg4c+KcLtPe24qYcTDr7F6znRtIoEwkBAho6cMXsuloowgTqGsuvTszu6iptyLCRAAiRAAiRAAiSgEwGZ9uHlF57FZrG4/Y9/f4xDR9RbXNOJd7BtkQs+C5cuwzervvVG/rrhuomIjYkJ9rDs3yACMm/5zOQUg3oztpspkxg9oTyiMorCb8K8K700jTKyqoyiMPXpJ0p7medIgARIwBACDevXxy9/8Tyio6MN6c+fTuig4A8txev2aWrz7rCtHMWwmYpPFeWRwI8IFIkUdaeF08HpTA9OZ3mQmu3BWXFIh4SzwhFBRkKg88GPsFnqhIx68e/VLizY6cbtve0Y1tohQldZCgGNJQESMIhAZmYWVqxeg+UrVmHn7r3wePRM+Va5UiU8IKInsJAACahDwMw5S9WhSCUkQAIk8AMBufv3T++/LSIpbMTnX04XOZQP/PAiH5mOQEFhIT4T87hw8dd49OH70KtHN9PZYEXBK1atwdlz55QzvUmjhiHNJa4cAB8FDRrQF//++FOkZ2T62CJ01VauWouzd55HQq340A3KkUiABCxDoHZCLbz+6guoUqVyWGymg0JYsBs7qF0sUN3dT+yq7e4UWaVYSIAEVCQgnQuks0FqlnBCkA4I4jgtHBDk49NZFx0Q9FweUnE2zK3plLhm3p5fgs/WujC+o3RUsKNqDN/9zT2rVE8CwSeQI3LurVqzVjglrMaWbTvhdusdj08ugj79+COQP7ZYSIAESIAESIAESEBnAvJ7T++e3byHjKjw2ZczsG3HTp1N1t62tIwMvPr62xg8sD8euu/usC0caA/aIAOnzUw2qCdju5kykdETfCHqdDoxfsxIfPTfL3ypHtI6JTI6x+x5uP/eO0M6LgcjARLQn0D1atXwxqsvhjW1FB0UTH6d1agUgRfGOtAxyW5ySyifBMxPQDoYpOV4cDLDjRMiEsLJDHGIvyfE31Txt0jvtSDzT6DJLDgurqs/LyvBP1aUoFcTG7o3sqFrQztqV6WzgsmmknJJICgECsXuq10iOsLW7Tu9x/4DByFvblil3DB5gvcmvVXspZ0kYBYC/JZilpmiThIgAbMSkBEV5CG/B8qICus3boFH/MdiPgJy1pYuXyGci3fg0Yd+Kr7bdjefERZQLH9v7T94SDlLa9aoARkZgMU3AmNHjRDvmTNF2sNC3xqEsNb8RUtw283Xo1Kl2BCOyqFIgAR0JiCdE15/5QXUS6wbVjPpoBBW/BUbvGOSdE6IhHRSYCEBEggdgUKRjuF4uhtH09w4lu4Rjy86IkhnhILi0OngSCQgCcjUDyv2u70HUII6wkGhYc2LR91qEagUBcRGRiBSfOKXiLr54hrVLZr7gBZ2prvgPwdLE3C73Ug9fQZHjh7DwUNHsH3HLuzZtx/FJeIDy4KlY7u2uOuOWyxoOU0mARMQELt8WUiABEiABIJPoE3rlnhN5BM+dPgo5qQsxNfLVyK/ID/4A3MEwwmki2gKr73xDqMpGE7WmA5VjZ4wYewoOBxc+vF1lqtWrYJhQwZi7vyFvjYJWb28/HzMW7AYN0yZELIxORAJkIC+BOrUTlDCOUES5qeUCa8zmXP8lh523NnbCbvNhAZQMgmYhEBuoQdHhfPBse8cEY6micfi+RmRmkGmbGAhARUJeFOHiGt07WEV1QVHU0oz4aDAQELBgctelSFQIpwNMjIzkZaegXRxXHRIOO51Sjh2/ITY6VGkjNZwCqkZF4epzzwuviPzS3I454FjkwAJkAAJkAAJqEGgSeOGeOzh+3Df3beL3fgrMW/+Ihw8fEQNcVThM4HLoym88NxTaCscUFjCT0D+Dlu/cXP4hVylICY6GmNGDbvqLJ+WR2DS+DFIWbBI3PNV76bvrDkpmDxhDJ1OyptEvk4CJFAmgSaNG+FXLz+PGuLemQqFDgoqzIIfGuRu2KmjnWibyJuufmBjVRIok4DcVX5MREQ4fN6NQ+c8OHTeIx57cF6ka2AhARIgAasQ2LBpCw4fOWoVc5Wx0y083oqEc0FRcfHFv0XFKC4Wz8VfuVMiPSPT65CQnZ2t5I0SZUAKIQ67Hc8/8wTiqldXSRa1kAAJXEaA8RMug8GHJEACJBBCAjExMRg7arj32LN3v9glvAjfrFxNJ9cQzoERQ8loClNffBUP3X8PxozkArQRTCvSx/RZc0SESvXuHQ4fOghVKleuiGmWbFs/KRHdu3bB2g0blbP/fFoalq9YjaGDByinjYJIgATMQaCDiDb68gvPoFKsOuli6KBgjmvHq3J0OxseHuREjAjVzUICJBAYAel0cEg4Ihw+J5wRhBOCdEiQKRpK3IH1x1YkQAIkoAuBlavXYP6ipbqYQzssSODuO29Fu7atLWg5TSYBExHgT1kTTRalkgAJ6EqgVcvmkMcD996Jr79ZheXi2Llnr5ILrbrOQUXskmncfv/nv3tTuz1030+4o7oiMCvQNkM4ki9dtqICPQSnqU1EkpssIgGwBEZgysSxSjooSGtkOhE6KAQ2r2xFAlYn0L9PLzzz1KOIdDqVQkEHBaWmo3Qx1WOAp0Y40acp41eXTohnSaB0AjLU/YEzbuw/K44zHu/fjLzS6/IsCZAACZAACZCAeQkMGtAH100ab14DqJwELEOAHgqWmWoaSgIkoDyBymKH9fgxI73HuXPnsVxEVFgmdugePHgI6u0JVx5nyAXOnb8QR48dwwvPPS0iiFUL+fhWH3D23PneKHiqcejdoxvq1q2jmizT6OnYoR2aNm6kZCqcQyLi5aYt29ClUwfT8KRQEiCB8BKQkUZ/cset4n7ZOEREqPdbnA4K4b0+yh29d1MbnhruRFysehdPueJZgQRCSOBUphv7vnNC2C+cEg6c9SC7IIQCOBQJkAAJkAAJkEBYCPTt1QPPPPFoWMbmoCRAAv4R4K9a/3ixNgmQAAmEikCtWvG4fvIE73Hi5ClvKPFlK1bh+ImToZLAcQIgsGPXHjz21FS88tJz3kXVALpgkwAIFBQWetOkBNA06E2m0Gm7woynTByHd97/Y4X7CUYHMooCHRSCQZZ9koB+BOJr1vSmQW3buqWyxtFBQdGpqVkpAo8MdmBAC0ZNUHSKKCuMBLILPNh72o3dqW7sOX3xcVZ+GAVxaBIgARIgARIggbAQ6Nmtq/cHl114hbOQAAmYgAA9FEwwSZRIAiRgdQJJ9RJx283Xe4/DR45h7foN4tiEvfsOwO1hfkzVro9zIjf91BdfwxuvvYjmTZuoJk9LPYsWL0P2hQvK2daqRXOovBClHLBrCBrYvw8++M+nSEtPv0aN8J3etHkb5Pty40YNwieCI5MACShPoGvnjnj2yUdRrVpVpbXSQUGx6bGJGzbjOthxbz8HKkXx7o1i00M5YSBQIn77HhApGvYIZ4TdwilhT6oHpzI9DDcYhrngkCRAAiRAAiSgEgH5g+vFqU8x765Kk0ItJFAuAf7GLRcRK5AACZCAQgTkIpg8br5hCjKzsrB+w2bhrLDRG2Y8L587RVSZqgs5Ofj5S7/E68JJoUWzpqrI0lKH2+3GjNlzlbRtigjhzVJxAg6HAxPGjsS/P/6s4p0Z3IO8Iz59VjKefvwRg3tmdyRAAjoQkCkdbr3petxy4xQlUzpczZgOClcTCePzxvEReFKkc2hT1xZGFRyaBMJLIKfQg52n3Nh50o0d4u9eESGhsCS8mjg6CZAACZAACZCAWgQ6dWiLl3/+DJxOp1rCqIYESKBMAnRPKBMPXyQBEiABpQlUr1YNw4cO8h7FJSXYvmOX11lhw6YtOHUqlRtJwjx7F3Jz8fNf/Aqvv/oCWjZvFmY1+g6/es16nDp9WjkD6yQkoF/vnsrpMqugMSOH47P/TYdM56FaWfbNKpFT/hbUrFFDNWnUQwIkEEYC8rP/8UceQJPGDcOowr+h6aDgH6+g1I4W91Vv72nH9d2ccNA3ISiM2am6BFKzhEPCSZfXGWHnKQ+OpAlfUI+6eqmMBEiABEiABEggvATat2mNV16YisjIyPAK4egkQAL+E6CHgv/M2IIESIAEFCTgFDuMZR70S7nQz51Pw5Zt27F12w7xdwfOp6kXGl1BjIZLyrnMSUGG+2cxnsC0mcnGd2pAj5PGj4HNxoUFA1B6u6hSpbJwxhqM5HnzjerSsH6kg9isOfNxz523GtYnOyIBEjAvgZjoaNx1+80i8sso030O0EEhjNedTOcwvI0Nd/d1Ir4y79SEcSo4dAgJnMp0Y+sJcRyXfz04d4HeCCHEz6FIgARIgARIwNQE2rRqidd+MRXR0VGmtoPiScC6BPi717pzT8tJgAR0JlArviaGDxHRFcQhy/ETp4Szwnavs8K27TuRLVIQsISGQG5eHl54+XW88+araNLIPLsoQ0OnYqPs2r0Xu/fuq1gnQWhduVIljBw+OAg9W7vLSeNHY27KQrg9Iv+wYmXe/EW4RaTeiYmJVkwZ5ZAACYSSQM9uXfHIg/cioVZ8KIc1bCw6KBiG0r+OOtePwAMDnWiWQM9G/8ixttkI0CHBbDNGvSRAAiRAAiSgJoFB/fvgycceRhQjJ6g5QVRFAj4QoHuCD5BYhQRIgAQ0IFA/KRHyGDdmJNxuES3z6FHsFIu7coFXHmfOndPASnVNkE4Kr73xDn7/7puoWrWKukJNpuwrRaMnjB4xVCxUx5iMpvpy6yXWRc/uXfHtuvXKiZXRUhYsWopJE8Yop42CSIAEgk8gqV4ifnL7LejXx9ypfeigEPxr5YoRGtSIwH0DHOjdxH7FeT4hAV0IZOR5sOmoC5uOucXBCAm6zCvtIAESIAESIIFwEbBFRODO227GzTdMDpcEjksCJGAUAXooGEWS/ZAACZCAaQjYRAjZJo0beY/xwmFBlvNpaV5HhUtOCwcPHxWODC7va/yfMQROnzmLN975LV5/5UXY7bwPXVGqJ0+lYs3aDRXtxvD2DjG3E8aNNrxfdniRwJSJY5V0UJDqZiTPxXgR0t1u5wZYXq8kYBUCteLjcdvN14uIVQO1+Gyng0KIrlyZwuHWHnaM7eAAPzNCBJ3DhIRAQTGw/aQLG49IhwQ3Dp/3gEkbQoKeg5AACZAACZCA9gRixU6gZ558FL17dtPeVhpIAtYgQA8Fa8wzrSQBEiCBsgnE16yJAf36eA9Zs6CgAHv2HcCOnbuxXRx7RBj9wqKisjvhq+US2LJtJ/7x74/x4E9/Um5dViibwIzZ85QM9d+/X2/IFCsswSHQvl0bNG/aBPsPHgrOABXo9czZc1i5eg0GikiDLCRAAnoTqF61Km4Sm3bGjh6BSKdTG2PpoBDkqaxVJQI3d7djdHsHIumsGmTa7D4UBKTzwaFzbqw77MKGo27sOuVBMZ3cQ4GeY5AACZAACZCApQjUrV0bL7/wLBo1rG8pu81lLN1SzTVf4VerqnsCd5aG/9qgAhIgAWsTiI6ORqcO7byHJFFSUoJ9+w8KZ4VdXocFmRYiLz/f2pACtH5W8jw0bdJI7LYcFGAPbJadfQGLlixTDoT8XnXdxHHK6dJN0BTB+Ne//b2SZk0TaUfooKDk1FAUCRhCIK56NYwfMwqTRToXHVP50EHBkMvkx53UrhqBW0TEhJFtHXDSMeHHgHjGVARyCz3YKJwR1h1xYf1hD9JyeTPaVBNIsSRAAiRAAiRgMgId27fBC88+zZy5is9bcbEIpcVCAv4QUNRDITIy0h8rWJcESIAESCDIBBwOB9q0buk9brp+MlxuNw4eOnwxwsKOXdi5aw+yc3KCrEKP7uUdvD/8+R9o2vhimg09rAqtFckpC0REj8LQDurDaB3atUUzsbufJbgEZJSKDz76L86J1DSqlX0HhCOXeE+UkR5YSIAE9CEgI7dMHD8aA0W0KadGEROuniE6KFxNpILP61a76JgwQjgmOJj+p4I02TycBGSUhLUiSsJ6kbphp4iS4HKHUw3HJgESIAESIAESsAIBW4QNk8SPsHt/crsW+fSMmrMIkbtZxVJYRAcFFedFZU0ej5qOzlFRdFBQ+bqhNhIgARKw22xo0ayp95C7meXnyZGjx70RFi6lhcjIzCSoaxAoEk6l7//xb3j/nddhEyxZfCdQJFKNJM9d4HuDENacMonRE0KB22G3Y8K4UfiXcFJQscgoCnRQUHFmqIkE/CMg32v69O6JSeNGex00/Wttztp0UDBo3jomRWBSZwf6NLPDrub9Q4MsZTe6EigRaRq2nnDh24NufHvIjTPZat481JU/7SIBEiABEiABqxOoV7cunnzsIbRr08rqKH5kf5Siu7vlDVsWEvCHQJGiTi1RkVH+mMG6JEACJEACYSYQERGBxo0aeI8JY0d51Zw4ecqbDmLrtu1Yv3ELcvPywqxSreHlTutZc1JEmOixaglTXM2SZSuQmZWlnMr69RLRo1sX5XTpKmj0yGH49ItpyC8oUM7EdRs24fiJk6ifVE85bRREAiRQPgH5b3dQ/74YOWww4uNrlt9Aoxp0UKjAZEYJekNa2TBZOCY0qUXv0wqgZNMwEbhQ4ME6ESVBOiXISAm5vMccppngsCRAAiRAAiRgXQJyF9ek8WNw1203g7uYS78OZJhjm80Ot1t4lCpUVF1sVggRpVxFQMW0IDaxyBUZ6bxKKZ+SAAmQAAmYjUCSWLCVx+gRQ1FSUoIt23Zg9Zr1WLN2PdIZXcE7nf/57xfo06sHaifUMtv0hkWvjNQxfeacsIxd3qCTJ4yDdNRhCQ2BypUqYYRYPJROPqoVt7xOZ83B4488oJo06iEBErgGAfk5LNM3DBrQF00aN7pGLf1P00EhgDlOqBKBCZ1sGNPOgaox/CIQAEI2CSOB8zkerNzvwsoDLmw/ydQNYZwKDk0CJEACJEAClicgd/7IqAltWrW0PIvyAESLEPR5+fnlVQvp64ygEFLcWgym4jUTqWiEEi0mnEaQAAmQQJgISOfObl06eY9HH/opdu/ZJ5wV1nkdFk6dPh0mVeEfVu7+/tNf/4nXfvF8+MWYQMHa9WJn+smTyimtVrUqhg4ZoJwu3QVJp/rkeQuE07h6eZCXfL3C6/BfvXo13aeB9pGAaQnUEtERpJOgjJbQqmVzOpmJmaSDgo+Xs4yW0LeZDcPb2NGlgUjjwIAJPpJjNRUInMp0ex0SVux3Y0+qB0zeoMKsUAMJkAAJkAAJWJeAjJog8wffeeuNYucyc7/7ciVERUUp6KBQ6It01iGB7wmoGHVD/ttiIQESIAES0JeA3GXepnVL7/HTu+/A4SPHvnNWWIdDh49Y7h7Zuo2bsXzFagzs30ffSTfIsmkzkw3qydhuxo0eAVVTwBlrqVq91a1TG717dMeqNWvVEibUFBUXYbZwnpC/r1lIgATUIBAbE4MO7duiS8cO6NypPdOwlDItdFAoBcqlUzJKUsekCAxrbceAFnbERjJawiU2/Ks+gWMZbnyz1wXplHDwHF0S1J8xKiQBEiABEiABaxBo3bIFHvzpXWjZork1DDbIShXTX6i42GwQbnYTJALy5qlqhTf4VZsR6iEBEiCB4BJo3KgB5HHbzdfjzJmzWC1SQMjoCjt371VyZ3QwaHz48Wfo16cn7HZ7MLrXos99+w9ix85dytkS6XRi/JiRyumyiqApk8Yq6aAg+c9NWYCbrpso0ibS+dYq1yPtVI+ATN0wfMggr0NCK3HPi5+zZc8RHRRK4dOoZgSGtLJhaGsHalelU0IpiHhKUQInRaSE5cIpYdleNw6dp1OCotNEWSRAAiRAAiRgSQIN6yfhrttvESHtulvS/ooaHRWp3o2mouLiiprF9hYjoKJTS6RIn8JCAiRAAiRgTQK1aydg8oSx3uPc+fNInrsA8xctQfaFHK2BpJ45g2XfrMLQwUwTcK2JnjZztpLRNYYM6g+G8b/WrAX/fNvWrdCyeTPs3X8g+IP5OUJW9gUsWrocMsIGCwmQQHgI5ObmYdiQgagjvl+wlE+ADgqCkUzX0C4xAn2a2tG7qQ2J1Zm/ofxLhzVUIXAm2yMcEkq8Tgn7z9IpQZV5oQ4SIAESIAESIIGLBBJqxeP2W27EMHEDVKZ2YAmMgIoRFAoL1dsNHxhdtgoVgaIi9a4ZRlAI1exzHBIgARJQm0Ct+Hjcc9dtIrLCDVi67BvMmpOCI8eOqy26Auq++Gom5GK3TIHBciUBGVljxep1V55U4Jmcq8kTximgxNoSZKrCN999X0kIM2bNxZiRw/i7W8nZoSgrEMjJzcUbb7+H37z1SzidXH4vb84tS6iS2CTRrZFNOCXY0KOxHVWi+WWsvIuFr6tDIDNPOiW4sHSPC7tTPUp69KpDi0pIgARIgARIgATCQaBa1Sq46fopIgTpCPHDzBkOCVqNqaKDQlZWllaMaUzwCagYQYFhcIM/7xyBBEiABMxEQH7nGi0W+OSxeet2zEyeh/UbNsPtcZvJjHK1HjtxAqu+XStSPfQqt67VKswQc+52u5Qzu1vnTmjYIEk5XVYTJNOjJNSqhbPnziln+snUVHy7dgP69u6hnDYKIgGrENh34CD+8cF/8PAD91jF5IDttIyDQpSwtI2IktAhyYYO9Wxom2iHg2m2Ar5w2DD0BApEBN3VB0uwZLcbG4664dLrd1HogXJEEiABEiABEiCBoBCoUrkyJowdhesmjUdsbExQxrBipyqmeDiflm7FqaDNFSBQUFhYgdbBaaqi809wLGWvJEACJEAC/hLo3LE95HEq9TRmz5mPhUu+Rl5+vr/dKFv/8y9n0EHhqtnJycnFgkVLrzqrxtN9Bw7g3gcfV0OMxVXk5KibBmbazGQ6KFj8+qT54SeQPG8+2rVtjQH9eodfjMIKtHVQiBGbtNoKR4QO9SLQsb4dLWvb6JCg8IVIaaUTcIuMDZuOurB4twurDriRzzS/pYPiWRIgARIgARIggbATaNKoodcxYfDAfuCOZOOnQ8VFVHmDPj+/ADEx0cYbzB61JJCekaGcXUzxoNyUUBAJkAAJKEcgsW4dPHjfT3DnbTd5nRRkeoSMzEzldPor6MChw9iwaQu6denkb1Nt689bsAj5BQVK2peVfQHyYCGBsgjs2rMXu/fsQ+tWLcqqxtdIgASCSEAmYn//j39D0yaNUC+xbhBHMnfXWjgoVIoCmtaKEIcNzRIu/m0cb4OdKW7NfXVaWP2xDDcW7JCOCW6k5ci3MxYSIAESIAESIAESUI+Aw25Hn149vI4J0jucJXgEVHX6SEtPR1K9xOAZzp61IpCert5iTmxsrFaMaQwJkAAJkEDwCMjoYJPGj8GwwQPwzw//iwWLl8LjMfd9u0UiKgQdFC5eMyUlJZglImWwkIDZCcgoCi9OfdrsZlA/CZiaQF5+Ht54+z289/avEBkZaWpbgiXeVA4K0SIqQt1qEUgURxPpkJBg8zol1BHPI4JFiP2SQIgI5BR48PVeFxbsdGHPaXP/uAkRMg5DAiRAAiRAAiQQJgJx1ath9IhhGDNqOOJr1giTCmsNq2IEBTkDMs0DHRSsdS1WxNo0BdOC1IqvWRGT2JYESIAESMCCBCqLlGZP/OwBDB3UH7//899x/OQp01JYu36TN2JATDQjYn39zUpI51sWEjA7gdVr1yNVpKapK6K/sOhFYOyoEejUoa1eRvlhzdbtuzAnZYEfLcJb9eDhI/jrPz/EYw/fH14hio6ujIOCdDCIFZEQqsVEoFbli44I0hmhTvUI4ZRg8zomxMXSDUHR64iyAiRwKYXDfOGUsFqkcChyBdgRm5EACZAACZAACZBAkAlER0WjR7fO6N+3F3r16A6nU5mfEkG2XI3uq1apooaQq1SouOB8lUQ+VYiAijf9a9WKV4gQpZAACZAACZiJQPt2bfDn372Dz7+cgf9Nm4lisQPfbKWgsBBr1m6ATNNm9TJ95hyrI6D9mhBwu92YPnseHnngHk0sohmXCDRv1kTck+l96anl/vbt3RPHjp/Ath07TWN7yoLFaN+2DT9nS5kxR9tE4xb9HSKlgtMeIQ75F3B89/fi84vnK4lIFlWFE4J0RKgac9Eh4eLjCMj2LCRgBQLnLngwf2cJ5u9w40w2oyVYYc5pIwmQAAmQAAmYkUBMdAx6du+Mfn16o3vXTlA1zYAZ2fqrWdVFVBUXnP1ly/qhI5CenhG6wXwcqVY8HRR8RMVqJEACJEACpRBwOp2449YbMaB/H/z+T3/Hzt17Sqml9qllK1ZZfuFk46atOHz0mNoTRXUk4AcBmb7ljltvgKqO7n6Ywqok8D0Bm82G555+DI888Swys7K+P6/yA7n6J6MtNWvaGPWT6qksNeTaHL+7WYQtYCEBEgg6gRI3sOaQC/O2u7DhiBsyegILCZAACZAACZAACahGoJLIx96ze1fhlNBL5KPtyFx5ikxQgqK7vNMUXHBWZMoo4yoCcidXeqZ6N5ESajHFw1VTxackQAIkQAIBEGhYPwnvvvmqCD29EH8T4ZxLXOYJk7pp81ZcuJCDKlVEWGOLlmkzky1qOc3WlYCMjjI3ZRFuuXGKribSLosSqFkjDs88+TO89OobYo3NHIts+QUFeP3t9/C7d17nxp/LrlvGZb0MBh+SQDAInBYREuZtK0HKDhcy8oIxAvskARIgARIgARIggcAJRIpdXy2bN4MMUSuPdm1aifQNzsA7ZMugEFDVQeHs2XNBsZed6kdA7nBxu9VbrFE1Ool+VwAtIgESIAH9CURERGD8mJGIq14Nb737O9M4KcjUFKu+XYtRI4bqP0mlWHhI5AjfvHV7Ka/wFAmYm8DsufNx/eTx/H1v7mmk+lIIdO3cETdeNwmffzWjlFfVPHVEROn5098+wFOPPaSmwDCoooNCGKBzSP0JyOgIa0W0hDnbXFjPaAn6TzgtJAESIAESIAETEYiKjESrli3QoV1rbx68Vi2bM0qCCeZPVQcFhsI1wcWjiMT/Z+8+4KMq1jaAP9uy6YSQhN5D6L1LR0CkFxsoICAoggICitiVIihFBRuWa6/0XqVXAem999ATQtru5ptZxA8RUrfMOfvM/e3dcs6Zeec/K7vZ854ZFWfbCAwIQHBQkCJCDIMCFKAABfQiIGciGz4UmkpS2PrXDp9NUJg2cy7SxP9YKKA3gStXr2LZitVo2byp3rrG/lDAubzSrj37sGvPXs1oLBZLr1QUv8U1b9pYMzG7M1AmKLhTl3X7nMClhDQs2GkTyzg4EBvPL7Y+9wZghylAAQpQgAKKCfhbrSgippstWkTeiqCsSEaIEbMlWCz8M0CxocownECx9IY8kXo9ISHDfT25w/nzF5Bw4wbk0iAsFEhP4MyZs+lt9so2zp7gFXY2SgEKUMAnBLSWpLBn336fGJc7O3nx0iWsXL3uzpf5nAK6EZg+ay4eaNYEcoYXFgroScBkMolkwOfRf9CLuBYXr5muTfn0S8RElxS/0RXWTMzuCpS/TLpLlvX6lMCu0w7M+suG1QcdsDl8quvsLAUoQAEKUIACCghYzBYUKlQAxcQfOPKPHHkrJpIS8uXLyx8iFBgfV4UgT6aqlqAgrzY7euy4WBqkrKu6yXp0KnD02AnlehYVkUe5mBgQBShAAQroR0BLSQoXL13GebF0V96oSP0MQCZ6MmvOArEUhy0Te3IXCmhT4MTJU9i8ZRtq1aimzQ4wagqkIxCRJw+GDhyA10e+i7Q0bVwwnJScjFFjJ+DD8WPg7++fTu/0v4kJCvofY/bQTQLJ4rvr8n02zNpmx6EL2vjHz00UrJYCFKAABShAATcImEU2uMXih+DgQITnzo084bkRHh4uHof9/Vg+F6+LbblyhTIRwQ1joFqVURERzmQA1eI6cpQJCqqNiYrxyEQW1QpnUFBtRBgPBShAAf0JyCSFl8RyD2Pf/0CcCLcr3cE9e/f7VILCjcREzF+0VOkxYXAUcIXAtJmzmaDgCkjWoaRAzRpV8VCHtvhtxmwl47tbUCdOncZHn0zFsMHP3W2zz7zGBAWfGWp21FUC5+LSMFvMlrBglx3xSa6qlfVQgAIUoAAFKHCnQEhwMF4fIX7N02kxwCASECzw85M3v5s353P52AI5XR0LBW4XiBIzKKhYVDzxrKKTr8ek4gwKkSLph4UCFKAABSjgboEGIklhX9uDmDZzjrubylH9u0WCQpNG9XNUh5YOXrh4mXOpMi3FzFgpkB2BHTv34OChIygVXSI7h/MYCigv8GS3Lti9dx/27DugfKy3Aly2YjUqli+Hli3uv/WSz90zQcHnhpwdzq7AzlN2TBezJaw95ICDEyZkl5HHUSDbAmYjYLWIm9kgbvIe8BfP/cS9xWRw3vuJc3k3n4t78ZpFPDeLm/NeHH/zsQGyLvnYJO7FbuLe4HwsX5evGeVNvP7/N4PzsVyuTb52a9k28fD/H8sn8vnNO/6/BwXkuLHoU8As/kOVX9ZZKECBmwKqXu0tZ1BgoUB6AtevJ+DCxUvp7eKVbaom/XgFg41SgAIUoIBbBbo80glLl68U62THubWdnFS+R5zc8ZViF7NZzJwz31e6y376uIA8lSFnURg+dJCPS7D7ehWQF/jI9/eAQS8i7vp1zXTzk6lfI6ZUNEoUL6qZmF0ZKBMUXKnJunQnkCpmXlux34bpW+04GMusBN0NMDvkVgF5Ij/IKm8GBPv9/+NA8TjQzyBuQMBtj+VrMuEgwHLz/p/HYh9/kZQgEwdYKEABClCAAr4soOrJ1GPHT8LhcIgEP35Y+/L7M72+Hz1+Amnif6oVVZN+VHNiPBSgAAUokHOB4KAgPNHlYUz57MucV+amGo6dOImUlBTnzG5uakKZalevXY/YCxeViYeBUMDdAqvXbUSvCxcQFRnp7qZYPwW8IiB/L3lh4LN4a9R7Sv7teTeUZPGZO3rcBHw44V0EBif8sw8AAEAASURBVATcbRddv8YEBV0PLzuXXYFriWmYs92G2dsduJyg3g9p2e0Xj6NAdgTk7AOh/gaEis9Iect167G4D/GHuIkEBPlYJCPc/thfJBxwNoHsiPMYClCAAhSgwN0FVE1QSE5JxkmxhmLRIoXvHjhf9XkBFZcBkd9Uixct4vNjQwAKUIACFPCcQKsHmmHOvEU4ceqU5xrNQksy4fR87AUULlQwC0dpc9dpM+dqM3BGTYFsCjhnDZk9H31798hmDTyMAuoL1KlVAx3bt8b0Wdr5N/7UmbP4YPKneHnYYPWBXRwhExRcDMrqtC1w6ooD07bYsHiPA8k2bfeF0VPgXgIyaSBYJBaEBxqQOwjI7bwXjwOBsAADconnN+9vPpczILBQgAIUoAAFKOB9gUKFCohTqgYlrwb4a8cuJih4/y2ibARHj51QLrZ8+aIQEhKsXFwMiAIUoAAF9Csgp6Du07MbXntnjLKdPHc+VvcJCtt37sbBw0eUHQMGRgF3CSxcshyPP/YwgoLEj8AsFNCpQK/uXSGXLNp34JBmerhyzXqxxG15tGnVQjMxuyJQJii4QpF1aF5gxyk7fttix4YjDqRxwgTNj6cvd0AuqRAZbECEvIUAeYIMzlu4eH7rcW7xmpwVgYUCFKAABShAAW0JhIaEIF/eKJw9f165wLdu2472bR5ULi4GpIbAnn371QjktihKRZe87RkfUoACFKAABTwjULNGVVSrUglb/9rhmQaz2Mr58xeyeIT2dp82Y472gmbEFHCBwI3ERMxftBQPd2rngtpYBQXUFDCbzXh56CD0H/wSrickqBnkXaL6/KtvUKZ0NKJLlrjLVn2+xAQFfY4re5UJAYdIRFh90I5f/7Rh/zlmJWSCjLt4WcAq/sWOCjUgKkTexGN5L55HintnUkKIEQEWLwfJ5ilAAQpQgAIUcKtAqVIllExQ2LFrD2w2G+SPASwUuF3g0uUrOHHi1O0vKfE4Jtp3fvhRApxBUIACFKDAPwLNmzZSNkHhXGzsP3Hq8cGJk6ewees2PXaNfaJApgRmzZ2Pju1a8e+2TGlxJ60K5BUXdrzwfD+8M2a8kjNQ3s01JTUVo8ZNxOQJY31mlhP+enS3dwJf07WAXLph8W6bc8aEM1eZmKDrwdZY50xGMfuBSDbIHwrky2X455Y/1Oh8LGc+4GILGhtUhksBClCAAhRwsUBMdDRWien/VCuJSUnYs+8AKlUop1pojMfLAtu271DyRyHOoODlNwabpwAFKODDApUrVVB22a7zYokHPZfpM+eK2XP5e7Cex5h9S1/g4qXLWLl6He5v0jD9HbmVAhoXuK9OLbRr0xKz5i7QTE/OnjuPiR99gleHD9FMzDkJlAkKOdHjsZoSiEtKw+y/bJj5lx1Xb2gqdAarIwE/sbRC/jADColbwdziXtwKiMf5RBKCTE6QSQosFKAABShAAQpQ4F4CMWIGBVWLXOaBCQqqjo734tr2107vNX6Plo0Gg5g6s/g9tvJlClCAAhSggHsFwnPnRpHCBXFcXM2vWjmn4wSFK1euYvnK1aqRMx4KeFxg2sw5TFDwuDob9IbAU092w569+3Hw8BFvNJ+tNtes34iZc+ajQ9tW2TpeSwcxQUFLo8VYsyVwIT4N07bYMG+nHYmp2aqCB1EgSwJGMc2BnAFBJh8UlMkIfyciFAwzOpdkkNtZKEABClCAAhSgQHYE5HqERoMRjjRHdg536zFyLeUnu3VxaxusXHsC27arl6BQIH9+BAUGag+TEVOAAhSggG4E5CwKKiYoyKWZ9Fpmz1sIOYU2CwV8XeDIsePOZWaqVank6xTsv84FLBYzRrw4GAMGv4SEG9q5avnL/32PsqVjUDomWtcjxAQFXQ+vb3fu5FUHftlkw7K9DqTafduCvXePgJztQM5+UDRc3PLcuhlROLcRfvzX1T3orJUCFKAABSjg4wKBAQEoVDA/Tpw6rZzEocNHERcXj9DQEOViY0DeETh2/AQuX1HvREepaHVnIvHOSLFVClCAAhTwtEAVkaAgT5irVpKTk1ULySXxJIl+zVu42CV1sRIK6EFAzqLABAU9jCT7kJFA/nx5MWjA0xg9bqJYelAbJdVmw+j3JmLyxLEICQ7WRtDZiJKn0LKBxkPUFjhw3oGfRGLC2kMOcWWZ2rEyOm0IyAkP5LIMJSMNKBYhExKMzoSEQiIRwSKWbGChAAUoQAEKUIACnhSIKVVSyQQFOavDhk1/okWzJp7kYFsKC6i4vIPkKhVdUmE1hkYBClCAAr4gUKlCeRiNYlYsh1qzYuk1QWHx0j8QF3/dF95a7CMFMiWwddsOHD12AsWLFcnU/tyJAloWaFCvLlo/uAdzFyzSTDfOx17A+A8+xhsjhsEglijUY2GCgh5H1Uf7tPOUHT9usmPzMbW+2PvocGi22wEWoLhIQighkhFKRhrFvdH5PNBPnx8Cmh0oBk4BClCAAhTwYYEYcXJ16R+rlBRYsnwFExSUHBnvBLV56zbvNJxBqzGcQSEDIW6mAAUoQAF3CwQHB6FIoYI4duKku5vKUv02ux02mx1ms36uyJFJIDNmz8uSA3emgN4F0sS15NNnzcGQgf313lX2jwJOgb69u2Pv/gM4fOSoZkTkBSDTZs7FQx3baibmrATKBIWsaHFfJQU2HxOJCRtt2Hma0yUoOUAKBxXqD8TkNYqbAaXEvUxKKJDLKDLSFA6aoVGAAhSgAAUo4PMCpcQMCqqWXbv34ey585DTKLL4tsCly5fx145dyiHIq1VLliiuXFwMiAIUoAAFfE8gNDRUyU4npySLBIVAJWPLTlDrNmxyfj/NzrE8hgJ6Flixai2efKIL8uQJ13M32TcKOAX8LBaMGDYIz70wHDcSEzWj8r/vfkS5sjEoV6a0ZmLObKBMUMisFPdTSiBN5CKsPWTHDyIx4WAsExOUGhxFgwkRyQilogx/JyTIpAQj8uViJoKiw8WwKEABClCAAhRIR6Bk8WIwm0yQV7ipVuSVOEuXr0S3ro+oFhrj8bDA8hVrlJu2WhIULVIYAQHijwMWClCAAhSggJcF5CwKKha5zENQoH4SFOTVpywUoMB/BeQ697PmLkCvHo//dyNfoYAOBQoWyI/nn+2LseM/EL9caKPI333GvDcJUyaOQ2hoiDaCzmSUTFDIJBR3U0PAIf7VWLHfJmZMsOPYJa38E6KGnS9FYRGz0JUUsyGUK2BE2fwGlBbJCPnDxMwIvoTAvlKAAhSgAAUooFsBPz8/lCheDAcOHVayj0v/WIknujys23USlURXMCiZqKJiqVW9qophMSYKUIACFPBBgZAgVRMUUnQzGrv37ndO6a2bDrEjFHCxwPxFS9Hlkc5M4HWxK6tTV6Bxw3rYsXM35i9eqm6Qd0R24eIlvDdxMt5+fbiufmdhgsIdA82nagrYHMCyvTb8tMmOU1eYmKDmKHkvqshgA8oWEAkJ+WVCgtG5XIOffpbK8x4sW6YABShAAQpQQFmBWjWqKZugcD72AraLP/irVKqgrB8Dc6/AQZE8c/zkSfc2ks3aa9esns0jeRgFKEABClDAtQKqzqCQkprq2o56sbZpM+d4sXU2TQH1Ba4nJGDRkuXo0K6V+sEyQgq4SOCZPk9i74GDOHrsuItqdH81m7duw6/TZuLRhzq6vzEPtcAEBQ9Bs5nsCaSKWWsX7bbhZ5GYcC6OiQnZU9TXUUYxDULxCAMqFjSiYiGjMykhMoRzI+hrlNkbClCAAhSgAAUyEqhdqzq+//m3jHbz2valy1cwQcFr+t5veImisyfkEmt9lyldyvtAjIACFKAABSggBFRNULCK2br0UE6fOYsNG//UQ1fYBwq4VWDGnHlo2/oBmMQygiwU8AUBOSvliGGD8PyQl5GYlKSZLn/zw68oV7YMKpYvq5mY0wvUmN5GbqOAtwRSbMDMv2zo/lUyJi21MTnBWwOhQLtm8a9UObFMw6M1TRjZwYLpz1rxWTcrBjS1oFGMCUxOUGCQGAIFKEABClCAAh4XiC5RHBF5wj3ebmYbXL12I65evZbZ3bmfjgRsYi3blavXKtmjmmJ5B6ORP4MoOTgMigIUoIAPCgQrusRDYGCALkZjxuz5cKSJaXlZKECBdAXkDHhr1m1Mdx9upIDeBAoXKogB/Z7SVLccDjveff8DXL2mj99a+Je5pt5++g82WcwgNm2LDd2+TMbk5TZciOesCfof9X/3UCYkVCxoQPe6Jrz/kAWzBvjjwy5W9GlgQZ0SJgRbOVvCv8X4jAIUoAAFKEABXxQwGAyoXbOGsl1PTknG75xSV9nxcWdga9dvwrW4eHc2ke26a9eslu1jeSAFKEABClDA1QKBgYGurtIl9QUGaD9B4VpcHJYsW+ESD1ZCAV8Q4HIovjDK7OOdAvc3bogHmjW582Wln1+6fBnjxn8Eh0P7CXhMUFD6reY7wSWKxIRfN6fiiS+T8MlKGy4lMDHBV0ZfLtlQKsqAR2qYMKaTBTP7+2Pio1aRoGBBlSImWLkQja+8FdhPClCAAhSgAAWyKKD6ydZ5CxaLE9VxWewVd9eyQFpaGn7+bbqSXbCYzahetYqSsTEoClBAnwLyitQ3Ro7FtWv8LNTnCOe8Vyp+T/KzWGAWn5laL3PnL4ZMmGWhAAUyJ3Dg0GHs2LUncztzLwroSODZvr1QtEhhTfVo6/Yd+OlXNf/uzgokExSyosV9XS5wIyUNP20SiQlfJOHz1XZcueHyJlihggIFwwxoV9mEN9paMK2fFZ88YUXfhhbULGaCv0XBgBkSBShAAQpQgAIUUFCgSqUK8Lf6KxjZzZDkWo7TZ85VNj4G5nqB9Rs34+jxE66v2AU1VhDrdOplymoXcLAKClDAzQI3EhOdyQkbN2/BC8Nfw9lz593cIqvXokDshYvKhR2gg9kTUlJSMGf+IuVsGRAFVBfgLAqqjxDjc4eA1WrFiBcHi99WrO6o3m11/vDL7/hrxy631e+JirWfDukJJbbhcgGZmDB9qw3TttoRn+Ty6lmhYgIBIumgSmGjSEAwooa4FQhjbpRiQ8RwKEABClCAAhTQoICfnx+qVamIdeKksKpF/jjcuWNbhIaEqBoi43KhwI+/THNhba6tqnbN6q6tkLVRgAIUuIeAnHL33fcm4djfCVunz5zFCy+9hndeH47okiXucRRf9kUBFRMU9LC8w7I/Vim5PrdctPb1EcMQGRHhi2939vlvgVVr1uHX6bOU9Nj851acPHUahQsVVDI+BkUBdwkULVwI/Z/ujfEffuyuJlxer/y+OXb8h5gyaRzCc4e5vH5PVMgEBU8os41/BGRiwsxtNvy+xY44Jib846K3B/ILd/FIgzMhQSYllC9ggsWkt16yPxSgAAUoQAEKUMD7AnVq1VA6QUFeQTpj1jz0eOIx72MxArcKyKuEDx056tY2slu5/PuECQrZ1eNxFKBAVgU+//JbbNqy7V+HXbl6FS++8hZeHjYINatX/dc2PvFdgVixDIhqJSAwQLWQshSPXG5quvjuqWKpUqki6tauqWJojMmDAvnyRjln+JCzzalWHM7/fuZiYP+nVQuN8VDA7QLN72+M7Tt3Y+kfK93elqsakN8vx46fhDFvvw6jUXsXBWsvYleNHOvxqEBiKvCzWMqh25fJ+GotkxM8iu+hxqwi3alOCSMGNTPjp75WfN7Nij4NLGLmBCYneGgI2AwFKEABClCAAj4oUKtGNRgNav9ZN3veQsTFxfvg6PhWl1WePaGwuCImf768vjUg7C0FKOAVgbkLFmPm3Pl3bfvmsg/jMHfBkrtu54u+J6DiDApBGk9QkAmTJ0+fVvLN1KlDGyXjYlCeFQgODkLzpo0922gWWlv2x2pcvXotC0dwVwroR2DAM71RRGMziGzfuQff/fSbJgdB7V+yNEnKoG8XSBKJCb9uFokJXyThizV2XEu8fSsfa10gT5ABrSoa8U57C6b388fIDn5oU8mMiGB5jRILBShAAQpQgAIUoIC7BcLCcqF0TLS7m8lR/Qk3buCLr7/LUR08WG2BzeJK4f0HDykbZL06tZSNjYFRgAL6Edj61w58OvXrdDvkcNgx5dOpzs9FeaU3i+8KJImrp+Pj1UvgzJdX2wl902bOVfJNJacPr1GtipKxMSjPC7Rv+6CySeYpqSmYPX+h51HYIgUUEPD398eIFwfDKpbT1FL55bcZ2LJtu5ZCdsbKBAXNDZk2Ak6xA9O22sSMCUn4fLUdV5mYoI2By0SUxfIY8ERtEz5+3A8/P23FC839ULekCVZLJg7mLhSgAAUoQAEKUIACLhdo1OA+l9fp6gqXLF+Jv3bscnW1rE8BgZSUVHFC7n8KRHL3EOQMIw80b3r3jXyVAhSggIsETpw8jdHjJsJmFz+IZVBkWsLvM+dg1NgJSE5OyWBvbtargJw9QcUUlSKFtbv2/IGDh7Fr9x4l3zId27eBwcALupQcHC8EVbBAfrH8WDUvtJy5JufNXyw+n5IztzP3ooDOBIoVLYJ+fXpqqleONAfem/ARLl66rKm4maCgqeFSP1i7A1iwy4Ynv0rGJytsuHJD/ZgZYfoC8qtz6XwG9K5vwte9/PBFDyuerGdBTF4j+LU6fTtupQAFKEABClCAAp4QaNakEfytVk80le020sRP8B99PBUpKTwRk21ERQ/88ddpOH32rKLRAdWrVYZc65eFAhSggLsE5DJGb4x8F9cTErLUxJr1G/HSq29xKu0sqeln57PnzivZmcKFCikZV2aCmjZztpJJH7lz5ULTxg0y0wXu40MCHdu3Vra318TsLkuWrVQ2PgZGAXcLtGxxP5o0rO/uZlxa/9W4OLz7/iTYM5Es69KGc1AZExRygMdD/19Azkq3Yr8dvb9JxvjFNsTGq5gD/P/x8lH6AkaReVC5kAH9m5jxQx8rpnS1okstCwqH8Z+M9OW4lQIUoAAFKEABCnheQK5j2qhBPc83nMUW5UnsH3+ZlsWjuLvKAseOn8Dv02erHCJat2yudHwMjgIU0LZAaqoNb495H9k92bzvwEEMevEVnDh5StsQjD7LAqvXbsjyMZ44QKszKJw/H4vV6zZ5gijLbbRp9QD8LJx6NstwOj+gUoXyiC5RXNlezpg9Fw6HuBqVhQI+KvD8s31QSMx2oqWya88+fPP9z5oJmWcbNTNU6ga68agd/X5Ixsh5qTh1hYkJ6o5U+pHJWcYqFjRgQFMzfu5rxfhHrOhY1YyoELGBhQIUoAAFKEABClBAaYE2D7ZQOr5bwf0+Yw6OHjtx6ynvNSwg107/YMrnYjpzm7K9iIqIQK0a6k6fqywcA6MABTIt8MGUz7Brz95M73+3Hc+JE6svvPQatnMppLvx6PK1GzcSsWadegkK8iS6VmcdmjFnvjiZmvESK55+Q8l1zNu00sb3dE/bsD2gYzt1Z1E4ffYc1m/8k8NEAZ8VCAgIwIgXB4sEMz9NGfw2YzY2/blVEzEzQUETw6RmkLvPODD4l2S8MiMVh2KZmKDmKKUflUw9KJvfgH6NzfhJzJQw8VErOlQxIzyISQnpy3ErBShAAQpQgAIUUEugVHQJlC4VrVZQd4lGnsz+YPKnmVqj+y6H8yWFBOYuWIy9+w8oFNF/Q5FTcxqN/NnjvzJ8hQIUcIXAL7/PwNI/VrqiKufyEK++NRpLlq9wSX2sRG2BlWvWIUnB9d0LFiygyc/N69cTsGjJciUH/X6xFFuu0FAlY2NQ3hdo1OA+5AnP7f1A7hHBtJlz7rGFL1PANwRKFC+Gvr27a6qz8kKC9ydNQeyFi8rHzb/UlR8i9QI8dsmB12elYODPKdh5mokJ6o1QxhEVjzCgTwMTvn/Kio+6WNG5mhkRwUxKyFiOe1CAAhSgAAUoQAF1BVprZBaFfQcP4bMvvlEXkpFlKHBOrJv9v+9+ynA/b+5gNpnQsnlTb4bAtilAAR0LrFm30eVT6KbabJjwwSf49odfIH9cZtGvwOKlfyjZuSKFCigZV0ZBzV+0BIlJSRnt5vHtRjFdrcpXyHschA3+R8BsNqNtq5b/eV2VF/bs24+9+9ROSFbFinHoV0DOVtmwXl1NdTAuPh5j3psEm/huqXJhgoLKo6NYbBfiRebNohT0/TYF6w5z/SHFhifDcCJFAsKjNUz4vJsfpna34tGaFuQNZVJChnDcgQIUoAAFKEABCmhEQF6BExIcrIlo58xfiEWK/jivCUAvBpkkTgC8JdZbT7hxw4tRZNx03do1Ea7wFWkZ94B7UIACqgocPHRYXJk2GQ43JBGkIQ0//joNr7w5CleuXlWVgHHlQODEyVPYp+gMRMWKFs1Bz7xzqDz5MmvuAu80nkGrcpmpwhpN+siga9zsQoFWLZvB32p1YY2urYqzKLjWk7VpU2DQgKdRIF8+TQUvZzv86tsflY6ZCQpKD48awcUnpeHzVano8XUyFu52iD/A1IiLUWQsECS+27SsYMT7D1vwo1jCoU9DC0pE8j/7jOW4BwUoQAEKUIACFNCegFzjtnnTxpoJfMqnX2DfgYOaiZeBwnlF7/gPP8HRY8eV52jVsrnyMTJAClBAewIXL13Cm6PGuX16/q1/7cCzA1+EvGfRl8DiZStEGoqapUrlCmoGlk5Uf6xag0uXr6Szh/c2dWrfxnuNs2XNCISGhEAuBaJqWbdxM86cPadqeIyLAh4RCAwMxIgXB8HPYvFIe65qZMaseVi3YbOrqnN5PTxT6XJS/VSYLGb/+HlTKrp9mYxf/7QjRe3ZQPQDn8OeGMWkCNWLGjGilRm/Pu2PoS38UKWwCWJWMRYKUIACFKAABShAAZ0LtH6wufjep40vfimpqRg5ZjwuX+EVolp5W/7y+0ysXrte+XALFsiPKpW0d5JFeVgGSAEfF0hKSsabI8d57GSonEHhVTGTwtfi6je73e7j+vrovrzaf9kfq5TsTEhwEEqXilYytnsFJZdCmT5z7r02e/X1UiVLoFLF8l6NgY1rR6BD2weV/RvO4XBgxuz52sFkpBRwk0C0+Hf9qZ7d3FS7e6qVM3NN+PBjnDsf654GclgrExRyCKjHw+UMCQt22tDjq2R8scaO68l67KX++lQwzICe9Uz4/ikrxnb2Q9MyZljN+usne0QBClCAAhSgAAUocG8BeWK2aqWK995BsS0XL1/GqHfHK782omJsXgln059bneuie6XxLDYq1wnVSqJOFrvG3SlAAS8JyBOh4yZ8iENHjno0ArmMxC/TZmLoy2/gfOwFj7bNxlwv8NOv05VduqOK+P5oNGrrVMHWbdtx9PgJ1w+UC2rk7AkuQPShKgoXKoia1aoq2+Mly/6AXNOehQK+LtCudUvUr1tbUwzXExIwetxEpKaqdwW6tr51aGrYtRnsusN29PkmGeOX2HDxuqoTjmnT1h1RB4gZZeQSDpMe9cM3vax4vLYFUSHauGLOHR6skwIUoAAFKEABClAA6NyxraYYdu/bj1FjJzBJQeFRk+tlj5vwkVjuz6FwlDdDiwgPB5d3UH6YGCAFNCfw1Tc/QE5z7a0i1xHuP+hFrFm30VshsN0cCuzbfxA//TYjh7W47/DqVSu7r3I31TxN0dkTIiPyoGH9um7qNavVq0DH9q2V7VpScjLmLVisbHwMjAKeFBj03DPIlzfKk03muK0Dhw5j6tff5rgeV1fABAVXi2q0vl2nHRj0czJen5WK45eZmKD6MMbkNWBQMzN+edrqXMKhQkH+p6z6mDE+ClCAAhSgAAUo4CkB+QNzlUramlJ2/aY/8Y5Y7iFVLPvAopbA8RMn8dKrb0NeeaGF8vhjD8Hq56eFUBkjBSigEYFFS//A7zNmez1a+e/wqLHjMfnTL5GSkuL1eBhA5gXk8iDvTZoMh0PNpTrkpU7VNJagcOToMWzbvjPzg+DBPdu3eRAmk8mDLbIpPQhUrVwRxYsVVbYrs+ctglyij4UCvi4QHBSEl4cNgsWsrenL58xbKJZr3KDU8PGsplLD4flgjl1yiKSEFAz6JQW7zjAxwfMjkPkWg8RvbG0rm/DpE374+HEr2lQyI9CPsyVkXpB7UoACFKAABShAAd8R6NX9CRjE/7RUNv65BW+Pfp8/fCk0aEeOHsdLr7yl7HTUd1IVKlAALZo1ufNlPqcABSiQbYEdu3Zj8idTxQq+ahQZx9wFizBo2Cs4eeq0GkExigwFpn79HU6fOZvhft7aQU4vHxUZ4a3ms9WunD1Brq2tWgkMCMCDLZqpFhbj0YhAx3bqzqJw5epVLF+xWiOSDJMC7hUoXSoavXo87t5GXFy7/MScNPlTnDl7zsU1Z786Jihk307TR56PS8N7i1LQ99sUrDus/jSdmsbOYfClxWwJQ1vI2RL8MfB+C6Kj+J9tDkl5OAUoQAEKUIACFNC9QEypkqh/n7bWRpSDsnnrNrw1ahyvDFXgHXro8FEMf+1tXI2LUyCazIXQ44lHecVi5qi4FwUokAkBeUJ55Ltidh+bemv2Hjl23Lnkw3c//srPzEyMpTd32bxlG+YvXOLNEDJsW2uzJ1y8eAkrV6/LsF/e2OGB5k0RFBTojabZpg4EmjSsh9xhYcr2ZLpMDEpTLzFIWTAGpmsBmVBUt1YNTfUx4cYNjB43UXx3VGM2FJ7p1NTbJ+fBXktMwycrUtHz62Qs2u0Qa4jmvE7W4HoBq5gdpmV5I6Z09cMUMVtCywpm+Ftc3w5rpAAFKEABClCAAhTQr8CTT3SBWYPTy27Zth1vjByLxMRE/Q6O4j3bf/CQMzkhLj5e8Uj/P7yYaJmUU+f/X+AjClCAAjkQuH49wflZFBd/PQe1uPdQOdX2D7/8jqcHDMHGzVvc2xhrz5ZAXFw8Jn70qZJX+t/eocYN6t3+VPnHM+cugM2uXuKQ0WhCh7atlPdjgOoKWCwWtHmwhbIBnjh1Cpv/3KZsfAyMAp4WeGHgs8gbGenpZnPU3qEjR/HZl9/kqA5XHcwEBVdJKl5PokiI+X5DKrp/mYxpW+1IUXPJM8UV3R9eodwG9Gtkxs99rRj6gB9K5+N/ou5XZwsUoAAFKEABClBAnwIFC+bHA82aarJzck3hgUNH4MTJU5qMX8tBy5NcI14fCbnWuZZKz25dYDBoa1kTLfkyVgr4koDNZsfIse/j1Okzmuj22fPnnckUcgai8+djNRGzLwSZlJSE0e9NwuUrV5Tubgmx5n2Z0qWUjvH24G6IBNYFi5be/pIyj+vXrYW8Udo6UaUMHgP5R0AmKPj5ibWeFS3TZs5RNDKGRQHPC4QEB2P4sIHiwhBxxbGGyvyFi7Fi1RqvR8yzn14fAvcGkCoSEWZss4nEhCT8b50dCSnubY+1Z13AKH5Dq1PCiHc7WfB1Tys6VzcjxJ8/rGVdkkdQgAIUoAAFKEABCtwp8PhjD8Hfar3zZU08PyHW1pZJCqvWrNdEvFoP0uFw4OvvfsKb4gSXnPpRS6VqpYqoWqWSlkJmrBSggMICUz77An/t2K1whHcPbf2mP9FXzKbw06/TkSpmV2DxnoCcOeGlV98W76Od3gsiky23eqBZJvdUY7eFi5cp+z2lc4e2aiAxCk0L5MoViqaNGijbhx27duPgoSPKxsfAKOBpgbKlY/Bkt8c83WyO2pMT638wZarXk3GZoJCjYVT3YLsDmL/Thh5fJWPKHzZc0dbvS+rCujCyIPE7cedqJvyvpx9GdvBDjWImMC3BhcCsigIUoAAFKEABClAA4eG5NT3VbKK4+nCMuPrwczEFod3OaeDc9Za+cvUqXn79bfzy+wzNrStrEH9F9eze1V00rJcCFPAxAbm+9gJxAlSrJTklGd/88DOeeX4o5JJJLJ4XiL1wEUOGvw65XJLqRSaxNmms7onQO/3kd8GZc+bf+bISz8uXLYPSMdFKxMIgtC/QsV0r8Q1XzTMF8sTmtJmztY/MHlDAhQIyQa1WjWourNH9VSUmJWLU2AlITvbeVe1MUHD/OHu0BYf4hFi614ae/0vGhCU2xMbLjwwWlQSKhBvwfFO5jIM/+jW2oEAY/zNUaXwYCwUoQAEKUIACFNCbwMOd2iM0JESz3UoTKzdPnz3PeSXipctqT5OsReRdu/diwOCXsH3nHi2Gj/r31UZMqZKajJ1BU4ACagls2LQFX3zzvVpBZTOa02fO4tU3Rzl/eD4feyGbtfCwrAocP3ESL7z0Gk6ePp3VQ72yf6MG9RAUGOiVtrPT6Kq16yETQFQsnTu0UTEsxqRRgaJFCqNaVXVnB1u9biNi+dmi0XcXw3aHgFxqcOig/oiMyOOO6t1W59HjJ/Dx51+5rf6MKuaZ0YyENLJdpiGsPmhH32+T8e4CG85cZWKCSkMn8x2rFzVidEcLvuxhRbsqZgRYVIqQsVCAAhSgAAUoQAEK6FUgKCgQT3R5WPPd27VnL/r2H4zZcxdCLkfAkjMBeaXEtz/8guGvvQ2tJn4EBgTgqZ7dcgbBoylAAQoIgSNHj2Hs+A909fni/K1w3Qb0fmYgxn/wMU6c1MZJc62+IffuO4ChL7+Bi5cuaaYLWlveQc5womIpkD8f6tSqoWJojEnDAp3atVY2epVnM1EWjYHpXkBeFDJ8yECYTCZN9XXR0uVYunylV2JmgoJX2F3XaJr4a2PNITv6fZ+Mt+ak4tglJia4TjfnNfmJf4taVjDi8+5+GNvZD7WKi2Uc1JydKeedZQ0UoAAFKEABClCAAsoKtG31ACpXKK9sfJkNLOHGDXw89Ss8P+Rl7Nt/MLOHcb87BNau3+hM9vjx12mwaXjpjL69uiNvVOQdveNTClCAAlkTuHzlKt4cOQ5yWSE9FpvdhiXLV+CZ517AO2PG48DBw3rsplf7tH7jZrFU0juIv37dq3FkpfGSxYtpakmC7Tt24eBhNde97yhOJBuNPM2Slfcf981YoFrVyihauHDGO3ppj4VLliMhIcFLrbNZCqgpUL5cGXTv+qiawaUT1eRPv8DxE6fS2cM9m/jJ6R5Xt9cqExNWHbDj6e+S8ebsVByKZWKC29Gz0ECuAKB7XRN+6GPF0BZ+KB7B/9SywMddKUABClCAAhSgAAVcLCCnHHxh4LOQV5zroRw6clRMofwqJk3+DHFx8Xrokkf6cOr0Gbzyxii88+54nL+g7Sm/a1aripYt7veIGxuhAAX0LTBu/IeIvajmtPGulHeIHxPXbtiIgUNfxojXR0Ke8GXJmYBcbmCk+Ex9e/R7SEpOzlllHj760Yc6eLjFnDU3TdHZE0KDg9G8aeOcdY5HU+AuAvLvt47tWt1lixov3UhMxPxFS9UIhlFQQCGBRzq3R42qVRSKKONQ5HeYUeMmICnJs99leNY047FRag+HyEP4Y78NfcRSDm/PTcWRi0xMUGmACoYZMPB+M37s4y8SFCzIHcjpElQaH8ZCAQpQgAIUoAAFfFlAXmnet3cP3RDIEy0LlyzDU88OwvRZc5GYqM8rX10xYNevJ+Crb35Av+eHYstf211RpVfrCAkOwqABT3s1BjZOAQroR6D3k48jd1gu/XQog57IXxK3bt+Bl8QSP4OGvQJ59X+avBKKJdMCqak2/PL7DOdsRGvErERa04uJLokG9epmur/e3vH4yVPYvHWbt8O4a/utWjaHv7/1rtv4IgVyKtC0cQOEhYbmtBq3HT9r7gLYbDa31c+KKaBFAZlcNGzwAOQJD9dU+CfEZ+1Hn0z1aMxMUPAod/Ybs4slVpftteGpb0Qmyzwbl3LIPqVbjiyX34A32lrwdU8r2lY2w2p2SzOslAIUoAAFKEABClCAAjkSaNm8KWrVqJajOlQ7OC4+Hp9/9S26P/Us/vf9T7hy9apqIXotnrPnzuOTqV+jW+9++HX6LKTq5AfEfn16IU8ebf3g47U3ARumAAUyFCglTtZOGDsSBQvkz3Bfve2w78BBvCWu/n9GJLDNmb8IV69d01sXXd6fLdu2i4S/Ifj6u580N2vCLYye3buKJWi1c1HVdDF7gopJNBazGe1at7zFynsKuFzAz88PrR9s4fJ6XVXhxUuXsWL1WldVx3oooBuBXLlCMXzI85pb/mfZilXiIpDlHhsHJih4jDp7DSWlAjO22dDjq2SMWWDDictay8nNXr+1cJT8Gl+3hBGTHvXDh12saFDKBKN2vttrgZgxUoACFKAABShAAQq4QWBQ/6cRGhLshpq9W6Vc9/nn32agx1MD8OHHn+P0mbPeDciLre/dfwCjxk5A734DIa9s0tO66vXq1IK8moyFAhSggCsF8ufLK5IU3kGZmFKurFYzdR0/cRJTPvsSXZ98Bq+8OQpLlq9Awo0bmonfE4HGiqWR3hnzPl4VPqc0/B2jepXKqFq5oifIXNLGlStX8cfK1S6py9WVNG5YH+HhuV1dLeujwL8E2rRqAT+L5V+vqfREJhCxUIAC/xWoWKEcnujy8H83KP7KJ59/haPHjnskSl7n7RHmrDdyNTENs0Riwqy/7IjjTKVZB3TjEWaR1tO0jBGP1DSjWB7m+LiRmlVTgAIUoAAFKEABCrhBQP6Q+uzTvfHu+x+4oXbvV5mSmuJcD3Xh4uWoXbMamjSqL2aNqK776XfliaSNm7Zg7oLF2LNvv/cHwg0RyClun3u2jxtqZpUUoAAFgFzi35h333nduQbv5i1qTifv7nFyOOyQMwTI20cfT0VNMetS4wb1UEt8nlrFlby+WHbt2Ycly/7AilXrkJzi2bWZXe1tFLMm9OzR1dXVurW+2fMWIiVVXMGnWDHAgE7tWysWFcPRo0DusDA0blgPi5etULJ7R8SJzK1/7UC1KpWUjI9BUcCbAo893Am7du11Lq3lzTiy0nZySor4LjwRH40fg4CAgKwcmuV9maCQZTL3HnDmqgO/b7Fj0W47krl8j3uxs1i7v0hUbFXRhIeqmxEVwqkSssjH3SlAAQpQgAIUoAAFFBKQJxvWrd+EVWvXKxSVa0NxpDmwftOfzpu/1eo8ydKwXh3nEhdW8VwPJT7+OjaIPq5Zt0H8MLhTLOGg3g/4rnQe0K8PwnL5zjrxrrRTsS55Zc66DZtUDI0xKShQo1oVyKmu3V3kWvJvvvIiJk3+VMwisNLdzSldvzwpvHb9RuctUPxAXbd2TedJMnn1vVlMba/ncvHSJSxdvkokJqzA6bP6mZGpYYO6iC5RXDNDl5SUjHki8VLFUrVKRRQvVlTF0BiTDgU6tmst/j1aiTTxPxXLtJlzmKCg4sAwJq8LyMTAYS88h/6DhuGymBFIK+XU6TP4YMpnGD50kFtD1ve3SbfSubby7SftmClmS1h7yAGHmp8zru2whmoL8Qc6VDGhY1UzQgOYmKChoWOoFKAABShAAQpQgALpCAx45ins2rNXU38op9OddDclJSdjtUjGkDd/q7+YWaGqONFSC+XLlUFkRJ50j1Vt47nzsc6rlNau24jtO3fBZrerFqJb4rm/cUPUv6+2W+pmpd4RkOubenKNU+/0kq26SuD7rz5FRJ5wV1WXbj0mkwkvPP8s5FWrv06fle6+vrLxRmIi5LrE8iZnUihdKhrlypVG+bJlULZMDIKDgjRPkSoSMtZv3Oy8SlleDexwODTfp9s7IMetx+Ndbn9J+ceLxcwVcWIJLxVL5/ZtVAyLMelUQCbDVKlUAdt27FSyh1u37XBOCc+kHSWHh0F5WSB3WC68+MLzGPHGSE19t1ixeh0qlC+HNg+2cJsgExTcRptxxYni4pale24u43DsErMSMhbz7B7hQQYxW4IRbSuZEeDHxATP6rM1ClCAAhSgAAUoQAF3C4SGhuDV4UMw/NV3xNS5Ke5uTpn6k5KTsHLNeudNBiUTFMqWKY1y4gSLPMlSsngxZa4MTUxMwoGDh7DvwEHs2y9u4v7K1WvKWHoqEHki7Pln+3qqObZDAQpQAAZxxVuvHo8jd+4wTP3qW3ExEX+3u/W2kFP/7ti9x3mTr8mrA4sUKexMVihfVnyeilu+vFG3dlf2Pk2M6ekzZ7H/wCHs3rtPJDFuQLyiJ8Ndgdize1fkz5fXFVV5pA6ZIDJj9jyPtJXVRoqJ93u1qpWzehj3p0COBDqKJUVUTVCQMztMmzkXQwf1z1EfeTAF9CogE4y6PtIZ3//8m6a6+PmX36BMTClEl3TP7EtMUPDC2+HkZQdmb7djsVjGIcF3fgf0gnT2msyfy4BHapjwQAUz/EzZq4NHUYACFKAABShAAQpQQAsC5cSJ+SED++Hd8R9C/lDvi+XCxUu4sGYdVombLPIKw1LRJVCoYAHkjYpynmSRJ1ry5o10Xk0rT1q5ssgZEC6KGM7HXkCsuMn787GxOHTkGI6fOKmpqyxc6XKrrryRkc7p1q1W90/tfqtN3lOAAhS4JSCn1Q4XSQoTPvwE8sQ8y38FZPLGseMnnLd5C29Ox58nPBxlSpdCgfz5bn6ORkWKz1HxWSruLRaxhqoXily24cDBw86EBHl/8NARXL+R4IVIPN9klUrl0b7Ng55vOActyiWAzp47n4Ma3HdoJzF7gqu/D7ovWtasF4Ga1auicMGCOHn6tJJdWrl6LXp264I8HprtSEkEBkWBdAS6PtoZO3fvFrMg7klnL7U2yeW+Ro+biI8mvougwECXB8cEBZeT3r3CVDHr5vrDdszbacfW4w5FVwu6e+y+8mqRcAO61DKhaRkzTEZf6TX7SQEKUIACFKAABSjg6wKNGtTDmbPn8c0PP/s6hbP/8gTUrj37nLc7QWTygjy5EhkZgQCxHre/1QqruPmLk+dWsW75refyNbtIPEgWS0skJ6f8fX/zsVxuQr52LS7OmZBw8fJln09CuNP51nP5I8hbr73kvIL51mu8pwAFKOBpAfk5Ka88f3v0+5D/ZrNkLHBJOK1dv/E/O8rZFsJz53YmK9xK/ssnkgHlbEb+Af7Oz1T5Wfv/n6d+GSY0yNmGridcx/XrCTdvCf9/Hxd/HceOnXDORnTpypX/xOMLL8jlN4Y8319zJ9TlmvYqlnCx9EuTRvVVDI0x6VxAJsV0aNcKH30yVcmeptrETOFzFzhnH1IyQAZFAS8LGI1GvPTCQPQf9CKuXNPOrIhnzp3DxI8+xasvveByQSYouJz03xXuP+fAIjFTwh/77YhP+vc2PlNDoGSkAV1rm9GglElMS6dGTIyCAhSgAAUoQAEKUIACnhTo8kgnkaRwDkuWr/Bks5prSyYvnDh12nnTXPAaC9hoNOHlYYNQrGgRjUXOcClAAT0KxIilZj4YPwbvjHnfudyOHvvoiT7J2RZkkoe8yWUVMlPkD/q3JyzIJECbOBEmExISRDKCnImI5d4C/fr2dCZW3nsP9bbI98ZesbSViqVt6wcyTJpRMW7GpA+BZk0a4pvvf0ZcfLySHZq/aCnk35UykZuFAhT4r0B4eG4Me+E5vPrmaLF8mOO/Oyj6ypp1G5wJSK6ejYnXibthwC9dT8Mvm1PR+5tk9P8xxbmcA5MT3ACdwyrL5jPgnQ4WfNrNikYxTE7IIScPpwAFKEABClCAAhTQuMDA/n1RqUJ5jfeC4etF4Nk+PVGjWhW9dIf9oAAFdCCQR/yoPG70m7i/cUMd9EY7XXA4HLiRmIgrV6/i3PlY5/JHp8+cdc5ExOSE9Mex/n11NPl+nTZjbvod89JWmSjT+sEWXmqdzVJALEUn3oOtHmimLMV1kTS2cMlyZeNjYBRQQaBalUp49KEOKoSSpRi++Po77D94KEvHZLQzExQyEsrk9vikNCzeY8OI6SnoOjUZU1fbcfySb67hmkkyr+1WsaABYztb8FFXK+qWMIGTJnhtKNgwBShAAQpQgAIUoIBCAmazGa+9PASFChZQKCqG4osCHdu2QptWPAHgi2PPPlNAdQE/iwXDBg/AU092g7yyn4UCqgrIhJrn+/VRNbx7xiWTTzZs+vOe2725oVnTxggNCfFmCGybAmjbuiUs4u82VcvMOfOdS92pGh/jooAKAk90fQQVy5dVIZRMxyCXcRkzbpJzBqtMH5TBjvwmnQFQepuv3EjD3B02DJ+Wgoc/Tca4hTZsOuaAnXkJ6bF5bVvVIgaMf9iCiY9aUb2oyWtxsGEKUIACFKAABShAAQqoKhASHIy3XxuOXKH88VXVMdJ7XHVqVkefXt313k32jwIU0LjAQx3bYvRbryI8d5jGe8Lw9Sggr/R/45UXEarB73MzZs1Tctpro8GIju1a6fHtwj5pTEAmHzWsf5+yUZ+PvQA5HTwLBShwbwGTSHJ9achA8btL6L13UnDLudhYjP9gCtLEkl2uKExQyKJibHwapm+1YfAvyXj0s2RMWmrDn8cdsGlnuZAs9lj7u9csZsQHj/nhvYesqFyYiQnaH1H2gAIUoAAFKEABClDAnQIF8ufD6yOGIcDf353NsG4K/EegbOkYvDR0IK9K/o8MX6AABVQUqFKpAqZMeg9yql4WCqgiIGf2GC5OesREl1QlpEzHcS0uDkuWr8z0/p7csXbNaihYIL8nm2RbFLinQMf2rZWeFXraTDWXabknKDdQwAsCEXnCMXRQfxgN2prjfb2Y5Wi6SCZ0RWGCQgaKSanA5mN2fLYyFX2/S8bjYvmGj1fYsPN0msjmzOBgbvaagPxPum4JI6Z09cOYTn4oX4Bvda8NBhumAAUoQAEKUIACFNCcQPmyZZxXhoYEBWkudgasTYGqlSpi9NuvMjFGm8PHqCngswK5w3Jh1Juv4MknHhPJVbwoxmffCAp1/OnePVCndg2FIsp8KHPnL0ZySnLmD/Dgnp06tPVga2yKAukLRJcojooVyqW/kxe3Hjh0GDt27fFiBGyaAtoQqFm9Kh7q2E4bwd4W5dff/oi9+w7c9kr2HvKs7R1uMulg71kHftiYiiG/JqPjx0l4eXoqfttix5ELaWBOwh1gij2ViQn1o4345Ak/vNPBD6Xz8S2u2BAxHApQgAIUoAAFKEABjQiULRODcaPfRO4wTl+tkSHTbJj31a6Jt18fzuQEzY4gA6eAbwsYxJVvjz3cCeNGvY7IPHl8G4O996pAh7at0L7Ng16NIbuNp6SkYM78Rdk93K3HydkotLZWuFtBWLkSAh3btVEijnsFMW3mnHtt4usUoMBtAj1Ekmu5MqVve0X9hza7DWPem4S4+PgcBevzZ2+vJ6dh63E7ftqUitdnpaCTSEh47qcUfL3Wju2n0pBqz5EvD/aQgFFkJjSKMeLz7n54s50foqN8/q3tIXk2QwEKUIACFKAABSigZ4HixYpi/Ji3kTcqUs/dZN+8KNCsSUO88tILsFgsXoyCTVOAAhTIuUCFcmXFkg/j0LBe3ZxXxhookEWBuiLZr2+v7lk8Sp3dl/2xClevXVMnoNsi6dxB7RPBt4XKhz4kULtmdRTMr+6yI5v/3IqTp0770IiwqxTInoDJZMLLYpnD0JCQ7FXgpaNiL17E+xMnIy0t+5f1+9RZ3BQbsEfMjjBjmw3vLkjBk1+LGRKmJOPFaan4co0d6w47cF3NWaS89BZTv1mZmNC0jBFTe/jhtTZ+KB7hU29p9QeIEVKAAhSgAAUoQAEKaF6gQIF8ziSFIoUKar4v7IBaAu1at8SQgf0hf5RhoQAFKKAHgdDQEIx4cTBGDBuEXKGheugS+6ABgQrlymD4kOfFMiPa/F1UntyYPkvNNeujIiNQ/746GngXMERfEzCKEyPt26o7Y4pD4f+ufe29wv6qLxApPmuGDHwWBvE/LZVNW7bht+mzsh2yOdtHKnzgtcQ0nLoib46/728+P3k5DTaHwoEztEwLmGRiQlkjutYxo3CYNr98Z7qz3JECFKAABShAAQpQgAJeFoiIyIP3xryFV98cjYOHj3g5GjavB4Guj3RG98cf1UNX2AcKUIAC/xFoWP8+VKpQHh99MhVrN2z6z3a+QAFXCdSsVgWvDh8Cq9Xqqio9Xs/GzVtw8vQZj7ebmQY7tGnFRMrMQHEfrwi0uL8xvvvhF8QnJHil/YwalTOj9Hj8MYSF5cpoV26ngM8LyFlROokZe7S2PMr/vv/FuURFhfJlszyGmktQSEwFriQ4cPWGuL+RdvOWkIaz124lJaQhLinLDjxAIwJmkYvQTCYm1DajABMTNDJqDJMCFKAABShAAQpQQA8C8krQsSNfxxsjx2Hn7j166BL74AUBeVVIn57dnD++eKF5NkkBClDAYwLyhMxrLw/FHyvX4JPPv0Lc9esea5sN+YZAo/p1MWzwczCbNfcT/78GSNWTMUGBgWjZoum/YuUTCqgk4O/vj5YPNMvRFczu7E9Kaipmz1vIpGR3IrNuXQn07NYFu/fsw74DBzXTL4fDjnff/wCTxTJnYbmyNnuYefEese6BF4pclkIuuZBqF/f2NKSKxyni8T/34jX5PDHlZiLCrYSEJJGgwOJ7AhYx42eLckZ0qWVBvlzamubE90aLPaYABShAAQpQgAIU0KtAoPihdtSbI/CeWGtw9boNeu0m++UmAaufH57r1wfNmjZyUwuslgIUoIB6Ak0a1UflShUw9atvsWLVWqSJ/7FQIKcCrVo0w4B+T2l2WYdb/d9/8BB27d5766lS9y2bN4X87stCAZUF5JJpM8QSKTa7OJmmYJm7YDEefaiDpmd5UZCVIelUQCYcviyWCRsw+EXEX1dzZpS70V+8fBnvTfgII8VvRQZD5s/fmsct9E6Cwt06wdcocKeAn0gAblXBhEdrmhEZkvk39p318DkFKEABClCAAhSgAAUo4BoBP3GS+ZWXXnBeDfPF199BXhnDQoGMBAoXKijWZB+M4sWKZLQrt1OAAhTQnUB47jC8NOR5cTX2/Zjy2Zc4cfKU7vrIDnlO4JFO7dGrx+Oea9CNLU2bOVfJlB2zyYT2bVu5seesmgKuEYgUS/HVr1dbJMCtc02FLq4lLj4eS5atQJtWD7i4ZlZHAX0K5I2KxODnnsU7Y97XVFLrlr+246dfp6Pro50zPTBiwnwWCqgn4G8BHq5uwve9rRjQ1MLkBPWGiBFRgAIUoAAFKEABCvi4gLxaZ8LYkSiQP5+PS7D7GQk0a9IIH40fw+SEjKC4nQIU0L1A5Yrl8bGYAre3OLkcIKbmZqFAVgSMBqPzvaOX5IRz52OxZt3GrBB4bN/699VGVGSEx9pjQxTIiUCndm1zcrjbj50+ex4cDofb22EDFNCLwH11aookuQc1153vf/4N23fsynTcTFDINBV39IRAoB/QtZYJPzxlxdONLAgP4qwJnnBnGxSgAAUoQAEKUIACFMiOQHTJ4pg8YSzkGsgsFLhTwN9qxZDnn8XQQf0h18hloQAFKEABQE7f+7C4Av7zKRNR/7464C9ffFdkRiAsNBTvvPGy872Tmf21sM/MOfPFSUv1pqWX/0126qD2CV8tjC9j9JxATKmSKF+2jOcazGJLZ86ew/qNm7N4FHengG8L9H7yCcREl9QUgkxEGjv+Q1y5cjVTcTNBIVNM3MndAqHit6oedU34USQm9KpvQa4A/nnmbnPWTwEKUIACFKAABShAAVcIBAYGiHUSB+P5fn1gFcs/sFBAChQrUhgfilkTmt/fmCAUoAAFKHAXATkt96tiyaT3x7yNcmVi7rIHX6LATYEK5cpgsph5o3rVyrohuS7W1l60ZLmS/alQvqzmTgopCcmgPCrQqX1rj7aX1cbkci4sFKBA5gUsIqH15WGDEBQYmPmDFNjz8tWrziSFzMyawgQFBQbMl0OICDbgmUZm/NDHH93qWhDsz8QEX34/sO8UoAAFKEABClCAAtoVaNWyOSa+NwqFCxbQbicYuUsEWjZrig/eH40ihQu5pD5WQgEKUEDPAuXFyWe5ZNJrw4fyM1TPA52NvhkMBueMCWNHvoGIPOHZqEHdQ+YtXILEpCQlA+zUnrMnKDkwDCpdgbq1ayJ/3rzp7uPNjXv27cf9qcCTAAAb8UlEQVTefQe8GQLbpoDmBPLny4vBzz2judm2/tq5C9//9FuG3kxQyJCIO7hDoECYAYObm/Fdbyseqm5GgMUdrbBOClCAAhSgAAUoQAEKUMCTAiWKFcWHE95Fy+ZNYRQ/qrP4loCcfvqlIc9jkPgRxSqWd2ChAAUoQIHMC9SrWwuffjTeOSNReO7cmT+Qe+pSIDQ4GG++8iJ693gcJpNJV31Mtdkwe94CJftUsEB+1KlVXcnYGBQF0hMwGo3Kr1n/+8w56XWB2yhAgbsIyOXA2rRqeZctar/0828zsHXb9nSDZIJCujzc6GqBEhEGvNLKjP/1tKJ1RTMs+vp+7Wou1kcBClCAAhSgAAUoQAHNCQT4+2PQgGcwcdwolCkVrbn4GXDWBczixEmHtq3wxacfoEnD+lmvgEdQgAIUoIBTQJ6IljMSffXph3hKrD2cOyyMMj4oUL1KZbGkw1jUrqnPE+UrVq7BpctXlBzZju1aQ85cwUIBLQq0aNZE6eng12/cjDNnz2mRljFTwKsCfXt1Q3SJ4l6NIauNO9IcGDdxMi5dunzPQ5mgcE8abnClQKVCBozsYMFn3a1oUsYsrqZyZe2siwIUoAAFKEABClCAAhRQTaB0TLRzyYcXnn+WJ1hUGxwXxlO1ckVMEetiP/PUkwgOCnJhzayKAhSggO8K+PuLGUc7tsM3Uyfj2b69EBUR4bsYPtTziPBwjBg2GKPeegVRkZG67HlaWhqmzVJzLfrQkBA0b9pIl+7slG8IBAYEOGeyU7W3ck36GbPnqxoe46KAsgIWiwUjXhwM+d+4lsrVa9cw5v0PYLfb7xo2ExTuysIXXSEgkxAaljJichc/THjEijolTJpbK8UVDqyDAhSgAAUoQAEKUIACviogr0BrcX9jfPnJJHRu3wZmk9lXKXTX73xRUWK99CEY8/ZrKFqksO76xw5RgAIUUEHAz88P7Vq3xFeffeicnahA/nwqhMUYXCxgNJogr9z//OOJaFi/rotrV6u6LWK652PHT6gV1N/RtHmwBZeoUnJkGFRWBNq1eRDy3xRVy5JlfyAuPl7V8BgXBZQVkN8BB/Z/WnPnWHft2Ytvf/jlrq78deiuLHwxJwJW8a5qUd6Eh6qbUDCMOTA5seSxFKAABShAAQpQgAIU0INAYGAg+vTqjpYt7senX/wP8sdpFm0K+FuteKRze+eVvfLEGQsFKEABCrhfwGw2O6+KlUl/q9duwKy5C7B3336kub9ptuBmgXJlYjDgmadQongxN7ekRvXTFF2D3k9cndq21QNqIDEKCuRAIG9UJOrXrYVVa9fnoBb3HZqUnIy5Cxaj6yOd3dcIa6aATgUaNbgP23fuxvxFSzTVw1+nz0KFcmVRs0bVf8XNBIV/cfBJTgRyidlF2lU2oX1VM8ICuIZDTix5LAUoQAEKUIACFKAABfQoULhQQYx68xXI9Ue//OYHnDp9Ro/d1GWfjAajuKqzDnr1eEJMO82pxnU5yOwUBSigvIDRaIT8cVreDh0+gtlzF2LF6nVISU1RPnYG+G+BSLFsxxOPPQS5ZrycccoXypGjx/DX9l1KdrVJo/rInTtMydgYFAWyKtCxfWtlExRkX+bMW3Qz2VkkBrFQgAJZE3jmqR7Yt/8Ajhw7nrUDvbi3XN7pvUmTMWXiWETe9lsCExS8OCh6abpoHgM6VTWhWTkz5OwJLBSgAAUoQAEKUIACFKAABdITqFu7JurUqoENm/7EtJlzIaf9Y1FTQM6Y0Pz+JmLq6Vbg1OJqjhGjogAFfFMgumQJvDDwWfTu+QQWLl4mrkhdggsXL/omhoZ6nT9vXjzyUAc0b9oIcmYMXyryO1+agvN+GMSE2R3btfGloWBfdS5QtnQM5G2vOImpYrly9SqW/7HKObueivExJgqoLCBnMRzx4mA898JwJCYlqRzqv2KTS7uMeW8Sxo1+S3z/ubkMjW99C/oXB5/kREDm9dYqbkSnaiZUK2rS3LonOek7j6UABShAAQpQgAIUoAAFci4grxaUiQrytv/gIUwXU/6uXrcJDoc955WzhhwLhOfO7Vz3vHXL5ggJCc5xfayAAhSgAAXcI5ArNBSPPtQRD3Vqj61iCaWly1eImYq2cFYF93Bnu9ZCBQvgMTFO8kp9k0nd9eGz3cEMDrx48RJWitk+VCzVq1ZGsaKFVQyNMVEg2wId27XG3vfUTFCQnZo+ay4eaN7UZ2aQyfZA8kAK3EVAfqd4rl8fjJv40V22qvvSHpE09fW3PziX/5RRMkFB3bFSMrIAMetOi/ImdBCJCYXDjErGyKAoQAEKUIACFKAABShAAW0JlC4VjZeHDUav2AuYOWc+Fi1ZjhuJidrqhE6iLV60CDq1b4PGDevDYuFPBjoZVnaDAhTwAQGTWP6hZvWqztv1hASsWrNeJCusxN59B5S8at0HhsTZxWJFCuOxhzuJZZLqQi7R4atl5twFsNltSna/UwfOnqDkwDCoHAnUq1sLeSMjcf7ChRzV466DT5w6jU1/bkXtmtXd1QTrpYCuBZo2boAdO3dj4dLlmurn9FnzUKF8OXGhSg0mKGhq5LwYbP5cBrSrbMSDFc0ItvrGumhe5GbTFKAABShAAQpQgAIU8EmBvFGReLp3D7Em88OYv2ipWFt7AS5cuuSTFp7stJzauHrVSujUoS2qVankyabZFgUoQAEKuEEgOCgIrR5o5rydPnMWy1esxtr1G3HsxEk3tMYq7xTwE+uqyx/eWzRr6vxclbNG+XK5cSMRC8T3OhVL8WJF+d1HxYFhTDkWkDO1tGvTElO//i7HdbmrArnsCxMU3KXLen1BoF/fnth34KCmvt/JpZ4mfDgFkyeMZYKCL7xJs9tHk/juXLuEEW0rm1BDLuPg29+ls8vI4yhAAQpQgAIUoAAFKECBLAoEBQXi4U7txJX8rfHX9l1i6Yf1WLdhM+S6hSyuEZB/3sn1y+vfVwcN6tVBgfz5XFMxa6EABShAAaUEChbIj25dH3HeZLLC2vWbxGfqJufySmlpaUrFquVg5OdqqeiSaHF/Y+csRMHBQVrujktjX7hkGRJu3HBpna6qTH7XZKGAXgVaNr8fP/z8u7Iz0+3ctRsHDx0R/3aW0OsQsF8UcKuA1WrFiBcH4/khI5CUnOTWtlxZefz1BIx+bxITFFyJqpe68gQZxEwJRrQWsyVEhjArQS/jyn5QgAIUoAAFKEABClBAawLyyp/q1So7b3KNxe1iCsPVazc4T6xci4vTWne8Hq+cKSGmVElnUkL9+2ojf768Xo+JAVCAAhSggOcEZLLCI53bO28XL112fp5u2rwVu/bsFT9sJ3suEB21FJYrF+Q0yzIxoZhYJonl3wJ2u925fNe/X1XjWZ7cuZ3JJGpEwygo4HoBmfTdolkTZf8blCly02bOxvChg1zfedZIAR8RKFK4EPo/0wvjP/hYUz3ef/AQExQ0NWJuDFamIVQtYhCzJZhxX0kTTL67JJoblVk1BShAAQpQgAIUoAAFKJBdAZmsIJcfkLcBzzwFecXN6nUbnVNWX712LbvV6v44Oa10mZhSaCBmSqgnkhLkMhosFKAABShAgYg84WjXuqXzlpqaij37DmDbXzuwbftOHDx8BA6Hg0h3EZC/oRYtUhg1qlVBjepVxTrKZWEW31FY7i6was16xF64ePeNXn61rXj/W8xmL0fB5ingXoH2bR7E7HkLlf03fdXajejZ/QL/RnHv24C161ygedPG2CEu5liyfKWmespPYE0Nl+uDjRIzJDQvZ8QD5U0oEMasBNcLs0YKUIACFKCANgTuq1NL/EEYpVSw/v5WpeJhMBSggDoCJpFRXaVyReet/9O9sHP3Xvy5ZZvz5Io8qZKSkqJOsF6IRJ50Kls6BhXFSZO64t/3yIg8XoiCTaokEBkZgcQk7Uz7qZIdY1FDQP67z+I+AYvFgsoVyztvT3brguvXrztnLdq1Zx/27T+Iw0eOIkUkMfhqCQoMRFXxvUMmJVQXN36uZv6dsH7jZiWXkZJJJa1bNs98R7gnBTQqIGdMkzO87Ni1R9kerFm3AZ07tFUqPpkcr+ISeIEBAUo5MRh1BPo//RTi469DLp+glWK4f3wiFxvTymi5KE6rSEupF30zKaFqEROMMvWXhQIUoAAFKEABClCAAhSggA4EbDYbDokTKXvFlaC3bhcuXdJBz+7eBXnlX8kSxZwJCWXLxDjv5cloFgpQgAIUoICrBFLFZ+uRI8ew78BBZ8KCvD93LhZp4n96LHLq/5Ili6NUyRLOxAT5+SpPVrFQgAIUoAAFKEABCrhGgAkKrnHURC1l8xucMyU0KW1CkJVZCZoYNAZJAQpQgAIUoAAFKEABCuRY4MLFi85kBTl9tUxaOHb8JJJTtLfWtgEG5MmTG6VLRcOZjCBOmMiTJ35+fjk2YgUUoAAFKECBrAgkJibi+MlTOHHiFI6fOCluN+8vXrqsmcQF+bkaFRWB6BLFES0+T+W9TEwIzx2WFQruSwEKUIACFKAABSiQRQEmKGQRTGu7FwwzoHFpI+4vZ0KR3JwOT2vjx3gpQAEKUIACFKAABShAAdcLpKWl4erVazh3PtZ5Ox978/7c+fM4f/4iZEKDzW53fcOZqDEkONi5Bmu+vFHIK27O+6jIf+6tVi5/kwlG7kIBClCAAl4SSLhxwzm7QuyFi4i9cEHcxH3s3/fi8bW4OI+thS4TEEJDQ5xLMshlGSIjIhDhvBePxWxDRQsXQkhIsJek2CwFKEABClCAAhTwXQEmKOhw7KNCbiYlNBYzJcTkZVKCDoeYXaIABShAAQpQgAIUoAAF3ChgF8kJFy9ewjl5QkXcboirRJOSkpGcnIwkcUtOThHPk/55/u9tyTCbzLD6W+EvkgnkTSYV+Pv7iXv/v5/7iec3X5fb5JWazmSEqCgEBQW6sWesmgIUoAAFKOBdAZkkmJBwQ6yRLNZJjo9HnFwv2blm8nXnZ61cqkkuKWFLTcXNx3Zxn+pMajAYDLBYxOepnwV+8vNVzCBktcrnfuK5vJefrfIz1h95wnM7kxHkNhYKUIACFKAABShAAbUEmKCg1nhkO5rwIAMaljKiSRkTyhUwivxgFgpQgAIUoAAFKEABClCAAhSgAAUoQAEKUIACFKAABShAAQpQgAIUoIA6AmZ1QmEkWRXIG2pA3RJG1BeJCZUKmWBkVkJWCbk/BShAAQpQgAIUoAAFKEABClCAAhSgAAUoQAEKUIACFKAABShAAQp4SIAJCh6CdkUzMv8gJq9ISihpxH0lTSgRyeUbXOHKOihAAQpQgAIUoAAFKEABClCAAhSgAAUoQAEKUIACFKAABShAAQpQwP0CTFBwv3GOWvAzAVWLGJ1JCXVKmBARzGkScgTKgylAAQpQgAIUoAAFKEABClCAAhSgAAUoQAEKUIACFKAABShAAQpQwCsCTFDwCvu9G5XpB8UiDKgmkhLkrXJhE/wt996fWyhAAQpQgAIUoAAFKEABClCAAhSgAAUoQAEKUIACFKAABShAAQpQgAJaEGCCggKjFBkiExJuJiVULWJCeBBnSVBgWBgCBShAAQpQgAIUoAAFKEABClCAAhSgAAUoQAEKUIACFKAABShAAQq4UIAJCi7EzGxVeUQCQrkCBlQpfHOWhMLhxsweyv0oQAEKUIACFKAABShAAQpQgAIUoAAFKEABClCAAhSgAAUoQAEKUIACmhRggoKbh80kcg9KRoqEhPxGZ1JC+QIm5A3lDAluZmf1FKAABShAAQpQgAIUoAAFKEABClCAAhSgAAUoQAEKUIACFKAABSigmAATFFw8IHJ2hJi8N2dIkEkJpfOZ4G9xcSOsjgIUoAAFKEABClCAAhSgAAUoQAEKUIACFKAABShAAQpQgAIUoAAFKKAxASYoZHPAzGJmhCJ5DM7ZEUpEyHsjSohbWCBnR8gmKQ+jAAUoQAEKUIACFKAABShAAQpQgAIUoAAFKEABClCAAhSgAAUoQAEdCzBBIYPBlYkIckmGgmEGFAkXiQhRBmciQtFwI8ymDA7mZgpQgAIUoAAFKEABClCAAhSgAAUoQAEKUIACFKAABShAAQpQgAIUoAAFnAJMUBAMFpGEkC+XAQVEEkLB3DeTEZyPxfO8oUaYxHYWClCAAhSgAAUoQAEKUIACFKAABShAAQpQgAIUoAAFKEABClCAAhSgAAWyL6D7BIUQKxAebECeICCP814+Nvz9mgERIQZEiZuRKzNk/13EIylAAQpQgAIUoAAFKEABClCAAhSgAAUoQAEKUIACFKAABShAAQpQgAIZCCiboGASCQMmsYSCXGJB3qwWA4L8gGCRcBBkFY9v3YvX/nksXgv2MyDYXyQgyCQEcbMq28MMRoabKUABClCAAhSgAAUoQAEKUIACFKAABShAAQpQgAIUoAAFKEABClCAAjoSMJy4Yk/zRn9E7oFYOsFwMwFBPJHLKJjF85v3gIEzGnhjWNgmBShAAQpQgAIUoAAFKEABClCAAhSgAAUoQAEKUIACFKAABShAAQpQwC0ChjRR3FIzK6UABShAAQpQgAIUoAAFKEABClCAAhSgAAUoQAEKUIACFKAABShAAQpQgAJ/C4h5C1goQAEKUIACFKAABShAAQpQgAIUoAAFKEABClCAAhSgAAUoQAEKUIACFKCAewWYoOBeX9ZOAQpQgAIUoAAFKEABClCAAhSgAAUoQAEKUIACFKAABShAAQpQgAIUoIAQYIIC3wYUoAAFKEABClCAAhSgAAUoQAEKUIACFKAABShAAQpQgAIUoAAFKEABCrhdgAkKbidmAxSgAAUoQAEKUIACFKAABShAAQpQgAIUoAAFKEABClCAAhSgAAUoQAEKMEGB7wEKUIACFKAABShAAQpQgAIUoAAFKEABClCAAhSgAAUoQAEKUIACFKAABdwuwAQFtxOzAQpQgAIUoAAFKEABClCAAhSgAAUoQAEKUIACFKAABShAAQpQgAIUoAAFmKDA9wAFKEABClCAAhSgAAUoQAEKUIACFKAABShAAQpQgAIUoAAFKEABClCAAm4XYIKC24nZAAUoQAEKUIACFKAABShAAQpQgAIUoAAFKEABClCAAhSgAAUoQAEKUIACTFDge4ACFKAABShAAQpQgAIUoAAFKEABClCAAhSgAAUoQAEKUIACFKAABShAAbcLMEHB7cRsgAIUoAAFKEABClCAAhSgAAUoQAEKUIACFKAABShAAQpQgAIUoAAFKEABJijwPUABClCAAhSgAAUoQAEKUIACFKAABShAAQpQgAIUoAAFKEABClCAAhSggNsFmKDgdmI2QAEKUIACFKAABShAAQpQgAIUoAAFKEABClCAAhSgAAUoQAEKUIACFKAAExT4HqAABShAAQpQgAIUoAAFKEABClCAAhSgAAUoQAEKUIACFKAABShAAQpQwO0CTFBwOzEboAAFKEABClCAAhSgAAUoQAEKUIACFKAABShAAQpQgAIUoAAFKECB/2vXjkkAAAAYhvl3XRX9omAQdpYAAYGCDxAgQIAAAQIECBAgQIAAAQIECBAgQIAAAQIECBAgQIAAAQK7gEBhJzZAgAABAgQIECBAgAABAgQIECBAgAABAgQIECBAgAABAgQICBR8gAABAgQIECBAgAABAgQIECBAgAABAgQIECBAgAABAgQIENgFBAo7sQECBAgQIECAAAECBAgQIECAAAECBAgQIECAAAECBAgQIEBAoOADBAgQIECAAAECBAgQIECAAAECBAgQIECAAAECBAgQIECAwC4gUNiJDRAgQIAAAQIECBAgQIAAAQIECBAgQIAAAQIECBAgQIAAAQICBR8gQIAAAQIECBAgQIAAAQIECBAgQIAAAQIECBAgQIAAAQIEdgGBwk5sgAABAgQIECBAgAABAgQIECBAgAABAgQIECBAgAABAgQIEBAo+AABAgQIECBAgAABAgQIECBAgAABAgQIECBAgAABAgQIECCwCwgUdmIDBAgQIECAAAECBAgQIECAAAECBAgQIECAAAECBAgQIECAgEDBBwgQIECAAAECBAgQIECAAAECBAgQIECAAAECBAgQIECAAIFdQKCwExsgQIAAAQIECBAgQIAAAQIECBAgQIAAAQIECBAgQIAAAQIEBAo+QIAAAQIECBAgQIAAAQIECBAgQIAAAQIECBAgQIAAAQIECOwCAoWd2AABAgQIECBAgAABAgQIECBAgAABAgQIECBAgAABAgQIECAgUPABAgQIECBAgAABAgQIECBAgAABAgQIECBAgAABAgQIECBAYBcQKOzEBggQIECAAAECBAgQIECAAAECBAgQIECAAAECBAgQIECAAAGBgg8QIECAAAECBAgQIECAAAECBAgQIECAAAECBAgQIECAAAECu4BAYSc2QIAAAQIECBAgQIAAAQIECBAgQIAAAQIECBAgQIAAAQIECAgUfIAAAQIECBAgQIAAAQIECBAgQIAAAQIECBAgQIAAAQIECBDYBQQKO7EBAgQIECBAgAABAgQIECBAgAABAgQIECBAgAABAgQIECBAQKDgAwQIECBAgAABAgQIECBAgAABAgQIECBAgAABAgQIECBAgMAuIFDYiQ0QIECAAAECBAgQIECAAAECBAgQIECAAAECBAgQIECAAAECAgUfIECAAAECBAgQIECAAAECBAgQIECAAAECBAgQIECAAAECBHYBgcJObIAAAQIECBAgQIAAAQIECBAgQIAAAQIECBAgQIAAAQIECBAQKPgAAQIECBAgQIAAAQIECBAgQIAAAQIECBAgQIAAAQIECBAgsAsIFHZiAwQIECBAgAABAgQIECBAgAABAgQIECBAgAABAgQIECBAgIBAwQcIECBAgAABAgQIECBAgAABAgQIECBAgAABAgQIECBAgACBXUCgsBMbIECAAAECBAgQIECAAAECBAgQIECAAAECBAgQIECAAAECBAQKPkCAAAECBAgQIECAAAECBAgQIECAAAECBAgQIECAAAECBAjsAgKFndgAAQIECBAgQIAAAQIECBAgQIAAAQIECBAgQIAAAQIECBAgIFDwAQIECBAgQIAAAQIECBAgQIAAAQIECBAgQIAAAQIECBAgQGAXECjsxAYIECBAgAABAgQIECBAgAABAgQIECBAgAABAgQIECBAgAABgYIPECBAgAABAgQIECBAgAABAgQIECBAgAABAgQIECBAgAABAruAQGEnNkCAAAECBAgQIECAAAECBAgQIECAAAECBAgQIECAAAECBAgIFHyAAAECBAgQIECAAAECBAgQIECAAAECBAgQIECAAAECBAgQ2AUECjuxAQIECBAgQIAAAQIECBAgQIAAAQIECBAgQIAAAQIECBAgQECg4AMECBAgQIAAAQIECBAgQIAAAQIECBAgQIAAAQIECBAgQIDALiBQ2IkNECBAgAABAgQIECBAgAABAgQIECBAgAABAgQIECBAgAABAgIFHyBAgAABAgQIECBAgAABAgQIECBAgAABAgQIECBAgAABAgR2gQBGZWPoeDD4JAAAAABJRU5ErkJggg==;" vertex="1" parent="1">
          <mxGeometry x="200" y="290" width="124.29" height="30" as="geometry" />
        </mxCell>
        <mxCell id="x_rm1d4TItcjszFF2hOW-8" value="优课授课系统" style="rounded=1;whiteSpace=wrap;html=1;fillColor=#f8cecc;strokeColor=#b85450;" vertex="1" parent="1">
          <mxGeometry x="212.77" y="410" width="80" height="40" as="geometry" />
        </mxCell>
        <mxCell id="x_rm1d4TItcjszFF2hOW-10" value="优课教务系统" style="rounded=1;whiteSpace=wrap;html=1;fillColor=#e1d5e7;strokeColor=#9673a6;" vertex="1" parent="1">
          <mxGeometry x="462.77" y="410" width="80" height="40" as="geometry" />
        </mxCell>
        <mxCell id="x_rm1d4TItcjszFF2hOW-11" value="......" style="rounded=1;whiteSpace=wrap;html=1;fillColor=#e1d5e7;strokeColor=#9673a6;" vertex="1" parent="1">
          <mxGeometry x="562.77" y="410" width="80" height="40" as="geometry" />
        </mxCell>
        <mxCell id="x_rm1d4TItcjszFF2hOW-12" value="" style="endArrow=classic;html=1;rounded=0;entryX=0.115;entryY=1;entryDx=0;entryDy=0;entryPerimeter=0;" edge="1" parent="1" target="x_rm1d4TItcjszFF2hOW-1">
          <mxGeometry width="50" height="50" relative="1" as="geometry">
            <mxPoint x="253" y="410" as="sourcePoint" />
            <mxPoint x="253" y="370" as="targetPoint" />
          </mxGeometry>
        </mxCell>
        <mxCell id="x_rm1d4TItcjszFF2hOW-13" value="" style="endArrow=classic;html=1;rounded=0;" edge="1" parent="1">
          <mxGeometry width="50" height="50" relative="1" as="geometry">
            <mxPoint x="503" y="360" as="sourcePoint" />
            <mxPoint x="503" y="410" as="targetPoint" />
          </mxGeometry>
        </mxCell>
        <mxCell id="x_rm1d4TItcjszFF2hOW-14" value="" style="endArrow=classic;html=1;rounded=0;" edge="1" parent="1">
          <mxGeometry width="50" height="50" relative="1" as="geometry">
            <mxPoint x="603" y="360" as="sourcePoint" />
            <mxPoint x="603" y="410" as="targetPoint" />
          </mxGeometry>
        </mxCell>
      </root>
    </mxGraphModel>
  </diagram>
</mxfile>
